<mxfile host="app.diagrams.net" modified="2022-11-22T07:15:31.288Z" agent="5.0 (Windows NT 10.0; Win64; x64) AppleWebKit/537.36 (KHTML, like Gecko) Chrome/105.0.0.0 Safari/537.36" etag="0MWG7kWgfWTq-WkaD-T5" version="20.5.3" type="github">
  <diagram id="tB7ZMdVj_IBf3PmH2Za2" name="第 1 页">
    <mxGraphModel dx="1964" dy="872" grid="0" gridSize="10" guides="1" tooltips="1" connect="1" arrows="1" fold="1" page="0" pageScale="1" pageWidth="827" pageHeight="1169" math="0" shadow="0">
      <root>
        <mxCell id="0" />
        <mxCell id="1" parent="0" />
        <mxCell id="pmKzXr_lIob0-RBbF5Z0-18" value="" style="shape=image;verticalLabelPosition=bottom;labelBackgroundColor=default;verticalAlign=top;aspect=fixed;imageAspect=0;image=data:image/png,iVBORw0KGgoAAAANSUhEUgAAAy0AAACVCAYAAABVYRWDAAAgAElEQVR4nOzdd1wUxwLA8d8dHRQEEUFQ7EYltoiiYuw+jS32Eo09ajQmxiQmRmOMGmOqJUZNbLEbexd7b9iwF0BQQUDpcAfc3e77AzmFO5AqqPP9fHh53u7szuzu7M7sTlGcD7skIwiCIAiCIAiCUEQpCzsCgiAIgiAIgiAIWRGVFkEQBEEQBEEQijRRaREEQRAEQRAEoUhTWpiYF3YcBEEQBEEQBEEQMqWsal8ZUXERBEEQBEEQBKGoUpqbmONW3LWw4yEIgiAIgiAIgmCUEqCEhZ342iIIgiAIgiAIQpGk74hvZWpVmPEQBEEQBEEQBEEwShkcHAyAQqEo5KgIgiAIgiAIgiAYUl6/fr2w4yAIgiAIryVZlvV/giAIQu4pNRpNYcdBEARBEF47Wq2WfVt9GNJxEEtnLy7s6AiCILzSTAs7Aq+StDdloimdILxZRN4XcuPi6Qsc33+MWYt/xsmldGFHRxAE4ZUmKi1ZkCSJhLh4JEkm9EEoJw+cwNzCjIFjBhd21ARBKEAi7wv54fql63T/sIeosAiCIOQDUWnJQmJ8AvOmzyUsJIzkpGRuX73FgI8HFna0BEEoYCLvC/nB3MIch1IOhR0NQRCE14KotGShuJ0t3/46GYAkdRK/Tvq5wPcpy7JogiIIhUzkfSGvkpOSiQx/UtjREARBeG0oX7yKAKlt2ZUmJgW6D1mW2bxiI7HRsQW6H0EQsk/kfUEQBEEofKLSUoSoElWEhYQVdjQEQXjJRN4XBEEQhKyJSksREhIcwv3A+4UdjYIlpioQBAMi7wuCIAhC1gq10iLLMinJKTwMeohOp0udgEuS9MOLZvx3ZtuQZRnp6XrG1pUkicfhj4mNjjW6zezsJzdpkyUpNV5S5hOLybKMpJMIDgjmr5nzSExIRHoaTsrnOKWPW9bHTL9eunOR+XGSZRmdVsfF0xe4c+220WVXzvtxbP/RLPeV8Xjp95thn8YmbHsWx8zXz05aXnQsCkLG6/j5318YTpKynZbsnPuXkV9E3hd5P+O+imreFwRBEIqGQq20LJ29mCblvVgxfzkXT19gRLfhtPZoxepFq4iLieOf3/6mjUcrPuo6jLs37hqET1Inseu/nQzpOAgvN08G/O8D1i1eiypRpV8nOCCYAW370b52W25cvq7f5uheowjyv8fVC1cY0W04bTxasXzeMlKSU/KUJkkn4XvCl4kjvqaNRyu83Dzp2aw7i35ZSNSTKIP1fbbsxausJz2bduPkwZOcOXqatm+nhvNy8+TTDz7J13buIfdDmP3973Tx6oSXmyeje4/i8O5DaLVa/ToxUTGcP3menf/tYN3itSSpk1i/ZB09m3WnxVvN+GroF1w4dR5ZevbQ99myF69ynnzUdRhqldowjeU8GdJxEInxiQZxSklOwWfLXkZ2/wgvN0+6eHVi5lczuHH5BsvnLqVr487s2rATSSdx+9ptzh0/y8blG5jyyWT2b9sHpDavWb94Lb2adadzw45sXrkJnVaXq7RkFBsVw/TxPzCs8xCC/IPyegoMaDVaDu8+xIhuw/By82RM71H4njiHVqNlx7rtRs9/6nV2jq+GfkGLt5rRxqMV0z6fyt0bdzLdT9STKP79czk9m3XHy82Tkd0/Ytd/O0hSJ+nXeVn5ReR9kfeh6Of9vNBqtWi1WswtLApk+4IgCG+aQq20DPlsGMPHf4TfucsE+wczb+18fvr7Z3Zv2MmfM+bi3dqb3Zd98KjnwY7129FoNPqw6kQVc6b+QeDtAH5Z+hvnQi+waNM/qBISmfLJZCIjIgFwr+TOjIU/Ubl6FXZv3EWrjq3Zfm4Xru6u/P7db1y9cJU5q+cxb+189m/zIeB2QK7Tk5yUxIJZf7Fm0SpGfDUKnysHOBd6gZU+q7GwtGDmlzOIjoxOF6Zdt/acC73AudAL/PDndBo1b8yB64f1v81d8yd29na5jtPzLpw6z6f9xlCpemU2HNvE2ZDzjPt+PCv/WsH+bfv0bx7jY+M4d/ws/85bRtjDRyz+/W9c3V1ZvX8tB28coUu/rvw8cRZ7t+zRh2nXrT2bT2zFo97bBvtt1609uy7soa5XPYNlOp2OdYvXcuLAcb7743vOhpxn7cH1lKvozg/jvqdW/dp06NkJaxtrdJKOIP973Lpyk5D7Dzl58AQ6nY7oJ1H8/etCPN6pxeqD62jVsTWb/t3Iw+AHuUpLRg+DH3Jkz2H8fC/jd+5yvpyLNOpENYt+XciWVZsZ9/14zjz05eclv3Hn2m3+/HEuJw+eMAij1WpZ8de/LPplIQPHDObQraP4XDnAO43r8+OXM7h3J9AgTJB/EBOGfYlOq2XZzuWcDTnPd398z5mjZ5gz9Q/UTwv7Lyu/iLyf87yf9jUiO38Zr2WR93OX93NLlajiwPb9lC5TGidnp3zdtiAIwpuqUIc8VigUKJUmlKvkTtuu/8PC0gInl1IANGrRmBp1agJQuXoV/Hz9kHQSmKU+7DYs3wAKBcO/GIGVtRUANsVtGDB6IHOnzWHDsvUM/2IEJiYmKBSgVCpo2aEVld6qBEDpMs7ERMXQsXcnrKytcHZzoURJe1KSknOdnrCQcE4eOsHw8R9RvnJ5/e9W1la07tSGQ7sOcj8gGPuS9rneR27dDwxm3vS59B81gE69O+uHVq1UrRL1m9THZ8temrT2xtbOlrIVyjH0s2HERMXge8KX7+dOpWrNavptNWnVhCfhEaxfso5anrVxLecKgK29HcXtihvdv4WlJZZWlga/B/sHcWTvYb6Z9S2u7qnbsSluQ/eBPQi47c/ta7cYPv4j/fr/e78dALHRsQTcCiA5KZk9m/fQe2hfXNxcAKhVvxayJOHoVAqb4ja5Ssvz3MqXpcV7LQnyD6JOw7o5OOovdmTvYXxPnGPK7KlUqFJBn/4+w/qxfN4yAhINC9IHdxzAZ8sefvhzBlVqVEn9UQkNmjZk+9ptHNl7hApVK+rXT4hPYNmcJXg1b8SgMYMxMU0dCcvV3ZVx349n+vipbF29hT7D+6FQKF5KfhF5P+eWzl7Mol8WZmvdEV+OZOi44YDI+3nJ+7kRGx3LjC+m0bJDK9p3f0+f3wRBEIS8KRId8e0dHbDI8AndwfHZhFxKZfpohoWEcWTvYdp1bacvtKQxNzengXcDLp29RNTj9E0ynt9mxv0qlUpM8jisqZOLEx989AHlK1dI97ssyxS3K55vX0xySpZl9m3bh00xG7xbv5tuLgidpEOSZJxcnDAzMzMI27x9c6rUqJruN4VCQZ2G9UhSJ3H90rU8xS0+Nh5LK0scSzum+93K2grXcq6oEtWZhEy1d8seatatqS+0ALTs0IpxU8djU9wmX9JiZ2/HpN++Y/G2pbhXcs9J8rIUFxPHoZ0HaNr63XQFXQATUxPKlCtjECYmKoad/+2gWbsWVKpWKd0ynU6HUqnEyblUut8vn7nE7Wu3adG+hUEBqqRTSdp2bYfPVh9CH4SmW1bQ+SXjNo3tV+T9Z4aOG67/CvOiv7QKi8j7Lyctz7Ozt2PGwpkolApWzF+OTqvLt20LgiC8yV7JySUf3nuAOlGNrb0dkiQZLLctYUvEowhiomIolaEAV5CsrK3o0KuTvuNnQlwC9wOD8b/pz707gdz0u/HS4vK8+Nh4rl24So06NQwKb2ZmZnwyaWymYZVKE6MT3tmXtKeUcynuB+RtxKPidsVJVicTHhqW7i10kjqJiEcRlK9SIYvQ0PBdL96uVytb+yrotORUeGg4/rcCaPt+u2xPKvjg3n38fC/Tf+QAlCbpC/TOrs4s2Lgo3W+STsLP9zJVParh7OpsdJuV36pCXEwsATf98+1tc0EReT9nRN5P9bLzvpmZGU1bN2XhzwuICItIV7ESBEEQcueVrLREPYni7o079GrWHQWZF/ZUiYYdPwtaSnIyx/cfZ9OKjTx+FEHTts2oVb8WDZt5cf3y9ZceH4DEhETiYuOwsLQ0KOgWtvKVK9CyYyuWzl7CmImf4Fa+LMnJyezdvIfggGAGjx2SZXhnV+cil6bsUiUk8uDefZxcst/mPfpJNKoEldHmNsZoNBpiY+KwtLLExNR4dje3MMPSypLEhJefX3JK5P2cEXm/8JiYmmJqakpKcu6bHQqCIAjPvJKVFoCqNasyc9Es3DM0qylM6kQ1c6bNxv/mXT6b8jk16tTQN2+JjY7NdkHzTaI0UeJR14MH9+4zb8ZcfE+cw7aEHY2aN+L7OVNxKWvYREp4s4m8/3oQeV8QBEHIiVey0mJTzIYkdRIpKXkbojS/+WzbyxVfP2YsnKnvVF0UWNtYY1PMRj8fRqZNkWTI4uV1OinJKaQkp2Cax06mYSFhbFyxkbGTxlKqkEbZya+05JS5pQWOpUuh02W/zbudQ2rfiOyGUZoosXr6FSXTOTkkGUmSsSlmY3R5USLyfs6IvJ+1wsr7giAIQs4V3W/rWXAr74aJqSkP7j3IdJ2AWwEvtWCTnJTMjcs38HjHgzL5/Ibwwb37qaMn5ZJ1MWsqVq1ISPDDdPNYPC8uJo4TB48bWWK8oBseGk5wQDDV69QwWPb8vB9pJEky2iFVo9EQERrOMZ9jXLt4jegnUWg0Gv0kcfk7FGnO06IPWQCTSzqWdqR8ZXfu3b2X7TBOLqWp7VknyzC3r90m8OnwvWZmZtRpWBf/m/76oYAzCrwTiJW1JZWrV85ZAjLIbDLA/CTyfs6IvJ8m93lfEARBKBqKQKUl5w8mtwpl8W7ljc+WvcRGxxgsj3gUztWLVzA1Mc3tLrJgfGMKhQITEyVRj6NIzjB0qizLaDUa/SRucTFxXDp70WAbzq7O6HQ6pOfeosfHxXPtYt5GtjEzM6N5+xZcOnuJK75+BkmQdBLH9h2ldBnDjto3r9w0KOymJKdwYPs+6jasS43azx72JiYm2BSz4WHww/QbkeH21VupI/RkKIy4ubsxcMwg/p2/jCEdB9K2VhsauzekZ7PuTPp4Iod3H8rzpH+5ScvzCmpyyZKOJfFq3ogrvn4kxCWkW6bVagk0Mt9KaZfSNG3blP3b9hERGm6wPC42jnPHzqY7l3Ua1sXJxYlzx84YdF5PiEvgqM8RWnZojbPr087CucgvqaNU+dC+bltW/vUvuucmLMwiVI73I/J+zoi8n/O05Ktsfr0SBEEQXqxQKy1arRZVogqdVqcvTEm61MnR0t6UylLqSDyqhET9A8zc3JwBH3+IUqnkl4k/ExwQjE6rQ6PRcP3SNVbM/5d327yr76SpVqlRq5L0BQdJktDptGhTNGg1qb8lqdSoVWriMxQe0yZ0S0lOTo1DikYf3+cfwOYW5ng1b8TV81c4uPMAapUaSScRExXDrg07+X3Kb0SGPyEhLoHwkDCjnYjLViiHiYkJJw+dRKPRkKROwmfLXipUqZDnDqe16tem1+DezJ/5J8f2HUWVoEKSJGKjY1nzz2rMzM2MvmnX6XQsn7eUh0EPkXQS8XHxLJu7FN8T5+g34gOK29nq17UpbkOdhnXZuX47V877odPqSElO4dThk1w8c5GqHtVYt2Qd65es07/1vXbhKhdOneffPas4G3Kew7eO4uO3n8m/f0c9r3r8++dy1i1eqy/MpZ0PzdNzFxcTa/R8GJOTtDyvoCaXVJoo6dynC4kJiSyZ/Q+PwyKQJYnIx5H8t3Q9IRkLgM+FsS9pz9xpc7h74y4ajQadTsf9wGAWzlqAd5um6YZ8tS9pz6ivR7Nj/Q5WL1xFQlw8kk4iPDSc+TPnYWNjQ49BPfOUXzQpGi6fvcyTiCdsWbWFwDtZfz0SeT89kfeLZt7PCwtLCxydHPO54iwIgvDmUmzdulXu0qULgbFBRCcZvrksSEv++Ec/WVrXAd3p/mF3pn46hbs37gLwz7YlPHrwiO/GTNKv8/nU8VhYps6voFap2b1hJ/u37+Pi6Ys4u7nQvvt79BnWVz+EZnBAMBNHTEi3zfMnfNPtd+hnQ5k+fhpnjpzWr1Pbs45B2IwyxkeWZS6ducjaf9bge+IcAJ7eDeg9tC/1vOqxa8NO5vzwB+/16MCor0cbzDMBqQ/yBbP+wvfEOeo0rMtH40fwTpP62R4SNyuSJHHx9EU2rdiA7/FzxMXE4endgIGfDKJ+E890c2IkJyXz23e/4uTsRKc+nVnyxz8c2nUQSJ0LYfDYIUY7yiYnJbNl1WbW/L2asIeP8PRuQI9BPantWZs/Z8yjZt2aVPN4i6pvV0OTrGHGF9PoMbgX9YzMmA1w9ugZVi1cyfS/fsTSypLfp/zGlpWbjK77/IR6GeOUm7SkiY2OZd70OQT5BzH59yn5OlcLpL59X71oFXs27SYuJpZGLRozcMxgAm8HsGfTbqb/9aPBPB8Zr33bErYvTMvj8MdsWPYfh3cdJDggGE/vBnQf2APvNk0xNzcH8pZf7ly/zbzpczl9+BRLti+jdoM6maZZ5H2R91+FvJ9Xy+cu5a1a1fFq3qjA9iEIgvCmKNRKi1B0PXvYl2LY5x+9OEAuxEbHMunjifQZ1pcmLb0Nm1LIcOboafZs2s2Emd9gXcw6V/t5GWkpCHs27Wb3xl1M/2sGdvYlCjs62RJ09x6/fDuLr2Z+k++VO+HlEHk///geP8eaf1bz2ZTPKVuhrMFkqYIgCEL2iTuoYJROp0On1ZEQn0ByUnKBdK62LWFLx16dWDDrL47tO0p8bDySlNpEKD42nmP7j/LP73/Tpd/7uS60wMtJS36TZRmdVodapSYxPvORv4qaiEcRVKpeBZeyYjK9V5XI+/mnXqN3aN/9Pb4f+x3L5ix5qfsWBEF43YgvLa+Q3Iyoo1Aocty8xM/3MsO7DE332w9/Tqddt/Y52k52yLKM/827bF+7jTNHThMcEAyAR723afBuA7r0fT9PzTdeZlryi7GmSUU9zpDaCf7vXxfxwcgBRWrYXyH7RN4XBEEQiirFrl275Pfee09UWl4Bezfv0bfxzy7xkBZehkcPQtn470Z6DOwhJgUUBEEQBCHfKYKCgmR3d3dRaREEQRAEQRAEoUhSurundpZ9VdrMC4IgCIIgCILwZtF3xFdr1YUZD0EQBEEQBEEQBKOUADHJsSTr8mfmYUEQBEEQBEEQhPykTNGl8DA+pLDjIQiCkGOyLMNzTVtzM8KeIAhCfsl4DxL3JEHIP8o70f7iK4sgCK+ci6cv0Lt5T476HNX/u2/LXhzceaCQYyYIwpsoyD+IYZ2HsG7xWmRZJsg/iOHvD2XNolVIOqmwoycIrzylqLAIQuHK61u4N/EtXtTjKFYtXMm9O4HERMcQFxPH+qXrCLgVQNTjqMKOnvCGE2/X3zxJ6iTWLFrFlfN+xMXEkpyUzJZVm/E7d5moJ9HoJF1hR1EQXnmmhR0BQXhdpRVajE3uKUkSCXHxRDyK4O6Nu7Tq2BpzC/NsbVeToiExIRGdVsud63fYu3kP3Qf2pFb9Wvka/6JKlmWO7j3MhVPnGTv5Mzr27MS+rXs5tPMgH30xki793i/sKApvGFmWSYhPQKfVEfUkijNHTvP4UQQjJ3yMhaVFYUdPeAkunb2Iz9a99B3ejw9HD+LG5evs27KXrv27MXDMIMzMzAo7ioLwyhOVFkEoAInxicz54Q9uXb3Fd39MoXL1KhmWJzDnhzn4Hj+LV4vGtOzQKtvbDrjlz/yZfwIQHRnNrSs36Tage77GvygLDghmy6rNjJ74Cd0H9CA8NIyta7YydvJn9PvoA0xMTQo7isIbRpOiYfXClVy/dB2tRsud67dp1alNYUdLeEmiHkexcdkGeg/ty+CxQ9CkaPhv2XradGnLqK9HY2VtVdhRFITXgqi0CEI2yLJs9ItJZuLj4gkOCOZ+QDBhIeEGlZbidrZM/v07dm3YiZ+vX47i8lat6sxbOx9IbUP99fCvchT+VabTatmzcRd9P/qA/3VthyzL7N++n1YdW9P9wx6iwiIUCnMLc0Z+9TGQeq/457dFPImILNB95vSeJBQMWZY56nOEt+vXot+IDzA3N+fInsOUq+jO4LFDRIVFEPKRqLQIwgvIsszmFRtp3bktdvZ22Qrj7OrM9L9mEBMVS6W3KmW6nlKpzHRZdigUoFS+OQWXwDv3eKtWdZq3b4FCoSDIPwiXsi606tBaVFiEIkGhUKBUFvy1eGjXQSpXr4x7pfIFvi8hcxGPIlCaKBkw6kNMTE2IehyJWqVm6GfDRNNAQchnotIiCC+gSlQRFhKW43ClnJ0o5exUADF6c1WpUYUqNZ59tSpfuTzlK4tCm/Bm0el0BAcEU7l65cKOyhuvdJnSdOn7rB+dQ6mSb1RzXUF4mfL2mlcQ3gAhwSHcD7xf2NEQBEEAIDLiCbev3irsaBQoMfqaIAgZiUqLkC2yLCNLUupfNh4mqevLSE/XNxZGkiQehz8mNjr22fYzTsplbH8yButltR9j6ZAkCVnKfH1ZlpF0EsEBwfw1cx6JCYlIT8NJWRyDtDhoNVrCQsI4c/Q0Go0myzgZi19WccuLtPhl93jlZLvPH5+s/gqzMGI07dm6ZnJ4jb3gGMuyjCpBRej9EHi6zvPnPNNrPw/SpeNF25aND9ubWT59GWnRaXWEhYSRmJBouE0j+80sTVnl/aJ+XiRJ4nFYBH//uoj7gfeRJLlA81W2r/0c3pMlnUTArQDOHj1jdFlwQDDb1259QbyeO17PXa9Gr9lMJnzM7+dLbqXtQxCErInmYUKWJJ3EhdPn+W/penxPnMPU1JR3/9eMvsP7UaVGVaNhop5EsX3tNnb+t4P7AcHU9apHp96daN25LZZWlkDqCFATR0zg9rXbzFs7n6sXrvLf0nVUrVmNr2ZOID42nnnT5xJ4O4APRg7ggxH9QQG3r94iJiqGy2cv0X/Uh/jfvMvyuUvxPeFLzboedOjVkY69Oun3kz4dF9i8YiO+J84RFxNHuUrutO7Uhl5DeuPg6JBufZ8te/luzCTg6QMOmbZvt0JBav8Rr+aNmDZ/hkEfl6WzF3Py4EksLC30IwjVbVgPXjDapaSTuHP9Nmv+Xs2RPYdxLF2K7h92p0u/rljbWGf7fGUlSZ3Ege372bRiI9cvXaOqRzU69OxIl37v52kfyUnJ/D7lN7as3JSt9X/4czrturXP9f5yQ5ZkLp65wKqFKzl54AQ163rQd3g/WnZoxYkDx6lQtYLRvgEh90P4b8k6Du85TNjDR9T39qTHwJ68+79mmJoa3j5ViSp2b9jJrg279Me4fbf2dO77PsXtigPPjtfmFRv56IsRVKlRlUW/LCQxPoExk8ZSv3F9Fv68gH1bfWjUojGfThmHs6tzHhIvE/IglA1L13Pi4AnuBwRjW8IWr+aN+GBEf96qVV3foVuVkMid63dIiEvgzo073L1+h5ETRuFeqTyh90NYPm8Zh3YdpEKVioyd/ClVPaq9lLT4+V5mWOchVK5Rha9mTGDPpt3s2+pD07bv8ul347h28ap+v8O/GEHHXp3SdVLXarWcPXqGNYtW4XvC12jeL8rnJe0YDO8y9GnQ1AJ0r2bd9fekKjWq8OOiWbhXcs99nJ6T8T5u7P6akpKS43uyn+9lhnUZAnLqveB5qcuGgiwz4stRRg6ZzK0rN1m9aBVnjpxGq9VSq35teg/tg1qlZv2SdZSvXJ7Pf/iCsIePiHwcRUjwA2763cSlrAsDxwwmJTmFw7sPsW7xWu4HBtNrSG8+HD0IE1OTXD9f8iI2OpZJH0/k9OFTLNm+jNoN6uTbtgXhdaM4H3ZJfIMVjNJqtaxasJITB47z2ZTPqVGnBrIks3fLHjYu38B3f0yhQtWK6cIE+Qcx44tpeDXzoteQ3hSzLU7o/VAWzJpPcdvijJ38KVZPC8hpI19VqVGFQZ8MwcXNhT++/43w0HC8mjeia/9uBN29x7TPpzL5j+9xr+TOrv92cmzfUXRaHd5tmqLVaOnUuxMlStrzMOgB86bPxaFUST6d/BlWNqmjtiQnJbH498X437zLp1PGUbZ8WUxMTVCr1KxbvJYbl64z8ddJ2Je0N3oc9mzaze6Nu5j+14/Z7ogv6SQWzJpPbEwc43/4ItMOmXs27ebSmYu807g+0ZHRdOjZgWK2xXkY9IDfv/sNl7IujJ38WaYPyeCAIL75aAITZn6T5cNOnahi7rQ5WFlb0W9EfxxLO5IYn8i6xWu4dfUWX/80kZJOJbOVtleNVqtl078b2bF+O2O+HYtnE0+0Wi2Hdh3kxuXrPHr4iE8mjTWotFw4dZ6ZX83gwzGD+N/77TC3MMf/pj8/fjmdXkN6065b+3SFysiISH75dhYOjg4M/nQIjqVLERkRyZpFqwgODGbiz5P0xzhJncSvk34m4FYAAz7+kHfbNmP/9n2s+Otf6jfxpM/QvtiWKM5PX8+kZp2a9BvRP9fpP7LnMH//uoiRE0bR8F0vLCwt0Gl1nD/ly5yps/lq5tfUeXrtREZEsm+bD5qUFG763SQ4IIiZi2YRGxPLMZ+j9BnWD61Wy7cjv6Zy9Sp8/sMXyLKc47Tk5K21QqFAoVBw8cxFJo6YQLP/NWfouGGYmJgy7fOpWNtY06S1N226tOXcsbMsnbOEGQtm4uLmoj//qxasxP/mXUZNGE2ZcmVISU7BZ+tetq/ZysRfJ1Px6X0sv87L4t//ISIsIsu8n5PzkpHfucvM+mYmM/+elWVH/Oy+vU87xmkC7wQybdxUvFt702dYP2yK2xAWEsav3/6Mxztv6zudqxJVubonx0bHMu3zqbTq2Jr23d9LF5eEuARmfTMT90rlGfb58HTLLp+7xLxpcxn+xQg8m3gC4HvSl7nTZtOtfzdKlLTH/+ZdBo8diu8JXwJv+5MQn8ihnQdo1+09PhjRn9V/r+Ktt6vj1cyLzSs38cu3s1i8fSlValTNVVryKjY6lsmjv+X0kVMs3raU2p6i0iIImRHNw4RMHdxxAJ8te5gw8xs86nmgVBkmTDMAACAASURBVCoxMTWhQdOGmFuYc2TvkXTrJ8QnsGzOEryaN2LQJ0MobmeLQqHA1d2Vcd+PJyzkEVtXb3lu0sXUka9admhFpbcqYV3MmtJlnLGwtKBj705YWVvh7OZCiZL2pCQlY21jTc/BvXivRweuX7qGtY01/UcNwN7RAYVCQdkK5Rg+fgQXTp3n9JFT+niFhYRz8tAJOvfrQvnK5fWjTFlZW9G6UxvCQsO4HxCcr8dOaaLEwjJ7b+P8b/kT+TiSnoN66Y9Z2Qrl6PfRBxzYvp8r53M2JHJGOp2ODcs3gELB8C9G4FjaEQCb4jYMGD2Q0q7ObFi2Hp3u9Zyx+YqvH5tXbuTzqePxauaFiakJFpYWtOvWnhp1aqY2BcrgfmAw86bPpf+oAXTq3RkLSwsUCgWVqlWifpP6+GzZS3xcvH59nVbLusVrKF7Clk8mf0opZycUCgWOpR0Z/sUIHEqVZMVf/5KSnAI8HWHKxISadWvi3aYppmamlClbhugnUbTr2g5Xd1eK2RbHvZI7qkR1rtOenJTM6cOneKdxfbyaN9IXoE1MTajbsB61G9Tm/Alf/folnUrqJ8frM6wvMqlfm2763WT4+NRrx76kPe808aRW/VqYW5jnKi1LZy/Gy80zW39LZy9OjfPTkfY69+2Ck0tpitkWw6lMaRxKOdCmS1vMzc1xK18WSytLUpKT9Wk6uOMA1y9d4/Op43F1d0WhUGBhaUGn3p1p0aEVK+b/i1qlLtLnJTf8fC9n+xh/+sEnxEbHAhD9JJoFM+fj2bQBgz4Zgk1xGyB1RMTGLRtzcOcBQh+EAuT6nmxpZYlDKeMvSczMzfQvtp6nVqnZtnorHXp11OdjE1MTvJp50XtIH3xP+OLVrBEjv0qd0NO7tTcfjh7E0M+GUa9xfWRZYv+OfXi38sa7tTemZqZUr12d9z/oirOrS67TklfF7YozY8GPHLh+mBp1aubbdgXhdSSahwlGxUTFsPO/HTRr14JK1dIP2avT6VAqlTg5l0r3++Uzl7h97TYDxwwyGH62pFNJ2nZtx/rF63i3XXNcy7nql2VsmmXv6ICFRepDXKlUYmJiOHxozXoeNGvX3GDI4LIVylLbsza+x8/h3dobcwsLnFyc+OCjDyhfuUK6dWVZprhd8Wx/PSko8bHx+ofw8yo/HSnr+qXrNGjaMNfbDwsJ48jew6lvBzPMGWBubk4D7wasXrSKqMdRlMpwTl91KSkpHNp1kDoN6lKzrke6ZQqFgjJlyxiEkWWZfdv2YVPMBu/W76Z7A62TdEiSjJOLU7oZrv1vBXBw5wG+mfWtwTG2sraiY6+OTBo1kTad2+JR71k8SjjYY25urv+3g6MDxWyL6eOX16FzzS3MadmxFZoULaYmz273sixjZm5GyUwKjmmin0RxcOcBxnw7Vl+wtrC04OOvRxusm5O0DB03nKHjhhts40We36ax/aa+CHl2T4iLiePA9n207NjaoJCsUCio1+gddv23g4dBD9ONSlfUz0t21Pasw7nQCzkOd+boaYICghj19ccG9yStToeDowM2xQwrFTm5J+dGSnIKTyKeGB0tsHzl8hzYsT/LFy9H9x5hyGfDeKtWdf1vb79Ti7ffqfXS0/I8pVJJcTvbPG9HEN4EotIiGPXg3n38fC/Tf+QAlCbpb9zOrs4s2Lgo3W+STsLP9zJVPapl2s678ltViIuJJeCmf7pKS26YmJgYnePE0soSZ1cX/Hwvo1YlYW5hgZW1FR16ddI3SUmIS+B+YDD+N/25dyeQm3438hSXvKrtWZsyRo6HtY01ruXL8ujhI5KTknM95v/Dew9QJ6qxtbcz2lzEtoQtEY8iiImKyXWlJTfNfV6G2KhY7t64m+5t9ovEx8Zz7cJVatSpYVChNjMz45NJYw3CXLt4lVLOTpSvUsFgGUCZsq6UKefKFd/L6SotBU2hUNDwXS8g9RylJKfwMPghwf5BBNwO4Pj+YzRt0yzLbXTs1SnTppNFXXhoOP63UvvFGbv2La0skWWIehwJVDHcQAHJj/NSEFKSk7ni60f12jWM3sd7De5Nr8G9jYbNyT05N8wtzHEsXYqA2wHU9aqX7h4Sej8Em2I2Rl9wpalZ14Mmrbyzta+CTosgCLkjKi2CUdFPolElqLLd4VCj0RAbE4ellSUmRjooA5hbmGFpZUliQmJ+RjVbUpKTOb7/OJtWbOTxowiatm1Grfq1aNjMi+uXr7/0+DxPaWJSoIX4qCdR3L1xJ12nXWNUibk7L0W5I74qMZH42LgcdZhOTEgkLjYOC0tLgwp7ZqKfRGNuYY65hbnR5WnL8tKkKLdkSebOjTusX7IW3+PnqNe4PvUa1aN+4/pEP47KMqyDowMOpRyyXKcoUyUk8uDefYa/PzTLPBYdGf0SY5UqL+eloKQka4h6EoWdQ4lM7+OFxcraivc/eJ+5P8zGxdWFhs29UCqUXL98nQ3L/2PgJ4MNvsI9r5Szk5jsURBecUXrriQI+SL9G391opo502bjf/OufkCBtLdosdGx+ToSTFFVtWZVZi6ahXsBTMRoYWnBN7Mm8s2sifm+bSFvZDl14Iy502Yz6uvRTJj5TbqC2/mT5wsxdi/P4m1Li9SoTEX6vBTI+5P8Ge+nbIVy1KzrwbF9R/n521nExcRS27MOIyd8TP2nHfMLnhi7SBAKi6i0CEbZOaT288hu52yliRKrp19RMp3DRJKRJBmbYjb5Fs+MJJ2O5KRkTExNUChTn74+2/ZyxdePGQtnUiGT5jtFUepcMTrMzM3y9CXGppgNSeokUlJS8jF2r4a05oFSDgYZsLaxxqaYDTqdDlmWMz/2MvoCnnUxa3Q6XaajNUmShE6nw9pIX4CCFHgnkKWzFzN28mcGo529CcwtLXAsXYokdVJhRyWdonpezMzNKGFfQn/tZybLfJGBsXtybmg0GlYtWEnjVt54NfPK9XbyIr/SIghC7ojRwwSjnFxKU9uzDvfu3st0ndvXbhN4OwBIbetfp2Fd/G/6ExkRaXT9wDuBWFlbUrl65bxHUJaNTgqYEJ9I0N17VKlRlWLFipGclMyNyzfweMfDaKfrvHhw7z6SLu8TgiWp1Gi1WoPf42PjeXDvAVVqVM202VF2uJV3w8TUlAf3HmS6TsCtgNeyUmNXwg638mW55x+U7Qq4dTFrKlatSEjwQ1SJKqPrxMXEceLgcf2/a3vWJiI0nJBgw5HIAEKCQ4gIDae2Z+2cJyKDnEw8eufabUzNzahRu0YmhczX+61xqdKlqFStEndv3s30mIXeD003EtzLUFDnJfR+aJ7ysYWlBe6Vy/Pg3gPiY+OMrpOSnMKRPYfRajLcs7J5T36esfyV9rLG4HdJJkml5tShE5w/4UtYSBhqlVo/QWS+TvyYi7QIglDwRKVFMKq0S2matm3K/m37iAgNN1geFxvHuWNnKV3mWV+BOg3r4uTixLljZwzeOCfEJXDU5wgtO7TG2TV1/oS8lJeC/IPwv+Wf/kcZLp6+QMDtQFq+1xKliRKFQoGJiZKox1EkJyWnX12W0Wo0+gpDXEwcl85eNNiXs6tz6lv05x6k8XHxXLt47QWxzF4C/W/e5XHYY6O/x8XEZjpXQ3Z34VahLN6tvPHZspfY6BiD5RGPwrl68Uq6UYxeF9bFrGnUojHXLlwlMvxJumWyJBN4J9AgjJmZGc3bt+DS2Utc8fUzOMaSTuLYvqPprv3K1avQsJkXR32OGBTmtFotR32O0LCZF5WrZ6Ozt5zxH89+uHj6Aj2aduW3yb/oh+nNiqmpKdFPoomPSzBYptPp0KRo9Ns/e/SMfkjmzOOTQ1mkJf/Ihv/36X9LOpWkadt3ObL7kNFKe0JcAicOHE83Ulh2dvPitGSdzryeFzuHEpRwsEeSnu1Hq9Vy8cwFdNq8DV3epJU38XHxHN9/HFlKnw5Zkjl/0hfrYtaYmqW/X2T3ngzPvsw/evjI4GVC6iAwfsikr4iYW5gz4OMPeXjvAR/3Gklnzw68W7kJbTxaMbbfGFYvXEnUk6z6AmX/2stJWvJKkiRio2OJjox+et4FQciMqLQIRilNlHTu0wX7kvbMnTaHuzfuotFo0Ol03A8MZuGsBXi3aaofwx/AvqQ9o74ezY71O1i9cBUJcfFIOonw0HDmz5yHjY0NPQb11N/s1So1alWSvtKQ2oRGizZFoy/4JanUqFVqg4d7cbvi7N64izNHTqPRaNBoNBzbd5R50+fQZ3hfqtasBqQ+6LyaN+Lq+Ssc3HkAtUqNpJOIiYph14ad/D7lNyLDn5AQl0B4SJjRjuplK5TDxMSEk4dOotFoSFIn4bNlLxWqVDB4cMmyjCRJaDQaVIkqtCkaNCkapKdvA41xK1+Wtf+sJujp1wCNRsP5k77889siBn0yxGACz7R9SJKkP4YpKSn63zLux9w89WGvVCr5ZeLPBAcEo9Om7uf6pWusmP8v77Z5N98ewkVNs3bNqVi1InOnzeFh0AMknURCXAI7/9vOtYtXjYapVb82vQb3Zv7MPzm27yiqBJW+cLHmn9WYmZul+2JoYWnB0M+Gce9OIPNnzuNx2GP9+svnLiPYP4ihnw3T91tISU5BlZCITqfVV/C1Wq3+2kn7typRlXodPc0jV877cT/wPusWr02tUL2ARz0P3Mq7sW3NFh6HRSBJEkkqNRdPX+CnCT/i5+uHKlFFTFQMTyKeYGJqor++UlJSUKuSSIhP0F9bxuQ2LTkVH/c0Hk+/bkqShE6rIyVFo/9NrVKTEBefbt6VLv3ep0admvwy8SeuX7qW7j7210+p85Hk9bxAzvJ+Ts+LaYZO8aXLlMbZ1ZnDuw+hVqnRajQc2XOYEg72BkNu51S5iuUY9Mlg1vy9mu3rthEbHYskSagSVezZvJsg/yDqNzbsP5LdezKkvhio1/gdDu06yMkDJ9BoUu/51y9dx2fLXiq9VQmfzXtYMnux/st99JMo1i9dx7DPP+JsyHmOB57iwPXD/LVhId0/7MH1S9eZ+dUM/aAK+vORokGboiEhPoHkpOQs78W5SUtexcfGM+njibSp2ZIbhTwojCAUdYrzYZde7/YBQp6oVWp2b9jJ/u37uHj6IrYlbGnZoRWDxw7BJZPmVo/DH7Nh2X8c3nWQ4IBgPL0b0H1gD7zbNNW/0QwOCGbiiAncvXEXgH+2LeH8CV8W/bIQgK4DujP0s6FMHz+NM0dO69ep7VlHP0P95N+/4/DuQ2xcvkG/n4GfDKJ+E890w1XKssylMxdZ+88afE+cA8DTuwG9h/alnlc9dm3YyZwf/uC9Hh0Y9fVoow/9axeusmDWX/ieOEedhnX5aPwI3mlS36Bpx5I//tGnIaOuA7rz+dTx6TrcHvU5QvnKFbAtYcu6xWvZs2k3cTGxNGrRmIFjBlPNo5rBPvZu3sN3YyZles4yG50r47l0dnOhfff36DOs7ys7pG12JScls3X1ZoNrxczcjF8mzjI6s7gkSVw8fZFNKzbge/wccTFxmV5jaRLiEti+diu7N+3mzrXb1KzrQcdeHXmvZ0f9dZVxtLURX46kvrcnw7sMBaBKjSr8uGgWB7bv019LI74cydBxwwkPDWfe9Dns3bKHaX/OMJhN3Jjw0HDW/L2aw7sPEfbwUbo4hQSHMH38VEzNzJj8+xSAdPkyo7Q8+PxxzW1acsLP93K6bU6ZM5VNKzal22/rzm31cU/br3sldyB1vp4T+4+zbc1W/HwvY2pqanAfy0ta0mY1T7tXZeTVvBHT5s9INydUTs5LWjqe9+Deff76aT6nD5/Cxa0Mgz8dQqsOrQ3mVskNWZbxv3mX9UvWce74OX38+gzvS4v3Whp8mcrpPRlAp9VxcNcBls1ZSsAt/9T09+5Em85tWT5vKSUc7PGo58Fbb1fHupg1/y1dR0xkDMO/GGG0Sd3jsMdM+ngiH389mtoN6uT4XpyXtORF2rVz6vBJlmxbVqQGjBCEokZUWoRXTtpDZfpfM7CzL1HY0RFeYX7nLjPrm5kFNrJaQYiOjOa7MZMY9vnwdBUIQSgsL+OevOSPf0hMSOTjb8YYfHkCiHgUwcwJM/j46zHpJgrNqcJ4vjx68IiZE2bw2ZRxVMwwmbMgCM+8nu1BhNeWLMvotDrUKjWJ8ZmPVCYILyLLMlqtVt8E6lW5lqIeR1KyVEkqZmg2KAiF4WXdk1t2bM3ls5dZvXAlEY8i0GlTR+tLSU7h7vU7zJ02m7oN6+YpXxTW8+XmlRtUqlYJtwplX8r+BOFVJb60CK8MY00wsvrMLwiZMXYt5abZ0suWGJ/Iwl8W0KJ9C+o1eqewoyO84V72PTk6MprdG3ZyfP8xLp5OHTTFvZI7b79Ti469O1GnYd1cN90qrOdLSkoKC36aT+tObalZt2aB7UcQXgei0iIIgvAKiI2OZc3fq2nxXkujfZ0EQRAE4XUmKi2CIAiCIAiCIBRpok+LIAiCIAiCIAhFmqi0CIIgCIIgCIJQpIlKiyAIgiAIgiAIRZqotAiCIAiCIAiCUKSJSosgCIIgCIIgCEWaqLQIwivuVZkUURAEQRAEIbdMCzsCgiDkjCZFQ2JCIjqtljvX77B38x66D+xJrfq1shVelmWQAQViro9ckmU502OXenxlUChydHz154XUsGnStiHLcqYV1LR1Mu5PkqR0/8448d7z21RkEt+0dTJbnlfpjhcKyOYu0uIty7I+nCIt8NP/ZEx/GgUY3V/GY5wxzdk5Xs+vW1D563W6xtLiJPPceczn4/Y6XWNG4yTu48IbQlRaBOEVE3DLn/kz/wRSZ4i+deUm3QZ0z1ZYWZbZsW47i35ZwIgvR9GpT2fxwMshWZI5sGM/xUvY4tXMK92yK+ev8OeMOQTeDuS9Hh0YOm44dvZ2WW5P0klcvXiVHeu2ce74OeJiYvH0bsD/urZDp9VRr9E72Jaw5fcpv7F5xUajFYiqHtVo0b4Fnfp0wcnFCQA/38sM6zI0tbAGoFCweNsSanvWAZ7NAH768CkARn41iqHjhqeLl++Jc/w7fznnT/ji6e3Jh6MH4endAKVJ/nykVyeqWLlgBf8tXU/ZCmX56IuReDVv9MJrMiYyGp9tPhzadZBLpy9SrpI77bu9x1u1qqPVamj2v+b4+V5meJehzypdSoW+wGlbwhZP7wZ06tOFBk0bYGpmSnJSssEx7vZhj3Qzovts2cvkMd+CDFVrVuXHRbNwr+SeLm6yLKNWqVn7zxp6DOz5wvOfU6/TNRb1JIrta7ex678dBAcEU66SO01aedNrSG9cy7nmy/F6na6xlORkju8/zuYVG/E94YuzmzPN27ek3/B+OLu55MvxEoSiTEwuKQivsCD/IL4e/hXfzJpI7QZ1Xri+RqNh4awFrJi/nA9HD2LkhFGYmZkVSNwK8k1zYZElmX3bfQgJesgHIwfoCxoA9wODmfvDbEZ9PQYXNxd+n/IrHu+8zfv9uma6Pa1Wy5pFq9i3bR9jvh2LZxNPFEoFIcEPWfTLQs6fPM8fK2ZTvXYNAM6f9GVk94/4etZEun/YA4VCgSRJPA57zIZl6zlz5DRf/fg1tTxrA5AQl8Csb2YiSRITfvoGWzvb9OmRZfZs2o2bu5s+DIBOp2Pzyk1sW72VL6Z/Sa36tQkOCOKP73+nadt36TagOyYmJnk6ljqdjtULVyFJOvqN6M/lM5dY8/dqJv02GcfSpTINF+R/j+mf/0Atz9r0+6g/jqUdUavUHNlzmAU/zaf5ey355NuxmJmboUpI5NfJv/Lg3n1mLPgRJ5fSACQnJXPp7CUW/DSfBk0bMuSzoVhZWwFw6tBJxvYbw+xVc2nSytvgGo56HMnW1VsMzv+jh48ICQ4hPDSMvZt2g0LB9L9+zNdKy+t0jV3x9WPRrwvpP3IA9b09MTU15Un4Y9b+vYaLZy4yZfb3VKhaMfODIev/BzL5evI6XWNqlZq50+ZQsWpF3uvRAZviNjwJf8KaRauyd7wE4TUg+rQIwitMoQClMvsVAzMzM4Z9Ppx/96xk2OfDC6zCEnT3Hkf2HC6QbReWrCosACf2H6eqRzUqVquIdTFrKlatyI3LN0hOSja+PVlm/7Z97Nm0mymzp+LVzAsTUxOUSiVlK5Tjqx+/pk6DOjwIeqAPk3a+bIrZ6As6SqWS0mVKM2rCaBq3asKav1cTFxOXur65GVY21tgUL4aFhYVBHBQKBTbFbLBzSF+wvnrhKiv+XE7/UQOo07AuShMlFapWZPDYIWxc9h+3r97K/YF8KuJRBBdPX6B5+5aYm5tTtmI54mLjCAkOyTRMZEQk86bPpV7j+oz+5hMcSzsCYGVtRbtu7Rk3dTwhQQ9Rq9QAmJiaYmpmiqWVJRaWlvrtWFha4NXMi0m/fcfx/cc4e+yMfplNMRsAitsWN1rpNjE1xd7RweD8R4Y/4cblawQHBPPo4aPcH5gsvC7XWFxMHCv++pceA3vSqEVjzMzMUCgUlHJ2YvCnQyjlXIpNKzaSkpyS6bGQZRlZ9/QvkyZtr9M1du74WYIDgmjduQ02xVPDO5Z2zPbxEoTXgai0CMIbxsraihp1aurf+hWEsNBwktRJBbb9l02WZHy27uXhvQdGKywAqkQ1ZSuU0xdC7Oztsmw6H3o/lPVL1vK/99tRqVolg+W2JWwZ8PGHhIWEZSuOJqYmNGremNOHT3HvTmC2whiTkpzCge37KFfRnfpNPNMtq1KjKhWqVmD3xl15LiClJCdjXcwa+5IlALC0ssTSyjLT9WVZZs/m3Tx68IgOPTtiYpr+S49CoaBJa2+q1KxKbHRstuJQtkJZPOp5cOrgyUwL/tnl8c7bfDh6EKMmfEzb9/+Xp21l5nW5xoIDgjl3/KzRr1DF7Wyp27AuN/xuEPk40mh4WZKffWSB1D4xGX/j9brG7t64y4PA+wYV4rTj5XfuMuGh4bneviC8CkSlRRAKWVajf72KI4NptVounPQt7Gjkm7QKS0jwQ/qP+tBohSVNWuFPlmUeBodga2+X6desI3sPExYSTsPmjTLtI1KxWiVsitlku4LgUMoBV3dXQh+EZmt9Yx49COXCqQvUblCbkk4l0y2zKW5DlRrVuHbxKo/DH+d6H2kSYuOJi4kHIDYqBk2KBuunb6EzCnsYxqGdB/H09qRMuTJG1zE3N6d+4/rZLlBaWlni7OrCo4eP8q2SrVAoUCrz1nQuK6/DNSZJOlQJKg7sOGC0IG/v6ECSSk1KcoZlMqn9Z9L+q/9dBun5gQaeeV2useq1qmNpZWm0kmrv6IBOp0OSdLneviC8CkSlRXghWZaRJRlZktIVol9U2JZlGUmSUsNmo/Cduh/JYD/P02l1hIWEkZiQ+Gz9tHWf7jO7+8uunKQl4/GRswgjyzKx0bHs2+pj8OCWZZn4uHg2rdiY7YfjC9MhpaYhNjqW8yd9iYx4kr1wGc5LZiMMpXVA3r52G+uXrtMfs7S//Dgnz28vq7/8Ov9pFZaIR+EMGD0wywqLiakJ0ZFRaFI0xMfGc+9OIA0y6bSeEJfAFV8/3qr1Fq7umXc4trK2ovuHPTC3MM9mhA3KbDkWFBDE3Rt3qFClokHTFYVCQZlyZbh28RoP7z3IZAvZo1SakJioIiEutUAZeCeQsuXL4lbezej6d27c5sp5PzzqvZ1ls8b63p541PPIQUxenRcDr8s15uRSmvreniQmJKLVaA2WqxJV2JawxdomfeUirUkYRvO3DBnuta/TNdaklTcbjm/W9z16XtSTKBxLl8LOvkSe9yMIRZkYPUzIUmxUDJtWbmLr6s2oElS07NCKIZ8Nw9zcjBMHT9C5TxeDMIYjnLjQon0L+n70Ac6uzgbry5LMnRt3WL9kLcd8jgLg1bwRPQf3ptY7tVA87bPh53uZYZ2HULlGFb6aMYE9m3azb6sPTdu+y6ffjePaxass+mUhifEJDP9iBB17dcpzR/DspEXSSdy9eZfoyCgunLxApz6dUatULJ+7jNNHTuFYuhQde3Wka/9u+ofK86PqdB3QnebtWzw75s8t82reiDad2+YpDZB67KZ//gPObqlv/MzNzZj59yxKOjlmGkaWZW5dvcXqhSs5c+Q0Wq1WP+JQclIyLTu00jcxS4vzmSOnkUktOEz5ZDLfj/1Ov70f/pxOu27t85SG4V2GZmtdr+aNmDZ/Rp46QUuSxN7Ne3gS/pg+w/thbp51oc7N3Y2Lpy8QHxfPuWNnqVGnJvUavWN03ejIaELvh1Cv0Tv52kzvUcgjQoNDcCtfNtfbCAl6CKAfISqjMmVT30A/yeOXFjsHO4rbFSfo7j2cXEpz6tBJBowemOnxCLwdiGNpR9wq5D5tGSUmJHI/8D5u5d0KtLlkfnldrjEXNxcWbvzb6DK1Ss3VC1ep5vEWJUrmrRD+JlxjT8Kf4HviHO27v5fvI9UJQlEjKi1Cpu4HBvPzxFlUrVGVpTv+paRTSULvh7Ji/r+AjINjSYMw6kQVc6fNIfJxJF/Pmohb+bKkJKew5u9V/PLtLCb+MomSpZ6Fk2WZfdt8WD5vKR9/M4Zvfv4WpUKJ70lffvl2Fh+M6E+7bu1RKBTU9qzDoi2LmThiAns372HY58MZ8eUopn0+ld+/+5Umrb35d+9Kzh07y9I5S6jfxBOXPAwDmd206CQdQf73OLL7MEEBQZRyLsXjsAjGTv6UHxf9RGREJEtnL+aHcVOZ+PMkSjqVxM7ejtmr5rJqwQoeZugUamdvx5zV89i0YiNH9x7JdfyfV9uzDhuObwbg7NEzzPnhjxeGOepzhO1rtvLplM/54c/pAATcCuCf3xahVqnxbu2tfwjb2dsxd03qMMyx0bFM+ngi7/XoQPvu7+VL/NPScC70Qr5tLys5rbAAlK9SnrCHj5j51Qxad25Dn+F9UZoo083jkDaMbExUDMGBwTRr1yLfBkNQJao4uOMAjVs2oXxl9xcHyHQ7aipXVYsrZQAAIABJREFUr4KdQ9YFxkcPs9cPIjPFitlQpXoV1i5ey9WL1xj62TBcypYxOk9FSnIKEaHhODg6YG2TPwU/WZa5fukal85e4ovpX2b/S0Mhel2usawE3PLnpt8Nvp8z1SDeCoUCWUGGkcPSrZDun6/rNSbLMpoUDffuBLJs3lKatm5K2y7/e+1GaxSEjETzMMGoZHUSqxaspGyFcgz/YgSOpR1RKBS4ursy9LNhhN43bM+s0+nYsPw/gvzv8eWMr/QdRi0sLfBu/S737gRy8VT6Qqf/zbusWriS8T98SdM272JmZoaJqQlezbz47LtxLJ+3lJt+N/TrmzyduKxz3y44uZSmmG0xnMqUxqGUA226tMXc3By38mWxtLI0bA+dAzlJi5mZGf97vx19hvUlNDiEyMdPGP7FCFzKlkGhUOhHeElMSGTP5t36h6VSqaSUs/G32Wkj7hSErDqipklSJ3Fi/3H6fzwQ90ruKJVKlEolVWpU4eufvqGUcyl9O/HXTVqF5XFYRLYrLLIsEx4STkJ8Au6Vy9O6UxvMzc1ZOnsxDV3r08D1HRq61cdny97UfehS2/Tn1vNN73RaHcEBwcz65if8b/rz0ZcjKZ5h2NmcUioVGct/+S4+LoEnEU9IiIuna/+uuJQtQ3BAMP3b9KWha30autbn0w8+ITY6FlmW0WUyiV92ZGyqqEpQsWfTbn6eOIueg3ri3appPqasYLxu15gxCfEJbFqxkSGfDuGtWtUNV1CAwiSzySEVqfOkPDea4ut6jfls2Yt3hUZ8OXQ8Dd/1on2PDgaDBgjC60h8aRGMunvLn9OHTzH9rx8NPmmnVRQyenjvAXs376H30L4GhXFZljAxMcHe0UH/myZFw55Nu6lcvTI1jbQPfrt+Leo0qMvujbuoXL2K/i2Vg6MDxWyLpVu3hIO9vnCZOgxw3urjOU1LGpeyZWjfvYNBQdexdCnqedXj/AlfOvfpgm2J/H/g5yetRktCXAIpSckG8604lCpJx16dXok307mVml5FtpuiXzx9geCAIHoP7cuRPYcJ6x+GazlXho4bjqd3Axb/8Q8Tf5lktHlkbmRseudeyZ2OvTvx2ZRx2Je0z5d9FCR1oprVC1fSqkNr7t29x9ljZ6lcvQruldxZuvNf5v4wm0rVK/P+B11RKpV5HtnrzNHTtH27lX7iP+ti1nh6N+DrnyZSr1G9PN8vXobX/RrTarVsXrGR6rVq0LpT2yy/GiiUitRuLdKzSS0VStJVZl7na6xdt/a0ff9/RD6OZO+mPXzSZzSfThlHrfq18m0fglAUiUqLYNTtq7coUdIeh1KGTcAyDXP9NknqJGrUqWmw7P/t3XdcFNfawPHf7C5dQUE6CNIUW2LBbuw9xpqo6YmamDfJLd60m9wkN97EJO9Nu8ZUTbNHo167sSf2imLBgtgFkS4sS9md94+FVWBBYDHgvs/38yFGd+fMmeHs7HlmzjlPVKvmluFJJTLTMzkee5xBIwdZHevr5OxE89bNWb1kNWnX02wa6lVd1T2WEhXdoVYUheBmTdm2bisZaen1Pmhxa+jGvZ3b8dWHX6LP1dOhW0fcG7mbv5AVKhxHf6eZqngntGw27+rQaDQMGjWYX5evZ+GsBUyY/HClAVp6ajprFq9m0tTJGPIMrFmymv3b9xH4iDnhn0djD9p1bodPBU/VamLazHdrdehdWSWLTlTKhicx29ZvxcOzEV37dON47DF2bdnJ4FGDaeLrjZOzE76BvrTp0LZUR8+WBz9de3er9USPfyR7bGO3KioqYtncpbi4upoTl97uqYECCsVDxYr/XvbCa+9tTKPR4O3rzaPPPUZDjwb8Z9qn/GvmexWueiaEPaj/t5dEnchIzaCRZ6Nqda5Tk6/j7OKMo1PVxk/rc3O5kZWNi5trhe9xcXO1vvTlHVbdY7E3iqLw4JMP8ciUR5n18bf0b9mH5x96ju2bfsdQnFTtj3Zk/2G6BMVU6adkyEdNlQQuPv4+LJy1oNLlYE8fP02R0Ugjz0aEhIfSZ2hfNqz41TJRPTM9E58A31IrPHl4NiIiOhKj0VjvlrV2dXMhIT7htucvsGnFK1JVJjcnl91bdxHRIgKtTkvf+/tzPfk6OzbtAMyZxA2GfEtSPwBHJ0e8fLyqFkzZIXtrY7cqCVgUlKoFLCWKh4op2tJDwuD/VxtTFIXOvbqiqipb122p6+oIcUdJ0CKEsEqr0zJwxCDmbVjAwi2LiYiO4J0/v83Tw59i7+97//COUMlE/Kr8zFgw0+Y7nhqNhsGjh+AX6Fdp4BJ/5ATOLs5odTq0Oi0DHhjI9eTrbN/wO6qqkpKUQliZxH4lGcKvJ6fcdliK0fjH5l4oWRXqWpL1RHUl+TlqOgwp/Xo6504nWuZWhUWF0WdoX9YvW0dK0jXycvW4urmWGgJqnhvmTUJ8Aump6ZWWX5tLXtcX9tbGShQVFbFm8WoMekP1ApbbsMc2VtFS8wCubq64NXDjwtkLNg9zE6I+k6BFWOXawLU4WVXVJyY2buJZrbtUjk5OuLi6VPqFaTQacXF1wdGp4vwYd0J1j6Uq9Ll6tDrdHU08V1sKCwopLCgEzMFLRHQEU6e9xIq9qxk6dhgfvjad+CPxdVzLO09RFAaOHIRfoB9zvvzJanI4Y5GxVN6I8ObhPDB+BEt+XMzx2GPm5U7L5Mlwb+ROaHgoiacSyUjNqHD/uTm5rFy4gsLCwto7qNsIiQglqlVzLiZeLNdJUlWVi4kXuSfmHvxqOFzTZDKW+sxrdVqGjxtOvsHAyoUrOXHkBEEhQeVWjgpvYU6CGB9Xebs7uOsAJ4+erFHd6it7a2NgbkubVm4kMyOT8ZMnlAtYcrJv1Phpqb21MVVVWb98HU/f/wQXEy9aewdg2/A2Ie4GErQIq8JbhJN8OaniXAxW7viERjYjMz2L5KsVL4V6cOcBUorv4Hr5eNHy3lacjIu3ehe7IL+Ak3HxtLy3VbnM3NVVknSyqqp7LJb9YD3vWUF+AedOJxIWFVZqyWcAgz4PY1H5BGt1dfcT4MTh4xzcfaDcv7s1dOOhiePo1rc7F86er1aZWemZZGVk1lYV/zAlgUtwaDDzvp5bLnDx9Pbk8oXL6HPNKzVptBqGPTiMgKaBTH38L3j7e5dbacnJ2Ykuvbty9GAc8XEnqMipoyfx8vaq8ZK1iqKg1WowVTJEKE+fVyqQ9g/2p0O3DpyKi+dGVukV4m5k3SDhxGmbPpOubm64N3Ln0vmbySmDQoMZP2kCi39YxKJZC2jdvk257cKiwuh0X2di9xwiOzPbatmGPAPxR+LLdeCrQ6PV4tbArcLPX0F+fgXJDe8ce2tjYF5YID7uBA89Nc7qCn2H9x62PNWrLntrYzeyb7Bp5UYSTyVaDeT0OXpyc3LxCfC16wVShJCgRVgV1TKKZlFhHDt4tFxnPysj0+rdnrCoMHoN7sW6X9aSk51T7vWky0mcPnEaL2/zOGJHR0f6PzCA47HHOJ9QvgN8PuE8x2OP0f+BAVVYdlYt/7/Ff+bp8/j4rY8Y23MUh3ZXLc9HdY+lxNULVzgZd6LcOTsTf4ZdW3bR9/5+uDa4OYfHrYEb165eIzcnt9T7c7Jz2L9jX6VDAkoda01Usq1rAze2rN5s9di1Wi0uri7odNbX8XBydsI3wK/cF/KZ+DOkpaTZUOG6UxK4NA1ryvyv55UKXKLbRpOWksqZE2cs/+bp7cW4iePR6rSkX0+3ZP3OSE233MXt2L0j/YcPYM2S1aSlpJbbZ1pKKgd3HaBDt441rrejkyMt2kSTEJ9gdR+p11JJuny1VCLJks/l2dOJ5T4vx2OPcfZ0IkPHll8hr6o8PD2IbtuSI/sOk1fcCVcUhfsG9abXoN5kZ90gO+tmhzF2zyH0uXoaerhz/7jhxB2IY+fmHeU+Y6rJxG/rt9G8TXObluP1D/KndYc2nDhS/nOsmkwc2nOI0MhmtynFnLW9toYQ2Vsbu3rxCmt/WcNjzz2Bs4uz5TpX8pOTncOe33bToGGDcuVVhb21MRdXF0IjQmnVvnW5YEk1qcTuiSUn6wb3DewluVqEXdM+89KUf9Z1JUT94+LqgrevN999OgsXN1eCQoPRaDQknkpkyY9LSEtJI6BpYKlVpHQ6HU3DQli9eBWXzl0kuFkwbg0aYDQaORkXz7K5S3nwyQdxa3gz/4hvgC8urq58/u5/8A8OwC/QD5PJxInY43z2zsc89NR4uvXtbrkQJ8QnsPf3PfQb1p/GXo0pLChk56YdODk70aFrRxSNQvLlJLas2UyXXl1p4utN8uVkFn4zj4T4BIxGI53v64zDbTpcNTmWa1eS2bd9L4UFReTp8wgODUZRNBw7dIxP3vw3PQfex/0PDS91R9PRyZHNazaTnZlN8zbNcXBw4HpyCsvmLUOjaPht/TbSr6fR2MsT3+Jlpm/9cr92JZn1y9fTrV93/IP8SyVMK6tkHPbZk2fZ+/seeg3uY1m6tOz7c7JvsPDbBRw/fIzgZk3NK4cpCnn6PDav2sSJ2OOMeWKs1UUUdA46MtIz+H39Ntp0aItbAzfOnUkkds8huvbtjlZb/4fHWaMoCmHNw0lNSWXHxh20vLclOgcdnk08MeQZWDZnKc2imtHEtwn6HD27t+4ipnsnFs1eQFZGFgFNA1i9eBWhEaF4+TSxrI73+4bfid0TS3h0BA3dG1ra2Nyv5jD6sbF4+3kD5t/7pfOXWLN4NT0H3kdky6gqdVB8/Lw5uPsgh8vt4yQ/ff4Dox4bU+6piW+AL409G/Hj5z8QGtkMb19v4uNOMPO9GTzxwpN07tW1xp0jrVaLb6Af/52/nMz0DCJbRaHT6Th17CR5egMODjqWzVtKQNMAUlNSid0bS7su7dBqtQSHBuPi5sLcL36iYSN3ApsGodVpyc7MZtm8ZeTl6hk4YpBlRSiD3sDOTTvIzsym1+DeuLi53LbeLm7mgHz+13Mt+9AV7+OXOb+Ql6On3/0Dyi1hW/KZvHTuIkvnLCUh/gwR0ZEEhgah0Whs6kzaWxv75adfSL6STPr1dI7sO1zqJ3b3QeZ+NYesjCyGjBlapbxSZdlbG9NqtfgF+puTDSvm5ad1Dg7k5eaxadVGvp/xHZNfepaYHjEStAi7phxIjrWvGYuiVp0+foofZnzP7q27cG/kwZAxQxn5yCh+mPE9Pn4+TJo6udw2GWkZrFz4Xzau3MjpY6fwC/JnyJihjJ80wer6/qqqcuzQUX7+bhF7tu0GoNeg3oyfPIGI6EjLRfjI/sNMHjERgMiWkbz9n3dYOmcpy+cuBeDZl6fQ/4GBvP7sq5w5cYbIlpFM/+ZDgkKC2LRqI19M/5yQiNBqLUtZnWM5su8wH/79fd79cjoJJxPMnf7YY7Rq15rxkyfQZ2hfq3enTx8/xexPZrFt3Vb8gvzpM7QvDz/zCEf2H+bI3sN07dud8BbhliWf1y9bx1sv/KPCOk+b+S6DRw8pXbdbzl1ZJecpJPxmhuvL5y/z6/J1tLy3FXt+28PWtVtIvpxESHgI/R8YwENPj680V0OePo95X81l1c8r0efkMvrxsTw65bF6v9RzVaiqyuZVm2jg0ZAuvboAUFBQwNa1W/hxxg9cT05h6NhhTJj8MH5B/hw9GMcnb31EvqGAp/78NP2G9S81fj9Pn8faJavZuHIDh3YfstrG8g35fPL2x5a2DtCld1f+9cV7VWrLZfdRknPjgQkjK/w9mkwmDuzcz0+f/8j+HfuI6dGJJ158ko7dY2ol50TSpavM/mQWm9dsIqpVc8ZPmkCPAT0pKijix5k/sGLBcnr068kzL0+xBOxgPv8J8Wf4+btF7Nu+j+TLSVbrZq3NW/tsWFN2H9mZWcT06MS4iRMqzLlR2eeyOr+rithTG/vu01l88++vKy1v1GNjmPrO33Byrvl8RntrY9a+j/oM7cvIR0YRGhEqAYuwexK0iGrLN+Tz8Vsf4ePnzaSpz9R1dapszeJVxB2IY+q0l2z6IqxISdDy/jcfEhIRWuvlCyGEEEL8fyVzWkS1qKqK0WjEWGQk50bOXbO8otFo5NL5S3Tp3fWOBCyqqlJUVESe3kDOjRy7W3JVCCGEEKIuSdAiquXX5evpHdmTVYtWsOCb+Tx9/xNcOHuhrqtVKVVVObT7IHl6A116d6318vMN+Xzw2vs8N/ZZrly4zFPDnrA5uaEQQgghhLhJhocJu7dj43YuX7jMiIdH4uLqUtfVEUIIIYQQ1SRBixBCCCGEEKJek+FhQgghhBBCiHrNenY4IYQoQzWp5oSUSnFel9paXVPFkmBN0QCybKcQog7dsWudEMIm8qRFCFE5FSj5EldVMJkXN6A2BpaqJWUVZxA3UTvlCiFEdZVc4+7EtU4IYTMJWoQQlVJVtfjOY8k3twomtVaWdVZN5rJu2RmqUToJQog6YLn+1P61TghhOwlahBAVsgyTsPribV6vtGAqDU5KB0lCCHFnqSa14kuOLdc6IUStkaBFCFGxkmESVl8zD5+oUbElQ8Ks9gKKh4pJB0EI8Ue5Q9c6IUTtkYn4QghRiywBmaKYJ/FWazsAtdRiBCVlqGrFw1RK3lN2fyZT6Z6WRlP6PtWtZSpVqK+qqtU6pqoodb6o+qTnknqrqmrZTinZuPiPssdfQgGr+yt7jsuek8rOV2W/H2vvt4W9tbFSv8sK9mOLmrexm9srAJo6bmMmFbWSxz3Wyqrtz6sQdUmCFiFEhRSNUjw53soXpaIUr/ZVg3IVBVVDBXc3FXPn4C78so07EMfM9/5D4qlEho4dxsS/TsajsUel25iMJo4eOsqqRSvYt30f2ZlZxPToxKBRgzEWGWnftQPujdz55O2PWTbnF0tH5NbzE9W6OX2G9GH4+BH4+PsAcGT/YSaNmHjz/CoKs1d8xz0x9wKQlZHFm8+/we6tuwCY8spzTPzr5ArrmZJ0jbde+AfPvfo893S615bTZJGXq2fuV3NY/P3PBDcL5pmXptCld9fb/u4z0zL4dcWvbFmzmdjdh2gaHsKQ0UNp0TaaoqJCeg3qzZH9h5k8YqKlE6hoFEuH072ROzE9OjF8/Ag69eyEzkFHviG/3Dke/fhYpr7zN5ycnQD4dfl63nzhDVAhqlUU07/5kJDwEPIN+Xz81kcsn7u0wjpP//oDBowYaPM5s7c2lpmWwYYVv7Ju6TqOxx4jvEU4T774NP2G90ens72LUtU2VvZal5WRxW+/bmPH5h0c3hOLd4AP/YcPoHmbFnXSxs6cOMMrE1/i8vlLFR5r9/49+NfMd2no4U5RYRE/f7eQzr26EhEdYfN5FKI+kOSSQojKlVrV62bnBMX8RW9T0beuSmYu+Ga5d1nMcjHxAjOmfcZzr72Af5A/n7z9Ea07tGHkw6Mq3KaoqIgF38xjw4oNvPDGn4jpHoOiUbhy4TLf/PtrDuw8wKdzPiP6npYAHNi5nyljnuG1D19nzONjURQFk8nE9eTrLPnhZ/Zs280r01+jbcw9AORk5/Dh39/HZDLx6gd/x93DvdT+VVVl3dK1BIUEWbaxxmg0Mmfmj3zx/ky+W/lDrQQtRqOR+V/Pw2Qy8vCzj3J4TywLvp3PPz5+kya+3hVudz7hHO9OnUbbmHt4+JlHaeLbhDx9HtvWbeWrD76g99C+vPjGn3BwdECfk8tHb37EpXMXee+r6fj4+wKQb8gndm8sX33wBZ16dubpv0zExdUFgF1bdvKnh1/gs3kz6N6vR7nObfr1NP47fzmPTHnM0tHMN+Tz5fszcWvYAGcXJ6v17jO0L8HNmtp0zuytjZ1POMcHr77PgBEDGTxqCK4NXNm/fR//mvoOz7/+IoNGDbbp5kW121jx3JVL5y7yn39+SvS9LRn16Gg8fbwwGAx12sb2/raHVya9TM8BPYlqFVXmHMOpoyfpdF9nRjw80lLe9eQUvvn314yf9LAELsIuyJMWIUTlip+o3JyIqtRaUGG+u3nLBFeN7YFQXdmxcTtRrZsT1jwMRVEIiwrjxOETDBk91NLxuJWqqmxcsYF1S9cybeZ7RLaMtLwW3Kwpr0x/jekvv8ul85csHUoHBwcA3Bq4WTomGo0G3wBfnnv1eTRaDQu+nU9oZDPcG7nj4OiAi5srAE5O5eugKApuDdzw8Kz8Tv2poydZPm9ZzU5MBVKSUji0+yB/+edUHB0dCQ5rSnZWNlcuXKkwaElLSePzd2fQvltHnn1pClqdFgAXVxcGjx6Cs4szq39eRZ4+DwdHB7Q6HToHHc4uzjg5O1vKcXJ2okuvLnh5e/Hm82/Qqn0reg/uA5jPLUBD94ZWO8xanY7GTTzL/U79gwN4YPwDuBZvfyfYUxtLS0nji+kzGfnoKAaNvBmcuDV0I0+fR9z+I/Qd1g9HJ8can69qtzEF0tPSmfXxN7Tp2JZHn3scnaMWFKXO29jZkwm89sHfGTx6SLltsjOzmffVHPrd36/Ua95+Pjz78hQJXITdkIn4QojbK376oWgUFC21+hREUZSbZd+FQ8JK6HPzCG7W1HIMHo09Kj1NVy9e5efvFjJo5GDCm4eXe929kTuP/c/jJF9JrtL+tTotXXt3Y/fWXZw7nViTQ7Aq50YOKxet4OFnHqm1MgEK8vNxbeBKY69GADi7OOPs4lzh+1VVZd2ytSRdSmLYg/dbApYSiqLQvX8PIltFkZWRVaU6BDcLpnX71uzavJN8Q36NjyU/Px99Ti7aWhjOVBl7aWOqqrJhxXoAuvftXupzH9kqis8XfsGkqZNtClig5m3sQuJF+g7vbwlYStRVGyssLERVVbr26Wb1Ghm79xCt27ehYZmnXHAzcFk0ewEJ8Qk12r8Q9YUELUKIqlEAjVL7GetLyr0Lh4SVVdL5U1WVyxeu4N7Yw3Lnuqxt67eSfOUanXt3RaO1fikOax6OWwM3CvILqrR/T29PAkMCuXrpas0OwIqdm3bQLDLMcie+NuVk3SA78wYAWemZFBYUVvikIvlyMltWbyamRwwBTQOsvsfR0ZGO3TpWuUPp7OKMX6A/SZeTMOQZanYQmJ9Cmkx/zEhre2hjWRlZ7Nqyi3ad25XraDs6OhJ9T0s8vb1qXP6tatLG2nVph39Tf6vXurpoYzqdjqFjh5UbegfmpyzHDx2jXZd2FW4vgYuwFxK0CCFELdDqtGSkpVNYUMiNrBucO51Ipx6drHYWc7JziNt/hBZtWxAYElhhmS6uLox5fGzV7zjXciqJqxevELvnEANHDqrFUs00Gi25uXpyss0dysTTiQSHBhMUGmT1/adPnCLuwBFat29TYScdoGOPGFq3b12NmtTGGVPx8vHCydnJkozVZDLddkWx6rKXNpZ06SpnTpwmKDTYxpIqZy9tTFEUGjfxtPp73rl5B9H3tLT6lOVWNQlcVPVmOxaiPpCgRQghakFQSBDnTp/jRvYNdm3ZSct7W9G+awer781Iy+DqxSuEhIVYJufWhqQrSVy9cKVWOoNFRUWsWbKGgSMH0dircS3UrjQPTw8aejTk/JlzpKWksWvLTh57/okKz0fiqUSa+DYhqFntdXRzc3K5mHiRoNAgm34P+tw8CgoKSE9N59t/f81DvcbQJSiGZ0dNYuvaLRQVFdVKfe2ljZ1POE/qtVTLqmd3KtCzpzZmTXZmNsdjj9GmQ9sqvd/bz4f/ee35KgUu+YZ83n91Op0COrB+2braqK4QNpOgRQghakFoZCjJl5N4/5X3UDQK4ydPQKPVYDKZLD8lnbHM9EwuJF6goYd7pXd0q0Ofq2fzqk1069ud0IgQm8s7dugYTs5OluVra1uDBm5ERkeycPZCvvtsNhP/Molmkc0sd3dvPV8F+QWkXL2GZxNPXN1qp+OnqirHY48RuzeWLr272jR/oiA/n6SLV5n/9Vz6DOvLoq1L2H1xH0//dTKzP53Fgm/mYTQaba6zvbSxKxeuEBEdiUdjD1KSUvjygy8Y0WU4XYJieH7cc2xdUzuBnj21MWsO7NyPf3AAXj5VH0rn6e1V5cBFKZnLeBfPNRT2RYIWIYSwkaqqXLtyjZwbOYREhNJ/+AAcHR35/rPZdA7sSKfADnQO6sivy82Tj01GI/ocvU37K+l0GYuMXDh7gQ///gEJ8Qk88/KU2w4VuZ3szGw2r9rEkDFDyk14ry03snNITUklJ/sGox4dhX9wABfOXuDRARPoHNiRzoEd+fMjL5KVkYWqqhgrSOJXFbeeL5PJhD5Hz7qla/nf1z/kwScfpEe/njYejcLlC5cZ+8SDRLVqjlanRavT0qVXFx7/nydYtWgl58+ct2kP9tbGFI3CuTPnmPneDPoM6cPyXSvYcX43w8c9wMz3P2fjig02P3GxrzZWWnZmNlvXbqF91w7VDipKApeFs+Zz9qT1wMXRyZEX3/gzm45vpc/QvrVRZSFsJkseCyGEjQ7tPsiFs+cZN3EC29ZtJfnRZAKbBjLxr5OJ6dGJ2Z/O4vV//wO/QL9a2d/bL77JP//0luXvIeEh3D9uOH95+682D+VSVZWtazfTsUdHvP18bK2qVXm5ecz/ei79hvXn3Jlz7P19LxHRkYSEh/D96p+YMe0zwqMjGPnIKDQajU0rewHs+W03A9v0syT+c23gSkyPTrz2weu079q+XBb36vL29eb1/33D6uTxezrdi3sjd/b8tpvwFuVX8Koqe2pjABmp6Wxbt5U/v/VXy5MCLVoGjx5CvsHAz98tom3MPQQ2rXg+TmXsrY2VdfJoPIWFhQTXcJheSXLLilY/URSFBu4NbKihELVPghYhhLBBemo6axavZtLUyRjyDKxZspr92/cR+Ig54Z9HYw/adW6HTy0GANNmvsuQMUNrrbxbXTp3kaRLSQwefWfKB/OqVh6ejejapxvHY4+xa8tOBo8aTBNfb5ycnfAN9KVNh7alOnq2DFDp2rsb7345/baZ42vKtYErrg1crb6swO6bAAAKBklEQVTW2KsxzaLCuHzuEgX5BTUaImRvbQzMQUXfYf3KDW1SFIV7O7dn0exFHI89VuOgxd7a2K0KCwrZsXE7kdFRuDWsfl6gtJRUvvrwSyZMfsSmQFqIP5oMDxNCCBucPn6aIqORRp6NCAkPpc/QvmxY8Sup164D5rkFPgG+pVb+8fBsRER0JEajsV6tzFNQUMCG//7KkLHDcHB0sDpXwtYVhXJzctm9dRcRLSLQ6rT0vb8/15Ovs2PTDsA8AdhgyKeJbxPLNo5Ojnj5eJn3+wctLVxbFEVBo9VitOGc2VMbA0CBgJBAQiNCrb7c2Ksx3n7eXDx7sUbF23sby0zP5NSxUzQNa1rtoWESsIi7mQQtQghhg/gjJ3B2cUar06HVaRnwwECuJ19n+4bfUVWVlKQUwsok9ivJEH49OeW2w1JqYwJ3VeXl5hF3II4He46mS1BMqZ/JIycCMHnkRLoExVjmAlRX+vV0zp1OtCT5C4sKo8/Qvqxfto6UpGvk5epxdXMtNTRFURSa+HqTEJ9Aemp6peXXxRKtmemZnIyLryTXiWrTXXx7amMA/kH+XLlwheys7DtSvj22sVtdOneRg7sO4ONfvSdrKUnXJGARdzUJWoQQwgbGIiPc0oEJbx7OA+NHsOTHxRyPPWZe7rRMngz3Ru6EhoeSeCqRjNSMCsvOzcll5cIVFBYW3rH638qjsQczFsxk39WD5X5mr/gegNkrvmff1YPMWDCzRkNhTCZjqU6yVqdl+Ljh5BsMrFy4khNHThAUElRuxavwFuYkiPFx8ZWWf3DXAU4ePVntetVUQUEBsz/5lmdHT+bUsVPlXi8sKCQrPQv3RjVfxcue2hhAUGgQClQYHBTkF1CQX1DhkLvbsbc2Vtbt6mdNStI1vv3oGwlYxF1NghYhhLCBp7cnly9cRp9rXqlJo9Uw7MFhBDQNZOrjf8Hb37vcSktOzk506d2VowfjiI87UWHZp46exMvbq8adXUVR0Go1mCoZIpSnz0OjuTMrhFnj6uaGeyN3Lp2/ZPm3oNBgxk+awOIfFrFo1gJat29TbruwqDA63deZ2D2HyM60fofekGcg/kh8uQ58dWi0WtwauFX49KEgP79UAFFgKCD1WirNosJo5Fk+iEtNSeXSuYuEt4ioMCv97dhbGwtsGkTr9m3Yv32f1adTmekZXE9OqXHn2t7a2K0KCwu5dvVatfYnAYuwFxK0CCGEDaLbRpOWksqZE2cs/+bp7cW4iePR6rSkX0+nqNCccyIjNd1yl7Rj9470Hz6ANUtWk5aSWq7ctJRUDu46QIduHWtcN0cnR1q0iSYhPsHqPlKvpZJ0+Wq1h5nYwsPTg+i2LTmy7zB5xZ1wRVG4b1Bveg3qTXbWjVLDhmL3HEKfq6ehhzv3jxtO3IE4dm7eUW7egWoy8dv6bTRv09ym5Xj9g/xp3aENJ46csLqPQ3sOERrZzPJvbg3daNOxLVGtm5dbbU01qezeshNXNzfuibmnxnWytzbm5ePFgBED+e3X3zh6MK7U+1VV5djBozSLCiOqZVSN6mRvbexWxiIj+pzcKu+rpgGLqqrcyLpBRloGhjxDlbcT4k7SPvPSlH/WdSWEELWk7M05yQl2x3k28cSQZ2DZnKU0i2pGE98m6HP07N66i5junVg0ewFZGVkENA1g9eJVhEaE4uXTBCdnJ5q3bs7vG34ndk8s4dERNHRviNFo5GRcPHO/msPox8bi7ecNmDsRl85fYs3i1fQceB+RLaOqNAnXx8+bg7sPcrjcPk7y0+c/MOqxMZUmp1NVFZPRxK4tO9mxaTvtOrcnokUEilKzpHNarRbfQD/+O385mekZRLaKQqfTcerYSfL0BhwcdCybt5SApgGkpqQSuzeWdl3aodVqCQ4NxsXNhblf/ETDRu4ENg1Cq9OSnZnNsnnLyMvVM3DEIMuKUAa9gZ2bdpCdmU2vwb1xcXO5bZ1d3FzQ6XTM/3quZR+64n38MucX8nL09Lt/gGUfiqIQFBLIzi07yMvNwy/IH0cnRwx5Bjau3MCCb+fz1J+epq0NQYu9tTFFUQiJMCfKXD5/GQHBAfgF+WEsMrJz8w6W/LiEKa88R0gFE/Vvp163MRVcXF1wcHRg3ldzqtTGbqXX61mzZDUXEy8yYsLISpe4TklKqfETloL8Aj6b9imvP/sqzaLCiGwZWa3thbgTlAPJsfV7mQwhRJWpJhVK8qNpzAncxJ1XUFDA1rVb+HHGD1xPTmHo2GFMmPwwfkH+HD0YxydvfUS+oYCn/vw0/Yb1L5WwMU+fx9olq9m4cgOHdh/CL8ifIWOGMn7SBEs+jHxDPp+8/THL5y61bNeld1f+9cV7VZpXUnYfJTk3HpgwstKcG1kZWbz5/Bvs2ba73GujHhvD1Hf+hpOzU3VOlUXSpavM/mQWm9dsIqpVc8ZPmkCPAT0pKijix5k/sGLBcnr068kzL0/BN8DXsp2qqiTEn+Hn7xaxb/s+ki8nEdOjE0+8+CQdu8dYOnpH9h9m8oiJpfY5bea7DB495LZ1K7uP7MwsYnp0YtzECRXm3Mg35LNt/VZWLljB/h378Avyp1PPToybOJ6I6Eibs4rbYxsrKChgx8btLP3pF8s56zO0L+Mnjsc/OMCm8wX1sI2ZVNTi67OqqJw9lVCtNgZgMppYNHsB65ev550Z02gWFWb1fUWFRfz83UK69O5WoyFh5vbwEcvmLL3jy18LUVUStAhhJ1STan7SUjIWWlFAMd/VlCcuQghRd+7G63NOdg7v/m0aYx4fS0zPTnVdHSFkTosQdz0VKPuFSPH/m8x3DcsNGxNCCPHHUCu6Pqv1+vp8PuE8Do4OtGjboq6rIgQgQYsQdz1VLR5yYHW1mVsCFyGEEH8sk4pqpMLVwCyBSz2jqipx+w/Td1g/mxYdEKI2yfAwIe5y5nkst/kYaxSZ3yKEEH+wKl2fFQVFK9dnIW5HnrQIcZdTFMt/KnmDEEKIP5p5zsptrs9yiRaiSiRoEeJupxQ/RbH6xWd+TZ6yCCFEHVAwP0Wp8PosqzwKUVUStAhhD5TiL75bn6ooCooWuYsnhBB1rOLrs1yghagqXV1XQAhRSxRQNKCaFMvf5QtRCCHqgeIbSyV5WuT6LET1SdAihD0puXsnhBCifikZKiaEqBEZHiaEEEIIIYSo1yRoEUIIIYQQQtRrErQIIYQQQggh6jUJWoQQQgghhBD1mgQtQgghhBBCiHpNghYhhBBCCCFEvSZBixBCCCGEEKJek6BFCCGEEEIIUa9J0CKEEEIIIYSo1yRoEUIIIYQQQtRrErQIIYQQQggh6jUJWoQQQgghhBD1mgQtQgghhBBCiHpNghYhhBBCCCFEvSZBixBCCCGEEKJek6BFCCGEEEIIUa9J0CKEEEIIIYSo1yRoEUIIIYQQQtRr/wdunpUf42oslQAAAABJRU5ErkJggg==;" vertex="1" parent="1">
          <mxGeometry x="-50" y="100" width="813" height="149" as="geometry" />
        </mxCell>
        <mxCell id="pmKzXr_lIob0-RBbF5Z0-20" value="CPU0" style="rounded=0;whiteSpace=wrap;html=1;fillColor=#d5e8d4;strokeColor=#82b366;" vertex="1" parent="1">
          <mxGeometry x="50" y="310" width="120" height="30" as="geometry" />
        </mxCell>
        <mxCell id="pmKzXr_lIob0-RBbF5Z0-25" style="rounded=0;orthogonalLoop=1;jettySize=auto;html=1;exitX=0.5;exitY=1;exitDx=0;exitDy=0;entryX=0;entryY=0.25;entryDx=0;entryDy=0;" edge="1" parent="1" source="pmKzXr_lIob0-RBbF5Z0-21" target="pmKzXr_lIob0-RBbF5Z0-24">
          <mxGeometry relative="1" as="geometry" />
        </mxCell>
        <mxCell id="pmKzXr_lIob0-RBbF5Z0-21" value="CPU1" style="rounded=0;whiteSpace=wrap;html=1;fillColor=#fff2cc;strokeColor=#d6b656;" vertex="1" parent="1">
          <mxGeometry x="60" y="330" width="120" height="30" as="geometry" />
        </mxCell>
        <mxCell id="pmKzXr_lIob0-RBbF5Z0-22" value="&lt;b&gt;DEFINE_PER_CPU(struct memlat_cpu_grp *, per_cpu_grp)&lt;/b&gt;" style="text;whiteSpace=wrap;html=1;" vertex="1" parent="1">
          <mxGeometry x="30" y="280" width="350" height="40" as="geometry" />
        </mxCell>
        <mxCell id="pmKzXr_lIob0-RBbF5Z0-27" style="edgeStyle=none;rounded=0;orthogonalLoop=1;jettySize=auto;html=1;exitX=0.75;exitY=0;exitDx=0;exitDy=0;entryX=0.5;entryY=1;entryDx=0;entryDy=0;" edge="1" parent="1" source="pmKzXr_lIob0-RBbF5Z0-24" target="pmKzXr_lIob0-RBbF5Z0-26">
          <mxGeometry relative="1" as="geometry" />
        </mxCell>
        <mxCell id="pmKzXr_lIob0-RBbF5Z0-24" value="" style="shape=image;verticalLabelPosition=bottom;labelBackgroundColor=default;verticalAlign=top;aspect=fixed;imageAspect=0;image=data:image/png,iVBORw0KGgoAAAANSUhEUgAAAtAAAAGgCAYAAACDnVDAAAAgAElEQVR4nOzdd5hcZ53g++/JlatDdVRndVBoBUuyLMkJbIwTGOEBY8MMywAXngkMy2xgByZwd+7uzHKHucxwZ4c0zJAGGxOMbYzBOMmyJcvKqRVb3a3Ooaq6ctVJ+0e1pJbUbXVLsiXZ7+d5pEeqOnXqd0Kd8zvv+b3vkVzXdZmBaZrs3r2b9vZ2wuHwTJMIgiAIgiDMaP/+/UQiEaqrq690KIIwq+HhYcbHx+ns7JzX5+Q3KB5BEARBEARBeEsSCbQgCIIgCIIgzIPa3d094xuWm6dPeY5Y9FWMlP4mhyUIgiAIwrVswonSl/Tgt31XOhRBmFU6kwHbi697fvupOtsbDhbj6n4GE6lLDk4QBEEQhLehzNQfQbiKlSsLgTvm9Rm1paVlxjeyVgLlsAzWZYhMEARBEARBEK5CHq+X2fLh2YgaaEEQBEEQBEGYB5FAC4IgCIIgCMI8iARaEARBEARBEOZBJNCCIAiCIAiCMA8igRYEQRAEQRCEeRAJtCAIgiAIgiDMw6zjQAuCIEzn2i6u4+JKEpIsIYvLb0EQBOFtSiTQgiDMSeZkmvhIlryhUVpVQrgKkUQLgiAIb0vi9Cdc4/Jksche6TDOY2GRJwG4VzqUyyLPxJ4+tn13H099/wR7RsByLnWeDq6TJTGWZbLgULgcYQqCIAjCm0C0QAvXtOi2Ho7ng/gaKlnaePXszpm+KANHo/SWtXDLMg1dla50SJfIIZ/IEOtLMOLVqcuDe4lXBoVomuGXD/PKdvCua2Hl6jCNlcrlCVcQBEEQ3kCiBVq4piUOj9G3P8HIqH2lQzlLbjTNyK4Rjh03sa+u0K4aZjLP2LZ+dj3dz8E9aeLxS27SFgRBEIQ3xdXTZCcIp1g22ViW+GiOVBZAJVDpoySi4fVJ2DmL7HCayTwMDlrEUzmk7iT9wTySohBu8eFVJBTAyZhkJ00mLZXqCCRGMiRyCkaph/IqDdV1oZAnPmQjhXW8pRo6xQ5z2aEkWcWDL1z8XhwXJ1cgOpAimXKxbAUjYBCq8lBSWrwWzY2kSSYthnuyjI3YZOQkA4dMPIaCr8pDYGr+F+aQjeZIxUzyORc3a5EHXFTAKf5RFJSAl9oWA0ORkCybfCxPYrRAPGtNzUfFW+ohXKkTDEq4tk1yKEM642JnbSzTwUQCFGDqM4ZBqHJq/cxnu523fgBkVEMnWO2lrFxBlqEQzZKKFRjvTTMyAbYDhdEs48cS9Dsaqk8j1ODFC8y73b5gkRzPMDlRIJs/9eLZ+w+WjZPMMjxm4zhg5ovrASRkRSPQ6KMspKCpEtgWZrJAbNikgEKwwYvfp0CyQHo8S7IgoYd9lJYpaPo8oz1vPwfDC7YFlqlgBD1EOorrwY5lmYybZG2QFFBzBVIZcDweyms9hEtVlPkslyAIgnBJRAItXGVc7PEEvS/0sfmXA3T3y+AEWHhHMze9P0LrEoP8eIaeR7vYNgC9+zOkUjahvVlGN6vogSBrv9hKS0DFBxT645zYNMqL46U8dBfsfvIYuwYD1N3ayN0fKifkOjA2zI7vJNFurqH9jgjVgJO3OPnjAxwJN7Ho5ght7SpONk/qwDCbfniYg0dt0hkvkbYqlt9Xzy13BdE1GNvUy57dCQ4ezTDWl8PVT/DroxKK6qX9gXo6by6jck7rIU//1l52/3aU3h4Lpy/FiOViEcRVLSTySIYXz/KFfOpvGqkLy8ijCQZ/O8Srvxjm1aEshupiZnzU3djA+g/Usnq9AYUU+390kH1HTJI9WdITeWKOgiMFQEshWzZudTWrHmjmvR+tpGwe96jcXJ5M1zDPf2M/+45B1gRMDW95hGUPtnL3/SH8Pon47mH2bxphb0+BwYNgWhB7eYjXBqMcrdAobStjzZ8000QxrZ87B3MgxoGfH2XLC+P0T8hoskQ+5ad940Juub+SjiUGajpLfvtRHvtxikzWIT6eJ5csIDsylhxm+Z92cMetJdSUq8iZNLE9AzzzrQlGCLD2i20sWRyAw+Mc/NlRtg1rVN28hDvuCVJZNZ9oi/t5z29P8MLPT3JkSEXDprTGIZVUyKXDNK6t597/r7ge0jv62fL8OIdiLrofQv3jHB5UcJqaePcnGlh3SxD/fJZL5NCCIAiXZA4JtITkKkhIgIsj2bxVukUJV6M8vS/2cuiwTeiBG/nCBh1GBtn65SF6typoC6pprgmy6I9Ws9CG3oe3sjtVRul1TdyyWgdJQvOr0xIvi3wuzoljk/zom9B0SwvvvqucBXUGwWnfGu+FwLLpcbjAJLHTHRRzRI8OsukvjjG4sYN7/jhCg5rixJMn2fnjA1i167htOdS+t53Ku12u29nLoZf6OdSwhIfu9uI1ZBSPPL8r1liG1PFJBmIqcmuYqmOTjFspcotLCeDBtz9F/PA4JwbrKfcm6X3kGC8/Okx/JETLp9Zx14ooW77cw9Eth9hs5LEii7ihzoWBScaPmoz7vfirvVQMZhjRUvDOKiq2j5MZTjLZnWJgopKyirkGa5IcmGDHN/aza69F4J4VvGODAvuG2Pr9UXb90CWyegWrF2pEbmrgphvqWN4zwZHvbeWx5yF8TyO3vbeSZW0akiKjMf/kGWK8+tUutr4aZ7IjwoqP1LG+PsXTnz9B31N72RToxA42srwUbNtl8Ogk6ZRDyU31rLkhQEVsjEe+NcHevz9MaXAZN2wIUQ0U0hYjhyYZwE8+c+r78uQzkwwc1WCDe8EOkBIykltcIldycEnT+2Iv2x8boM8M0/z7S1nLEV54IkaqppYb7mti47vDGKfXQ474cIKBvXmQVDzecm78k3ZaW0LUNun4pr5nzssVmNfKFQRBEM5xwfO5hISChuTKuJKLSx4XUdQpvFFc7IJFYtImOQmO4yHYvIA1n6/ACXvwBkBSJFRfsbzA45HQLAXNr+INajPPMevASZXa/9hO5/IglSUauiGdVR7g2OCeVYLrAu7U38BEjuSRDAdy5dx4eyWNjV5KZQP5HQrGgjx2KSgyKFoxeff6FAxDQvEW4/IaF9Hk57i4toOn1MPC9yyk8ld72dltUtYUoBLI7ksRtx1sG9zuSfoG0vRkFNy8CtFxjr5mkks4uAWLZDTP+Fge6lywXRzLoWpZBfVhcDb3MBGHtlURvEcS9E84uJaDM6+SZBXfgggrP7eOhgxoqo7hxDhmWUhOgXw6xtiIS6Ee5KCCrit4AypG8ZoH2VAwAtqs2/CCLBeOTnBkNMdwLkBDQxUr31VFvVrOHX9gMJp3UBaGCZ/KNHFxLBfbKqGxs5Kld4QJdEusf2aU7X0xThxO0dbuo7occMGxXBzcszpOuq6DY7s4F+xNWWyEUNxi8Y6DhS2BXbAwczayoVDVHKKDAFu1BG7CwTVd3KAy7SKiOAa3baqUNFew5g86uGGVj6BfQden78tzXK6AuPkoCIJwKV73KFo86BvgylP/l1DQcbBwJPNNCVB4u9Go7KyiPRfj2EAfL/3YIZuEYGsNbWs9+C/mvO/VUdvLWbayhOpKBeMiBnowEwVS0TzpujALqgwCuoSMRnhhKUaVjekrJtBvBFVXCFf7CQYlFAU8XgU/pyuWi1Im2YJNNqBRUudnwQIdPzrN76qjMmtBXZjayNkZsSfkIVQOeS9IkxLBsIamSvNs+T1Fwsk5pI7H2deVwUxa6JpFurdYuY1rUci780zK5851HDK9SRJZi0JJkGCtn+pyA8PRabq9lhrHxTZ0PH4gN+2DFQHKanxEIj7UyQANDbBrwGJ4MEcyYUH5pccmuxrT7z1IKChugJLqIOEqnfzJAid3DnOYOJmkhb9eJ1SmM+OlRMRP6Ppq1m4IUe5n9lKMCy2XqN4TBEG4JLMeRR3HQUZFcs/OCiRXRpIUZFeUcwhvDF91iKblEvpohlg0Sy6VY2DHAPhl9HCEuvA8Z+hVkJvDVIelOSbPLq5rkUu4OP7Xn9JKZYj1JelXy1jd6bkKOmjJGEEvDWsi1ABW/yTRqEnK8OB5I782k2Oya4SXHjnBji6ZupvDNLX7CeZswuEE41fqppXjkBsapbvPIe0PUtMWonW++895bOyCTT79+lOdKtuQUZDcM/uF5EpISNg5FTvvxS64pAYmOI5D6aJK2tZG6OjwztzZNGyg1wdECYYgCMIVNmMC7bouju2crtk7l+wquJIsyjmEN4BJcjhFylIp2dDMMj/ABJv+xwHGu0sYaT87gdZ0FbvgkE2aZHMKKg5mQcHwyShzTWYNBU02sZIm2bhNQTFJ90Xp7XHJlk59T8ggVOElHJ2k+0iGUJuXMtVibM8gO58d5mDbSpZ1eNCmflGKKiPLMrl4gXTWQHFdHEtCVmR07xvQVB0wCARVAmYea9QkbasEKmzGX47R35VmoiRCYyAE9Zf/qwGYTBE/MszWfVmgmraNzSxudkg+n2d0NzB5/kdkWUL3qCBZFJJ5MvE8yaiDa4NqqHiDCtIcN6Eky/gbw5SVTTA0kCV+IkXPsQyGkuPQIwf47ZYCySVt3PwhH60rp31wLMVIX4aBYY3wRIq+PrBtldpaD8GQCqqJpMvouECeXKxApj9PsifB8NAFYnLl02Ub58sSO2ER71HQDInSoIxslNLYVkXrihIWVMpcUjvxhZZLEARBuCTiSCpcZSTiR8Y4cDhPZgz0Dh1IY/bLqCUy2jnXdMHqIM4Rm6GuON01XkJugWQ8QONSH/6wMjVHafYBz2UJKnyUh5MMHfHQt8WLFMww9lwf27sdAounhlIr91O6vIT1C/t59hsDKA+U0xJMMPjaBMNDHlZ8sAR12q/JCBr4gl6i+6IcX+VS6S1gpXUCpX5qFhpzWxWyhKTIyIoESKBIyKqMNHXfXlKl4nsS0FxBx8oJokf72T00zNN/r2O8J0PXk6P0niwQuiVIa4UB5KfNpzhbSZGRT11sKBKSKiEpM2SuZ8Vz7nsyiq7i88rkzRwDh4dJvhxlZGuM3hEZNSAVyzem3bBSPRqlDaV4/VEmj47T+xpIgxpmHiqaIrSu8qFqc8ygVRkW17J65QiZ8SjH9g7x/P9vIXWk2b7ZJWtrNLUGaGj0AalpH4xyYGsQR8nSyDjb+lUUfxktiwKURVTwqhgRL1V+if7COAOvjuHfF2Vk3xj7R2Rkr4Q81yz/vHUGyCaSaaPGwqg1LqkjcQ7nXSbNMA3tPqo8p+YtIckSijzXEpsLLJcgCIJwSZQvfelLXzr3RUmSMJ08ByaewXbOr3Uu9iK3caVzzoiCcMkUQhEPPskitmOQ7S9McGRbEntxCyvuqGJRq4o8LRvWa32EjRTZYyPsfiZK994kRnMZVbUGHo+MNZEj0Zcnmvezao0P7byETAI8BCImo8MJDr06yslRE2tdM9cbGYzKcmqbfJSXa+glXqrXllJ1cpjunRN07SxgllXQ+cFm1q000LUz4xYrYQ1/pUJpsp/dz0Q5sjVGTjUobQxQVjaXBMYi2p8mGrdxSoME2svwJZJkZQ3PwjC6V4GMg1YdoHpDBbWlGpUdIaoWeAinMyQSWUa7C2QJ0HRHC+s3LmBFhwpugcFDSVJoeBaW4w+pqPk8ptdHaFkZ0kQeDJ3gohKql4anlQpMjydEeEk1bTWgnsrmfAbeMj8LPSYTlk1hOE8m6uLqBoFyD8GIj0JFGR0tGiF/cQMqXgVPc4CIN4OVtImdzDB8PEkq7RBsL6OmRkOZKVmfkQSolC0rpTIg4cnkmJzMMTxiYQZKWPJAGzfdVUlrg4pcKFDon+ClTUkKBZdSw0GdzBMbhFBNhDX/rZMbrvNTEZCQJBXVUAnVFRhNKBRiOcbHbVKOgb/MQ7jSR1VTJe1tBv7AOZdppxJrSUI6b0TrPIPdo5zozmAFwqz5SDV1mkymp59Dm07y2q4sY/hZvbRYeJPvTjA6blPQfNQsCNO5wnv+KsjPZ7nmuFoFQRDeBkJ6JYvLbpvXZyTXnbkLedZK8KNDnyNv5s869LuAI5k40oUGbhKEi2TZ5JN5UnHz9MMwtKCXUOnUgzDO4lBIFh84ksmAJEv4KnwEgwqqKp15kIqtUV2jIc/SfGels0xOmGQzLpKuoJd58CUy5LRpD1LBxbVtskMZEhkXy5HRfBr+cp2A/9w2bhe7YJKNZpmcLD722ggbBEp0vHMq4TjzIJWCVIxHS2TI5lykoIYMuJMWlqLgW+Aj6JFQZQcrWSA9nid5+iEiMkZYJ1Ci4fWe/SAVKWgUW/TTebKmhF5hQKyAVQAlpOOPGAT0meJRMSJ+yoJnd2JzCzaFaJaJSRvn3KOKJEHYR0WZgnH6gSMurmOTnciQmHSxpnpFKrqCP+IlOI8SjunrrTAVZ+b0tb+Ct9wgEFaL3z2ZIrXlMP/z/xkkFa7kpgcWcN0NQbxISGetz6koLZtCMsvE1ANKzl2u13+QioTiGlNDgU5bV30neeI7Xbyw1SRyfSMP/pcFlBZsos8f4De/GGVvvozWjR38ye8Va4is0w9SUTCCBhVVM1yEzXO5BEEQhKIFgU7uX/jX8/rM6zaFOZKNI+WRTw1jBzhSAVcSdc/CG0hVMEp9GKVzmVhGD/ooC0LZTO/6NPw+jQv0BUT1eyn3n9OqVxI653MSkqLiqwudHnd3dhKKrhOo1glUX3DiGch4y3x4py9USYiS6ZPUnP8ZNeghHPQwWz85SVEJ1YUInfXqtO6FpbOVl8wQz7nz1hWM6gC1c15eCUlW8VWE8J033rQLpDjymyhjIwXyM3z6FDXkpWTFApbUg6rI6GU+yspm3h9OL40sUVbrw6gIUNEWpGZRmNn65UmqglEaoPZ198cMJ7fF6T+cmRo3fPp3KaiyhqYaSKqCd2kVLT6J6o4gLdE06UyS/U/0YQCFkzZmeQVLmitZtfbMXqaWeikvnaHV+RKWSxAEQbh4F7iXPDXShishSTIuLq5k4/IGjUUlCILwRtM1tIYK1t0fpuD301g3y5Bxl4nj2NiAZEtIkoLtWjjlARbetACjIsXwyJkyOb2+nI7FQao6wrR0zLFW/vSH39zlEgRBeDt73RKOHx7+DFkr8WbHJAiCIAiCIAhviosp4RDVcIIgCIIgCIIwDyKBFgRBEARBEIR5UPfv3z/jG4nkJF//4itMJuNvckiCIAiCIAiC8OboXJSi/fMz58OzUSORyIxvSJJEz94Y77/vAzQ3t1yO+ARBEARBeJv49ne+weryDDe1zmlIJUG4IjYfizHYnWG2fHg2anX1zGNOKYqCLMvc+e57WL/uxssRoyAIgiAIbxNPPvU4NzVG+fSt9Vc6FEF4XY+N6MyWD89G1EALgiAIgiAIwjyIBFoQBEEQBEEQ5kEk0IIgCIIgCIIwDyKBFgRBEARBEIR5EAm0IAiCIAiCIMyDSKAFQRAEQRAEYR7UKx3A1adANmtjoWJ4NfQrHY4gCIIgCG97+ZyFg4yqyWjKzNM4rkveckGTMXi7tZJK0/7tvuHfNqd16zg2tmPjODau+8YHdUU5w3QfPcG+Y+OMXbaZuoCNw5uxSQVBuFiO42BPHe/e8sc6QRCuIS7DJxN0D+YYS882iUsmZ3J4KMXhnEPmkg9hLjbXRt7iSgqW4sFSPNiydlnnbds2pmlimiaO45x+/XUTaEVRkCQJ13XP+/OWNb6fbQ8/wfNPbGf8ss00j8Mgg9jkL9s8BUG4XFzXxXEdXNeZdpxz3trHOkEQrhEukGfv3m4eOxbl1cwsk+XTnOjq4S+/sZe/fCXFiYQzy4Rz4WCTZxD3qs9bXEnBkVUcScGRFFxJxZE1XOnS2t9d18VxHBznzHnh1P/hAgm0pmlIsnT66sOF0yeZtyzHwszmyecKXK6lTA0dYdt3Psc///IYA9HCZZqrIAiXi0vxwDg9XXamkmhBEIQrz8WybHKWiznbdb3upbmplv9+fxv/fYWPZr80y4QXloyleOW5A3xlZ4a+1NV8HJSwZQ1bOtPq7EgylmzgSgpnl3XMj+u6WJZ1VkPK9IR6xhroU1m2YRizztRxbCRJRpIuPri3CyubJHpiD91OimzBvtLhCIIwTfFgOPMJwnVdbMdGFsc6QRCudrJCoMTPyqUeMNRLyR0xTYvx0QRHXYuMdXXeiXMlBVvWZ21ptmUNFwnFmX/DpW3bZ5VrTPe6CTQUTxyyfE5Qdh4rOcyB/a/RN14gmfUSrlhI6+IOljb4i9OM7+PAsEkslUfLDnGofxIop27VSpY2VVPt18FOY052s3tXkrLrllJdFsYP5BMTjHRtZyi4hsVNGpmRYwzHkmRlHXv4CD00sbJFJTMwwskJHU/DUm5Z20wAkDJjnDi6m0PdfYymdBS1kqbONSxfGCbkU0/Hb04OsHvXy5wYK5A1g5RUtp4d/7nrwTFJjexi7zGTQFULjQ01lHjmtgHiJ/bR29dLV/chdh4pMDS+hZe8ffSVh4g0NNGyZCGRuc3qyimkSIx2s3fva/TEwHZKqWxYwqKOJpqrPeCYMLKLV4cNyMfJxkfoHcujaJU0rVvD8powIUOFQpTE6Em6juSpuek6qnQNA0iP9DB88iTR8EpWtgTQFAlyMYb7ujhwuIv+uAyUU9exkqVt1VSXntutM00uZwM6Hs8cN4wgTOPizlrj5wKS617SiUgQhCmuC/k0e3uTHIpa5DWDypBBtVQg6Q2zrEIjbEhg2UxOptnZO8nxFNiuRnVFgKW1PlpLpuUl+QLHhiY5MJpjOCuhqAYL28KsKtUIay4T8Qx9EzmSug7RBL2uh+ZSGW/B4vioTSYU5J7FfspUaW4jKrgu5PPs7Y1zKGoSKyj4vB5a60OsqVLRZCCT4US8wJGURIWTY/dYAdPRqK4NsHSBj1afPG09WCjlXmojBqWAYzsM9UwwoAWoKzeo9c+3BMFmMpNj3wmTYHOYVp/EWbOYQ/yx0STd4xn2jaTZNujQn4jxvJ6lJ6hSEfHRVuejcp5RvVFcJBxplt6UgIt80WUcFypXft0E+nx5cpMn6Xv5Nzzx6ov0RlVScQVfsJUl624n8MFbqQuB0r+JZ3/Tw84hk1pPnH3dMUiqhHon+MB7bue2pQ2E7UnyA5v42T/3sOovK9kwlUBnx/s4+ORX+W3j3/LpsiBjOx7n2d19jPgbqR9/nl8cqub2exagnTxB1wEVqf291K9oYomeZ/LQC7z47DO8dLCfRMaD7JQROZBD++jNLFtYhk+xKCQGOLn1Z/zk6Rfpj0Ih5yNU0snKDTaRj1xPhX52TYtjZUlOHGfT079ga08ZSzaEKK+eewKdGjrO0V1beOX4EPt7LcZG9rFb72WgJMJCW6P0qk+gMyQG9rP7+V/yyNZN9KfCqHk/JTWrWH/7u7jnjuuoNfLQ/SSPPJWjYGZRzRjH+1NIhQClo1k+dd8tXFdfhi8/xMjBZ3n023HetXoJoakEOn5iJzufeYqdrQ0srvehKTaTvTvY/sJTPLGti2jagHyAmoVxzPvfwfrrGwhP7x+QOs6hrpMkqKV18XXUBq7UuhKuVRLXRicZQbimuQ5WLsehrkEe7UpyIGqj+L1UBDX0WIJkyyL+S0AhbMDkRJLtB0b47pEoJ3MqqqlSWhrilmURNq4IU+cBMOnvHufpg2M8P5xjLKeiWBr1kwWclRWsqYDB4Si/3D7G/mAZnalRfjWo0tbsoUExOXS4wBEtQn1DI2tDCsELXiS72HaB3oOj/KxrjB1Ri3RBxa95aRg08d1aQXtIxjuZ4LUDMb7d67ImZPHqcAEzLRGoL+Xd11Xyux0BIrIDqTi/2pzGv6KC26cSaMuyObK7h6cDjdzZqV1EAm0yOjHJo7+epOWBABFdxX+6zcnFsS1Gukd5bM8Eu8dN0gUFr+ajfdAl8q5SGvwyiViaQ90xNo3k2TPuMjqZ5DUtS59Pp82WKb+KEmh4/eP3G93uMWMCLUkSsiyTz08rHXfGGD72HN//+4cZ+8Sf87G717NKO8zWh3/AI7/6Oj/qvJXPrAY/MHL4NQ5mmlnwyc/xT7e0wq5/4D/99RM87S+lvLaOW0Lg2DBwHJacVQyfweEYA1jFovX4MEPHJhhpfzef+dhKCh//HE/t/wgPbbyX3609xmvP72fvqEN77Rg7f/sox7iZW//wb/i9JRnihx/lsx//Js+taiJQXcbSUIaJwR08/YOvc/SmH/FX7+tkuXcP2x/9DS+8+CteuvN63lMDp3Jj1zFJTRxj1/P/wl9+M8Af/vn9vPPGZmrmkaDVbdjIBzZs5F3dL/PKv27h+42f4jPvWUJntXd+W+lKsU+w98Wf8vAPdlP447/lb+5dQ8vkszz81X9l27Mp5IXX8fHFxUlP7nyGsfZ7uf/3PsuftinEt/wzn/zCN/jlgkbCJaV0KpDPFLe5c1YVS4wcfQzAVM35OAde+gmvHHYpff+3+Oc7I8ijj/G9L2yie1815YsbuL502sd7tvHE9x5lG+v4nU9fx8c636R1I7xlSJKMTLET4fnvSaJ8QxAuB7NAamiI//bIIPYNi/jMByLc7Enxm129/NGradoaXHIAToadB4f47ksJ8nct4murwrRmJvi3J0/y8n4buTrMHzY6YE/yo6f72FZSytq7WvlQjUrqyBD/85EjfFf2wJoAkZxJbCTLtrTG5+9diPHIUX7ar+G5vpzP1OX5ySNx9kcbWOSF4IXGrHUtMqkJvvZwNz3rmvngB6q4t9Ri8OAgf/nTo3ynsYw/6ZBZCMQmUuwbcChd1s4/vD9MYKif//X0BL96TaK22s8DU+ew4QmoPGtEDRdIM4xN4mLXc96G4SycVy3qkC9keOqF4+xe0MFHNlbw/kienq5R/uXxAZ5fFea9hkxjRzWNHdXcPRrlxedifLuigf+6OsDKktlbeq8UybVR7CyOrM/YEi07JrJrXtS8Tw2iYdvnl91KkoSiKLO3QEuShGmauK5bzPDHhokdG2aTdDufu2MdSyIlBFjNqjtLKesYJVFN8fYFAMtpb6TienkAACAASURBVFnPe29eygINuO53+NDyTbyUOM7R3ji3LJv7QjS2tbL43ruoqztKw2KZd95wGysXRVCGJ4AJQAFqufWPvsV6NNSCSX7wJENDPTjOAUbG0yRTQKg4P9t2ONQ/SE9/Gy2LV7Pyo8tY+hDIATCmXeylRnfx4lOv8tg3R1n32c9z09pKqmau8njr6j1GT69Nd8Xd/Od719CsaxiR23j3gxUsSiooZzWf38jaFbdx24pmFqg5yq7fyCc7H+e1vh4GRlvprJnfV0eTKUb6xhgcXUBt5UYe+Nq9uJqBem5Z/qJ38b5PtnALZTQtusTlFd6WTiXHMlMjDk17XZYkkTwLwuVgOViJAgdq6vmrlWHWVqkEJD+rWyL8UW2Uzafyn7EMx8dcjgYr+ItVYRZqMkaonPfcpNOZlZCDgO3CiRibskGaVkS4s8lHvQxWRw1fuGOCzxyPs71W4gagosTgvrU1tFTmaa6RuTUYZlljOZXpifnFnzXJn5jkSTvCJxaXc2OVQalkYLQ28BcfKGGoSqHkdEblozbo5T9Mxa8vqGBj4yS/HE6zfaDAA6VX9hEcx+MFjo7bxEr8NC5v5M86XBSPinH15civS8JFcm1wLYDTSbSEi+zayK6FdJEdwU81JJ/qE3ju67Isv34Jh2mauI4LkkQuk2Q8GSVVu4w6vxe/LCGhUbKgicWRWkxjWgJdVUGopooaXUXBBa2R+hqN9FCUwfEYMPcWWFVV0Q0DRZFRVAld09FUDc6qz1bofeFhfvrCFo7HLeoaagnWVRJpdtA8LsUyFh/ltat5z+//McktT/Pyz3/AL75dQCm5nlXveID7722nglNN/l10bY/jj7fzu3dE+OnWl+lb8w4aKiL45hz5tS8RHSXqFFAa6mkwig+VkSSdirbFhCxgejJbt4DyinIimoKCF91opKXB5fH4CBOJFMw5gY6w9OYPcL+2mRcO/QNf+WqMoUGoXflR7rr3FtYtqeCsER7VWtray7FQMMRjgYSLJEkSkqTgODZTBwzR8iwIl1HetBmO5yhIHjyahCaDhErA46E1AlumfmqTqTwTroNS4aVFk9Eo3iWqqgkQtgENHMdldCJDMuSlLKRRqUgoAKpCQJewHQfTcXEAWQKPLqPIEooCuiKjKzLyPH/axfizZCrD1PhUSmUJGfD5DRZ3lNKsygRPnZz8Kt5p8SuKQXVYQR4vcDRW4Mo8w07G0H3c846FTB5N0X3wIJ/ZbpPFx+KOej6+Lki9IjHz0BFXN9kxQXJxlakE2rVR7Nwlz1eSJFRVxbKs00m0oiin+wfOaSvKkoymKBguWLEkGcc9fXcgObiTvfu2sll/L5+9rRk/QCaHlc0Xb8fgAhmyWRtN1vF5Zts8OUxzkolxcOrnsYR2Hrqf4adPHWW4tJUVdy6kI1KCEbRQXlAZO31FZSGpMv6KZbzz7nZSqRjx+Em6j/VzYsePeXHxn3Nf46kSjjJq29pY/dBt3FE/wsl/fJitu6qpCKzhuuq3T0c13fBguAp2KkOWM3VGsWO/4dUTcUYit/HJ68uKL6ayFPIFin1dbVw3TSbt4ot4MbTZBjVPkc2mmYxPfy2L6ovQvGQd+sLlpBPjTMROsG/Xk+zaF6IkcgdrzyrA0vF6xfMihcujOLLQqX+L5FkQLhdFlvBpClLUJG4WyzXCFEe5SeXOnF90TcFAws7apDnz+sTwGJtHTYaDEf5ooYbfUFHyDnnTOT1OseO4TCRzmEYJAV0hcBlHjVVkCZ+uImVssrbLqcKAXCbLocP9PEo1n+jw0wpguufE75A3XSRHIqTPVtfs4jgm4wkX841KMyQH3e/npiUeFuUt4pkcJyeyHDzay28aFvP+WpWaa/R0eqqcA4ot0JfT9KR5+nlhThXqkiRhlNZSWd/Akvw2fv3cPrr6R5kYO8ThbU/yzBNPsX0YzNNZdQ9Dx/aze98QiUSUxOBWXj0uo/hqaawuAUVFCvoIS8eJ9o0zNpRgoreLIzu2sKl72nzmwjZheBs7uieRq65j3a130Nlaid27g+OjFtnT5S8FMol+ul7bTI+vg9aV93LXne/ihkYF6fhrHBoC+3QrfRV1HSvYsPFGmpes5cPrVca2bmHX3h6GL+KiRlF1fIEyJvqHGIzGmEiOMjExyvj4bI8Tujp4qtpoqA4SiW7niWe76InGiI3sZtdzP+PZ51/h4PRHNca7OH7wMF1HRknEhogObOeFo2GqKhdQVRYATUf1yQTtIwweiRMdTzB6ZCf7d+9jR//0b00zdHwPRwfGydau5+ab72fjfRtozh0m2tvH4OQ5QWZOcGDPi2zes4/e2QaXF4Q5kqZKNkTyLAiXl2qolFb76UgnODKc5liswFgsRddAjGdHoDB1/vWGfTSXqFSk4vxkX4rulEk0nuC1/cM8vT/G3gRIskywppQVRp6B/gQv9GTpS2TpHhjjJ8cdvCEvtUFtHve6bQb7J3hm9yg/P5Yhyfkd01RDo6wmzA1ygu3HErw6mGMkmaH35BiPvzzAC6MOk6fyjUKe2HiCl47niKZMJuOT7Bq1mHA8dFYaIEngUQnKOdLxPEPjFtF4lhPHxvjNoMPEG/K4CAfbLtB1bIIjjk71ggj3LqvgzhaD4PAEB6MOqWnlwqosE/BojE/k6U+ZjGXzjCXzjCavzqF4z5Rt2BddtjHrvKeVbUw/N8z9PkJJPTXL1/ChGzfxvSeeYlNuGUO+fgYODJDSV7JxTSueUw2NniTxwaN0Pf8KZYt1GH+Zfc4S2ls6WbQgAJqLGmlmWfsQx/bs4DV3kgG3l+7d3fTmA5S5cjGz1zygT7VYSzJ4AyBPNSlrKniN4v9DTbQtGCQzfJi9m/N0F46y9cWX2JfUacrZWLYFKFj5HNG+LWw2q3GbFlDpG6a/z8artdMUBmVqvWgG6B4ADc1YwPX3f4xXvvQoJ/Y3sq+tgerm+RVyGIFSahetJ/DbnezdkyM75OCRwpSULSMSuYoLqysXs2TNMW7ufZwnH36cqtxSajO72ddt4itby/qlDUCqOK03xmj3Afa/GECuy5IZ2s7+wDt5f0cL9eUe8JQQqK5gUcMJ9j//KoGRAP7YfvYcHmGk4OPMTQeDXPwkx/efZDAuo9aHgIMkUnVEfBVEzj0ijm/n5SeeYKfVya2/20Fj6zV6+SwIgvBWpqt4akr5UNMEL/XFedm1GFTyHOxN0m2B71TGGg6ybGGG20ZH+OnLI9QWgtQVJtk14uAPlHBLvRdkF6rKef/SGD88nuDFHWDVS2QHxvhtvpzb68IsKlEhJoM2rbBXU86c6BUJPMpU3aZJ77FhfrA9w/GqOha3+mjlnARJ1/AuiPCJFeP8S3eU5xyTVMQhN5TgqBnmd1r8VPkUyAOqTcY0Obg3xitNKkYuzo60jlYeZl2VCpILAR+Lqi22RxNs2a+S8hUYPZnkcF7B40jMeN92evyzOWu5ppNwHIlEdJKtGZnRWIBhn8XEuIkih2j0SXinrSrDo1G3oIzA3kl29Nhko+CRVUoDQSqD11ix9BtkHoU4fsqbNvC+L1RT/42v8PNXDrM3W0nDkju554HbuGP66AeVG2gNaCxWt/D9Hw0BTdzwsU9z56pm2gMAQQzf9dzzp+/jW7/Yzku/fonwkvW03/pJ/qzsB7waMvDLCumqZrxuEK8qgWLgaV2FPxRClVWorMC/KIRH98Kyj/PZh+Anm7bxwhPb8Na00PDA1/hY01fYpdvk81kgSPmCNdzz+/8J5/GH2fx0lmgWwvXruf6hB/noqfhlneomH27AKK4cWYfKu7jtd7bx1MExhg4PQnPrvFayXlZH812f4vP2V/j5ywfZG4OGJeu59a6V85rPmy9M49r38WDVAhZ+9xs8+tgusnYdizd8lPffdgPXt8Dp+1j197CqwsQfe47vb0mi+zt48Euf4d5mP1UGQAWRxg3c/dmD/ONPf8ZTR20qNmxk6W0fZvXJvRw2ZFQJoJzOWx9E9/+aX7/4ON/fVJz9grV/wP13rOH6unNCTCTRBgeIJ0IcORGD1qo3ad0IgiAIc6fi9ZTwqYfa4LkhtuwZZIs3SG2wgj9bnOTb6pnpWlqr+FjYQ/sLvfxg2yRZ10tnRz0f6ixhQxUUs0ODm9/ZSlXpIL/aN85T2xV0I8zHH2xiY6VCjWbS5TfwVQTJK1N30iNBfKqBIYPi0Qg0B/Bqxc7C5SVeqgyL7rjJOLDwvPhlDMPHPRuXUrOpl8eOj/Jot0Z5SYh7NlbxO80qnlN5pS9IdY3Ke0sT/Pu2DDnbQ+eqGu7uLGFD4FT8IW67pZKh3XE2HzzJwRI/C1c080XVZU9Io+y8+oCz45/N2ct1Tvy6j3tua4XdQzzTNchLWfD5/Sy6bQmfXqjin5a1GwEvrSsb+L+dbh4+lOTf09BUV8odK0Nz3uJvdZI7y0jRY2NjLF26lP/9j99m/bobp151wbUxsxnytovjysiqhq7r6OrUFt39T3zxF0kmq2/gv/7e9ZRYNqCgerwYmjLt4snFMTNk8jaO4yKpGoqiolo5TMWHR5dwrDyWLSFpHgzFJp/N4Cg+NE0Cy8Q0XWSvF0MGt5AlVzCxHBdkBUX3oJgZTNmDoWvoigSui+uY5PM5TLvYuVCSNTTdg+dUXZJTIJ+3cCQFzWOcvsKwCmnyVnGgdo8+36uvqfVWyJAvuDguU+vNc2a9XbVcXNvEzGXJ2QAKiqaj6yqaIoOZgm1f5oM/LuGGd72Dh25rI2i7ICloXh+GcuZH7Lo2tpklm7eL614zUCWQHQtb8eLVlWL9qWNjW3nyBRNr6k6MrHoxDK34oJXprCwHHvtn9iVUPO/+YzbWXe3rUxAE4e3hgw+9jw81Rvn0rdM6NjkO2YKD6YAjSSQm4uzYvJdvV6zif0wbLs11HAoFh5xb7NerqjKGKk8b7QvAxbYc8pZLwSkmybqhYMjF+lTLdijYxc5lPsWlULCxJBlVkVBxyeZdFEPBkF1cK8lzh3LsHND50ztLZm4BnvpOq2CTs8FyQZYldE3GUKRio+/QMN/YleQHiSD/en+EMrvYYK5qCoYqoU07hTl28dHcBbt4k11RFXTbxpRk9BmWNX86fnmWJNrFdqYv1wx1uo5D3nIo2MXBTCQZVEXBp0kzjJvsYprFZbUdUBQJXS0u61vJN148yWMjVTz//PPz+tw8u4JKIKlovtDr7FxQVQrechXNF2D2axUJWfMTOHdGhs6pm/CK7pv2PSoe37S56QratLv1ku7Fp59zf18PcVYtviQhKToen86sNfqyjjFDpzRV96PqAGMM9mznF//6AkOcGrv4fJU3f5rbV7awNFJcViQVzQihXXNdXIvrTPef2S4zqa+AslIDjz846zaXJAVVD1x4vE1ZQdF9+OZQjTHRs5PxkkVUNzezrFIkz4IgCFc1WcbrkU/XJzu6ioKfeqSzzsuSLGN45AuMCiGhqAo+lRlHyFIVGVU5M62hq9PmJxE4nTKY7DleIG4qrF4beN38BiRUXeX1HglR6oUmuThdmOJguzORFQWfck7sqjrLufbc+GeeRpGnL9dMXypj6Bdar2fmp2kqs44D8DZ3+cdSqbuF228zKfhrCF/2mV8NvARCzSxfb9PM7Al0sCFM+TXyvJRLohjQ8h4+5DMoqa3hza7o9pbU0ry4Gd1fRrkofxYEQbim+INelq9uptzrocZ7pRpBFCpK/XhKJUovdYzmcIjrOzxUOjrlzHGkBuGadPkT6MiyqVbXt6oAobJF3HiXeGoHALIGNWu5YZ4PSrlcfJFmGq7MVwuCIAiXyPDqNLVV0HRFo1CorbxMLV4+H80+H82XZ27CVUxcHAmCIAiCIAjCPKimOfNzwi2r+GjERHKSieg8H3kpCIIgCMLbmmmapPIW46k3ZGBjQbgsUnkL13WZLR+ejbRt27YZR+GIxWI8+OCD2LaDpopnJAuCIAiCMHeJZAJDdvBoYtxg4eqVM23al67g61//+rw+p7a3t8/4xsTEBIqi8Nk//s8sXdI54zSCIAiCIAgz+dJff5F3ViV574qKKx2KIMzqiT1j7DZ9zJYPz0YNh2ceK6NQKCBJEkuXdE4bB1oQBEEQBOHCQqEwrZU2t7SXXelQBGFWXUNp9o+ozJYPz0bUZgiCcE0pPvvpVOWZhCS9tQb1FwRBEK5+IoEWBOGa4uLiOMUR2GVJQpJEfaUgCILw5hLD2AmCcM1wHAfXOfP4Itd1cRx7qlVaEARBEN4cogVaEISrnuu6uLi4rsP0VNmdek/GAWRRziEIgiC8KUQLtCAI14Bi2cZs7cyOW0yuBUEQBOHNIFqgBUGYQYzxocNs+uUOJpjqshfsYMmSZdy0rOoKxyZctfo3sXnvcQ4OZgCQNC/l1z/ELc1eIpfpScmCIAhXg2smgXZdl1Q6hev14lFU9Csd0AxsO08qM0Gaasp9MsZF9G0qFArkLBPJ5ycAiBvSAsx//3ddh1R6mLRbTtAw8M/7B5MmMXKMbT/ehn7fKio8Ksapt2wLJ51mJJXCUx7BbxjonNr/x0kToNznxzAt0ukCSVfBHzmzP+dyMdKmiav4iXi9kB5mPO0gqSX4/QE8HgvXSZMaSZF2vARLAvh8GrIkTZVynE+Szh2No0A+n2J8PAsE8EX8+I0Z1ltmjHg6T7qgYxh+IhH/mfdyMdLpNEnLwO+vIOAHSUqTi6dJp8E1/ETK5xa//9QGcJ3T0+ctD35/gJISz7R40sTTaQqaRqCkFN+plzNjpGwJXQtQ4pk2/evKkU6niMdz57+l+zH8pZR7HFIjw6Q95QT90/YT14V0ivF0CikQLC7XXOKfJp8YZuz4Fo5XvZ+VtSKBFmZmOQ6pfIEUBhWGhHFR98Ud8qbNSNIGIGDoBAwZ/Q3McLIZk4IFqqHhNy48vfDWc20k0E4eMzXMzs27KLSuYVFdNfW+qy/0fHqMvgNPsd/zQW5rC1MVmOeRwJxkpOc4h/rj6J0bWB8x0OWLTaEtHBwK6BiIRPyadhH7v2PlGer6JQfl21nc2EBH5CJ+LzkNbaKRGz/8CW4oC1By6vXMJPnenTy9rYvam+9jeWMdNUZx/+/d/yTbWMc9nW3UZoc4sX+Ivekwa+5bzkJAAeJDe9g/FCUdXsV9HdXke17kpb1R7PJ1dC5dzqLaHGaii52/3kW33MHKdZ10tleiSQq2YxeTu2kkQJam1T+bk0RHjtN19Ah7B3P48eGtbaS1rZWWqnLCGriORX78CEf3b+fEeI7JjA+vUUnjquUsXliJT5Wxxw9z5MBedk+U0rL8vaxfZKA7/fTs3sP+blAaVnD3OxphjvErhTSZkUN07d1Gb1Ijm/ERjjTQvHwRbU2R4u90/Dh79+xn2FfLkhveQWeguEhjJzaxezJAac1ybmmumdv2M0fpP7qXLa/1kvX58HPmOKCWtbGgbS031tsM7fwl2/03s3xRM53VxUzAtU3yPdt5aW+U4IoVdC5tpfKc+ONT8S+aHn/dLdxUdws3AfHul3n1ez9msyxKa4TZ5XMFTvSPsker4c4alRrPfM9WNpPxDEcGU+xJunhxCAZKWbHAS2PJG1Wl6jA6OMlgWsK3oJwVMybQxX4beWR0RL3sW9HVl4XOxIyR7/slj/6vb5C456/56P3vpL4teKWjOk9hvJeTT/2/PN64mmU1S6gKzLPJJdXF4ed+yPefGiL0sTZW3VuLfjHN2IBjxkiaUQaVVtp0BVVk0Neui9j/nUKG0d/8Hb8tLUH3ReiIhC5fPIUxMj2P8tV/eJzO9GI+vbGaqgaVwngvPU9+ma/wdyytbqTW3sOOF1/mB0cX0nDfcpopJtCJfb/i+a0nOdLcyHsWljK67xd855uvMrb40/yHYAOLygtkuzfxza/+EzuqHuT/qqyiob2ScoqJsouDM5VES5J0dvKMgzn+Gpt//EP+96O7GVu8kEV0cexAGSs+9Dk+/OH38Y4qCTs7wYkn/oI/f/QYWbWCasUmMWbR1/oQX/u7j7Iy4ifXv4PnfvEdvnWwnNWfXM3K1kb0aBfPP/ZvfPcViYq7P83Km6phLvG3leEZOcieRz7PZ348TENjC6HEOMO5Krw3fpi//asPFH+n0Zf49WP/zmZ7HR8IbGDJDToyEH3le/z8RAcL1jXOPYFO9HL8hZ/z7999mYEVK1khnzngh+sTXK+3sb5GJXbga/zbeIoHtftZXN2IAjhWlqHd/8S/fLeKVb9fS/OSJrIjXex55Av8x5/2s6C+heTkOEO5Ktpv+ghf/tIDLNSK21cQ5iOfytCz8ziPVoRZWRqgxjPPvcjJsHN3P//67ATJlRW0kmEQGc2j0DjL3ZFLV6CnZ4hNMZVQuJwVkfOncP8Pe+8dHtdxJXr+OueIboRGaOQMEMyZYhIVKFmWJSvYli3bY8/OeNe7s/Pe8056tt+8fR7PG+/seMZpbMkj2cqSRYuSmDPFTIJEICKR0Qjd6Jzj+wNgEE1SAEVKonx/34fvI7urq849t27dU6fqnEqniCbCXBBpKZaJ0Qrv4E8dd4YBLc9GW/llfvCTlWRsxSgN2o9botuDYSFrHiliyfoAIrsNrfzmX0cTLTs4tH8L+0r+mX/cbEN3k4a4wCeAT3D/P7p7L0tr86gvqv7QHhaH28OY2wNxCamxYTrTKUJXlZk2lMUzWTeutXXDydndb9M8rmDeX77AdzblIyHJuf94ml9PnuZAcyNr12uJ9L/Bj585R8Hj/8Zn71nK0lwH/afe4Zn/9At+/tZK/vozVWTP1BiKxugccZBKFYJrnLFQAAd6rj6c+Ibyh3oZatnKz18dZ9X//Xu+vsJKia6b46+9zJbXX+TH76yYfk5nig9097J/z14eXnovtg+lVTO2wnt55Dvf5+FcuGibiMQyZHIlMsIsWHIf+h85GGhyMLDSThmQTiUZH+kg1rSSYruN4lAv3S37+OUbRp74x1/wYKUJq7ybE6+9zK6tb7Cl+TG+NR80sg8lrIDA3HGGuRCRMFxdwo8fyKEIADHKj9lr5JsKcuRwG89lNfK387Q0GAQf9KeNO+OOisSIZBp0FVXojTrkkk/pVE4sQ27ORl9cgk4h4cNk5EonYsTCfkKx9NUr3gJ3Gp/g/h+/sIUzZ1s5N/Lh60pPeQhMeRiLRZkYGySeTl13v7NYLEEsliASXTWEuc/T3RXHnyilqakcs96AQZ+FvagYVSyJd3KKqViEhGOEltBySurslJaY0BvLsRU2smhJgI7RUQKR2KUqM9Eo8eFRJtIpxpwOAkEf19qUcEP5Qz4CEyE6kmtYtDQHm82I3lRPaUUJJZU+WvodJFKXa025WnGc3cK7bRBLfhitipFIFGi0BvT6y386rRqlXAwyGbL5K1ikPE98cIC+EYAAicQ5Tu2PUlFQgz0vF0kmRSoRIxwVo9KZ0RmMmEz1NK58jM1ffIxaE0jvjLeJwKeNdIZURkRKKkWnkKJVSDEoxCg+5nEynUkTiyUIJjKkhJfwp5LZe6CjY7gGOzh2MkzZo3dTrFSgArz9rQx0djJm3cD6eUYUkXZaTo3gBfT5MXr3H6VtHBJZNSxbv5qltWXTnp10Cnz9HD6wldM940wGdOizqmhcOVOP7MrROEws1s/e13tRLV5Btd1K7tUrM/4hWk7t5di5DgYjOmS5VdSbXVzoMVJ71xKWNqoRD3Zw7ISPso1ZjBw/xvmeKSbJIbd2EfdvXkMxM0uQoQnGz7dy8ngLxyadgI3qpRtZtbCEkosNp2IwuIut287SPhGA7GKyjSJkcM2X6+yYoL/rAh3dSax3raHJAJfUcFH/HyD/2JEtnOsf5XTrCVpbnIx2vsSvPVpU8iwqViyh7qL+Z0vUg2vwHPv3b5u+j6kc7HUrWLaknsaSKzyhV+rfo0CmtFP/4L2sLc/Gooox3t9GZ2cXXl0B9OynK1VGbbkObXCC1pYggaLVfPnRUqbOHGQiJiMSDhAYG2RAVsNDi6FzXwd9cTtlS1dwz4oy9NfqPzlVNN63gfV2IwqJGEIX6D9/gd7RGAVL1VzYvZ/24Th+lZ3qpStYt6KJgrnoIhEm4brA2d3HODQ8zFRUQ7Z9PguXL2VVrWG6zEgrh1u8RI02lqwo4+LGiZHzWzjnz8WQU8+qkrl6kGfR/0cOcvjAKY53TRDWZZFbWoc+niBxlfwxVzd7d79Jy3AUf9T8h/LPGhmwgGUNTnzRcVr6J5ifP8cqrqSqBntvBM3QAOcnS5FN9NPYMI8ziTluPXENMTwlI2jMo9B2OWTQuuALfEYNmIqQxrw4J0fx51WRa9FgVAAoUGmslFTaiPSM44nGiAJk56ArVFHffZou52ZyRoewmA3YE8Vzkj8a9OMJBIgU1lNikqKSAqgxmnPIzTPiHxnFnWqa8UAXY7fJKS0Osv1UL4+VldycTmeDSAKGMkpsUU5EnYy7gpDlI957mn3jDSwtyyc/RwEyE5rsHMosv2ff9rcolS9HVVpAVnE9TZYyoporxqo54SMUSgDTAYkCn3LSaXC6eKPZxzlfEvRqcjQg56r3ZiKB1xnkRLuPPZ4osYyc0gITqyr0LMiWXK6nL8rIgIejwxEmMiF+szuKDjkVtVnMt8qxyYBUipg/xPaWcc5MpfAl5ORa9CytMrGuYMYECvs5cyGKR66kvEqPfUaMwa5xehMKTNkz7c6C8SE354YDHJsIc7o3TffoBC8EPRzQyCgs1LHwivoF7mxmb0An3Lj7z7LzNS/3P7CWvBkDOjTRQdeptzlRvoRV9QYU4X7aD+/g2DiYl1RgDqZJZUIMnnyLhE6L1pxPdq6UVMLFhb2/ZV+rC29chjIzha/vFMdGU+Tkf5bqbCXqS/01RjI6wMnXtmGyVJFtu9KAyABBBk9s5dCpLrq9oJLE8Z7fzksyC0XSGmovyX+Ut397ClN8HdmREJF4BM/4GRyTDhSV83mqVItK4qL/xC6OaL9A6AAAIABJREFUv9dFm18OihSEOjm+zUMy9QCsWUCJLkTc1cbBV57nUJeGuM6IWTPGSGCK4T5IzMkquxIP411nObE9QPnCNTTop82Uy/r/YPlvLR7Gu45ydPsOdjndyFU5aCL9tB92EwoFkOjups6SBsZp3/kme1rb6YmBFB2Z8bPsenkSyWe/yPJaNe6hMxzf8S7NpnvYqB3i3JEWuisLsFsh0uek7WiIhWsfx31kKyecRiQGIzmhTg6fOkkg3oh5vJeujkG8CR1VTQXUiIY4++pv2TU0hCujRhKL42s/isM3jvLxr7OwQI0+6mCwZS+/3+XAFFxK9lSSWDLEeMcBfMkEqoIKHi3SfKAWpgnin2ij+dU3OTBuIC5LQcLB0Dk3btcUCtOTNOWAjEn6T5xhTF1BdlMZjeqL+tlPs2oZ1Wvqb+I+3KD/Z5IQ6uX4ttfYf9LDuMhMltyHe/QEzT1JPJe2SscJuy/QsfMFdpwPIZeqkCUcTJyLcNKTJrvoXso0MHunjQQoZ+GqIi44nYy2tTJg+hBpFgpqsbsG0IW66RzJIXdcwrzGcnq751Zn2DWOO5QkZlWjUV/+XF20nNVZ0//OeByMjV0gbVqAWia99IxJpTK0GjOigVGckShBAGMO+gIdjd2n6R13ExlKkmXKwa7MITAH+YNBD06vA1HWSrRi0aWBVyZXoxarSPeNMJZKkQtADoUlFubVSdh6YAddm75KMjVHfV4iQsDVz9E3nyF6aUKuI7ukhtoFDdjVYsBGSXUuR0a8jIyO4S9M4evtotc4j8/YdJg1AGbMJU1s/NxCPOf2svvNXrpKG6isnU9tRRl29Q2FuD6uNo4da2ecEpqW3U3dNfaSCnxKSKeI+QPsPTLCnlEJcZUMiyLKcCTBwATEsy4WTOAY9XDsrJtDfikZORCPcK4zQTCWQrrYQuNsh23ShIJh2s6NsnUkiUIiQZaM0j+YwhuCXIuVCgVIYxHOdfoZVqXRX2HgTg5P8l7MQKFcM2sDWuCPhzntgY5HwTkyPfm7TIA44zjh0nJlwDNOV4+GvJrFfO6pb1NjcbL/H55m23AfPQNB1uVqSMRGOfHOC5wv+x6PPHQfD5X6cLYe5t3nuhkNpbCnuMKAZrrRkUmIxq+SKg24aTv0ewZk99H06Nf4YtEIF3b8Dx5rWcS3v76eVeVZSALtTEZDOAZ7Od/6ef73L32B9bUy3Eee5d23tnH4lJsnCtWoIm0c3vEu73ZrsD32J3xrsQ6c+/jJf3uWg0ez0ZY3UFLsITy4l5+946D2yf/Klx5cSbm6hyO7fs1/2wLGlXO+D5cJhmHSfR39f7D8BSs+S8EKaDqmZK9mjF3lT/LVhwvQzzUwAyDST/uxfby9d5Ss//J3/OnqOgqDx3n7mVdoHmijZfJu6rIS4D/J1ld20l+2hmVffpJ7i9REzu7k1//wA941NaIy1JMXCRJzephUlbDqqSbSzX/HDmcJ+ctX8rnqAUR/c4JBVxKJcxzPlBl73So25Njw7vwh+yYe4/uPVlP0m+MMjI0y7PZRkjjM87/YRvLp/5PNn93EQnWQ4f1v8vIzz/KbnA1kPVBGnRTCATf9fWP09pbxN1/5BvPzA3S89F3e7ezgbLtv9gZ0bBxH5z6efWY7/q/+gD9bW0y5rIvDW17nnb3niS9+mJosBbKCQnI1uxgcT3KyfwONtXLwn6T5DKhWWSjPv8lJzvX6fzoBY/t5ZU8f6cqHeeSJz7OyyE9/83/wF6+AqOZiwSg+VyfHtr9J99Ln+f5D81hg7KNzzxFOnhtkMAzF6rkY0NMYSpdQN3WSkd6T7CmYT8XNXR2Qgzm7B5mim/4L5YSHKsldIEExNLdafD430Wj4mt/JZxzSkVSCcNB77YNXMhnwBokmUkzvnNChUBvJK+mnZaiV8IUscorCmE0QeJ97/8byJxMxouHAHzQ3/WWKjDdIOJO55IVTZhVRlK+gcfAd3mrfzMLQze7jiBLyDjC+7y3GFTCd1CeH6lVyTLUXDWgzZfV1qHuDOPv7GW404BocRFW7ilytmukeq8SQN4+7vvqfyX79Nzz3Xiu7Ono42TXMsrV38+D8egr0c+8/eEc5f/o9WgihrBYM6E81iQRhp4sfnY4yb1UFf7LITJUixMFzw7xzEszVM+XiYVp6XDx3Jkjmrgq+VyNHF/Hw4q5Rjp1PISky01guhpxsHskBiuUomwM4Anqe2phDIVcGs2aIxOIMuqKYqyv5ZrkCe9rDlkMTvNwxwZ7FVuw504aQPwi+PxgSYvhIMpf1udwiM7lFZhZPujkQH+dX1hy+uFBLk1EwwD9t3KYgwjxqGurY9PhKGrIBcsiyytFciqgRgUiKUqNlyj1B/4CDYWMexvoHefxfNKhUsjkOxGKkMikGrQqVQkaKDFqdBdmUB28iThhmlkY1KFWNfOHrm1lTacCigJhWT9aV0UC95+l0i+mJxVF0vsmvO6c/9kSlROMRgiEfmViUhNNJT8mTfHFtPcVFGtSUUT/vLr5Q+S57b9tzMgv5byHpoQsMjSYZsm7kTzbMowiQmVey9pEcqoKQtgDJBOmWE5wKV1PdsJrVtUXkAalFm/nGF9/iW/ubae/TogFMFgtrH7iPwsIR8svkLLQ0UFuznKyp4PvarZrXQO3yZdjiPuzVctYtvJdy+wBhdRsEIBPwE+0+ywHu4s+XLmNBkZU8rJhWbUQ2dYCn9uymd5mR4lwAM3n5WWz4xr0szgOlOAuDSYPR6MM5F2W4JvBcGOKguIQm1152vC3lEODriyGWSXG7J0inC4BKSutlvOfrYOeBdr5cUQ/NR2i2lLCiJJ+iW5gMA4B0ivT4MEPZG1i+YjmNtQbkKLDPe5Cnap9nzyXPoAixRI5MpWZsfJAL/bnkVNiw3f0kjz6gRq28yYAI8woWLunB914HOw7Ksd90EJkFs8WINNFH54kjDA7b+bolhWKO+avF4usc552MMD6WIi2WkaVQk20rR9whmj7BcKZIJpMhTRrKbJjVCtQBAA1KZTY2Lbx76k26O/VsLNJjNMCga/byqzUmzJZCGEuRhivaTJNWSBCX5ZMtEV/OU60uJrsin/vX/Izv7DhBrtRH+qZukInc8vt58sc/5FHb5SDCq8mqaqJcdILhyX56p0wMnRmhYlMTRQb9dC7qTJpMWkRGUkzDl77HP31pggvbX+alF1/jpVN7GfuL1/jOagU6uWhuKTPL7+L+pypYg47c0pu5PoE7hUwyRdwfpyvbxp/U6SizSNCgZl5xFl/Pm2T7xf49FWHQneBEWsqCqQmeOzxtEE/4IaXO4AnHgdlm15CQZTHz0AN6NiQziANRRgMRpiIREmkY8UP6Nr0/BT793CYD2oJWYyH7ut4EBQpVJQ9867+T2fE2R3e/xreedeNPVNF4z1/x7T9dRIlaNstHRALYqJ1Xw7ZDZ2h/J0iwLMDQtt0ULfgCxQYDl31+KiTiYvJzJTd+MedZyM8u4K4VtZci4NOLl5Gx2rDbIRaL4HAMkk5duQ9Si0JpJb8QJLfNgJ6l/LcIr9eFVxRHUZxLLpcNLKO9BH1m+oN0PIXDMUAsrxqjSTenmfrNEotFcEwOk65YjUWj5MY+ZAMKhZb8PBB/2CAnjRJZfTkrV6yiXClHBWSWriQtVyAvAeWM8Vg8fy0LOo4yeayF41+pgBPbyCr5G0ptuZdzKd8i0qkZ/ceuXENXIJbYyC8Uo7j0EGmxFi7j89/6K3h7Kwde/p/8+0AIkWEdqx76M77xpXnYuDkj+uL1dr7ZwvHVvH/f9VzqKW1A1DdJW+tpjFVPYJUOM9fzCaxWGxpNFN/VX3S+xPO/HGAsdwlf+WoR0mQauoZwhaKEAAMQi4YYG+kkndrwvp/qDRbmla+n93/sxW3+POvN6mvexw+UPxwl3TXMWDJNGUxvgQtM4Zrov+a16K351N/7NPXfPkvfPB9jFiicoz5mjaWeivJ3cE8McPL0WrhQx9J5RRj0M1cQGsc/Nkynx8aC+TZkMivF67/BEwop6t89zwtvbOHxJZ+lUq6ctWkzjZViexYZRHdIRLvAzRJLpBn1REinr9yWJUUhk1NgAcmVHUArw2RXcXeV8VJsUrrcRFolwzKnIB7wTYU4uLeLv2oJkmdSUVqqRy2WkW+92ZFKQGCaD2lA+wgF/Uw5gfIrPxcjEolvYLAkyGRc+EJqau79E6ruTZOKjDLUd5p9O37AtnPP81iDkYJZrXYngXZO7Ilg1WjQmxNMjCmx3fsDHl5WTblFeZVHRIJEwo0zXLjE6Cw2Kpcsp27mo6njWzg9pMKhgJpCBVZTNuL+cdzhGGFAT5h4zINzAtLFN6j7QzML+W8ROp0RXUZGwjHFFFDA9EDmOP4rtrc7GbE9xnfvtmGx5iF3BQn6wwQBK5BOp5h09BLXL8Wg1aAP3rCpOSGXK7CachAPOfFG4kSYNoDisTCTE32kc58gS6GYMaxFl/rih1ZZRIRkVElR42LmG9UYgNBQK30dXZyNVbEiH+QSkGRVUFB8CnvPTt47UwU7bdi/WUx+ju6WGwkisWRa/xN+At4gfiCLBJm0k8mJNPFLe6DDJFMBwqkclnzpv7A8HiUW6af9zDHazz/Du20/5qlqZoLb5sbF682XH2X3IYgvu7lrkZizMU6ZyZMECBUVkCcenbMBLbbkkqs5iMPVQWcvzJ8Zl3raDzEks6AvslGlNRCpX0glHQSnogTDgDpELOrCMZomlZtLluKiBxpEChWK/GJKkkmCORb0ejEEr06wd2P51dZcCsvKKYkPMDGZIqYF5D6CAS9OjxSxLZccseR9JyWKlEbUxYtYbv9r3mmfYrAMlsxRH7NXXC5ZFiXBY7vYdtSLrnQN3y9UYlBMPzXhyW7O7NrCvxys5D/94qs0GVRo5WpUKiVKjYyE1IRFJL6JE2LFSCSC6fzHgFwqJlsrRzwZwxVPz0xcU8STCSa9V3mCI6CKyqgoN7GI6Vgg34ibFneMXtSX4hk+kECACz2T/GOnki8+YWe5XkauCoZ6Jzje6ePam71geo0ojtOfISScAyRwHWY/cimUyPUSzMlT9JyaZGzExdDJ/Rw9eIwDc9ynCCmSCS/t+17k0AUXflkeRYV2iswyFD1dTLhTxGe95S8N+HBNjOLucxEaCRL2JAkGlPgDEdypFNc4yPb6FDRRnxdHOXaGnfv7cSWjJFyHObp3B+cHpgiJtYg1OrQ19cyPHqfjUAsd7SOMtp+mefd2tvZ+2LRTtwalSodCpmPofBfdTifjUxcYGh5hcnL2lqzMVkd5qZGi4H6e/c1R2scmGO/fw/G9u2huGSMlMyGSylHWbGBF7hDDpw/y9t42ukc6aD/6a549rECfU02+1cKtTA8r1pjR1a/h7qyTHNl5kH0ne+juO8aJI+/w4ikL1TWNZOm0t/ZQB6ONrJISVitPsO3tVnomAoQCXfSf283hw2fwSMxkLqZUk2WTW5CHzTjBjmd+xY50A7YCK7n6W7/gI5JKUdbMp1Z8AefpM5w5Och4fxfn33mF37dHcV56Q6QIugdp3vMS+0bTiHV2SuyF5MsSiPoHGfdB+mYzLcmyKSkvY/HCHJzOK2IkrHlkW8UYx47x4nPv0X6+g+5TL7LjRCv9ARPV9qL312MwYTCYqdZqmd9Yj1YmnfuEw7KIhloDRt8Rdr/wIke72uk8/nt27u0ipcyloqIEvcqAtmwRi4sGOPvedna9d4QzJw7SvHs/O4aKWbNqHnkm7WXvgkKBJLeAYrGEpoqK6/fnG8gv1duwlJbRaGlj+5bfs//MGVoObefowXbagmXcfVcDOvlV1ytWodBXcM8mOxKxknBkrsqYJhEOM9HdSU9PJ92X/gYZGbnSTy8nv6gMs07PhHMSd3ElxRoJqhmBpCYDGosScesWfvncAY6dbKX77D6aj5/lwqiW+Y0NaKU3cb/8rRze+wqv7z1Im//mrk/gzkCskKLN17E44aX1fIDW4SjDwz5Otjh5YxyiF8cNg5rSLCkVcR8vnwoyHE8TDflo7nZybDCEXzyHt0kiQSgYoTuQxqTWkG+Q4Z7wcqTbw8kru79ahl4eI+kN0jUQZ9Ibo7PZwVv9Mbr/cK48K2QSCSaNghFHmC5PjOFAhGF3hMGpT4CBIHBLmP0bXW7GkF/MwqVxzhzagWRIhV7kYzSiwqCd3mN80cOn0oL6Dw5KM6FGhWqmWZFIh04rwt11lBOOPvpVUUJTPmT2z9CUr0B/tetJJAKLEeTXeXiMWogZ0WqzyVaLyUxd4NSec5xyrGdDYxVNapDKwWC52nurRooJw0X5LfUsXb+I4N5mzh3eyrvBfIzebnqiWeQW5lOaowSFAYV9OU88cJY9fc0c2+6gVxdjwpHAoLeAWHzzrn2VAozXPmVuVvLPoMkpp7i2ifL39nNg7xBmaQitsY6qyiays2cZyGYspXrJYu5xu9h+ZCt7UqWYo4M4ArkUV69iea0VxGnIW8o9D7aQPuJg8MDbbOuTEx9qYarkMTYuaqQ6R0HEoQKt6XLdWhPIZ7YdyGWQZZyOcLryc6kc9NbLF6xTQ0YNCgPKnBU88cQp3jzTQvs+N5PaIF6Hi3j9Uzy2tJRcvQLCoFCB9g/W23XISTOncD5NHjl1y3j84Q5eO7eXY6I++uUeAiNeYpYKllbokF6y2JWY8+zYiwvhUDfc9QXstizMH2bbzfX6v1g2rf8N7eztHKB5+1b8+WLcjhAKrQWJVD7jBZUjkWrQKGOMn97Jgb4sdLIp3MMK9EV3sSBvbnl8xWKwWC4G5ikxFdVTv+puFh55m1GReNrANJZRPb+JtR172Lr9bXZOmVCEz9ISMJFdvZp7aq2AHzBiRIZKaUKXY6OiKoC6yoY0JMGoBfVc3NDqEupWPYA7uIvD3QfYtn0Ik7eXCWkD8xsWsazYBJIEcksDGx9fReDMeXoOT+GVpEhORlCueIrHl5WSo1eQRI0aNUaJEomxkMKybLJq88k2pwiMTg8500/dLOSXvz+Lxal9ffQH3bj9BnJXrOaJRTaUM4OGTjf9B1IkcguV6x9iwSEPwYyKuZ6/qlCBVDzFhcNvs9N4xT2WZ5NbMo/7C+ahvXgVxTUU1yygcsiLsbYag0R6aRIqNxVTumAdn98wym8P7+GAz4xFFsbvEqEr38TGRTYUNzNLdrVyft8WjsUb8GUvpL5+1ukVBO40ZFJUVhNfWeBn+4SPw81RulVpxtxpjGo5iKbTwKLWUFdh5MFgnLe6JtiW1mBJhBnxgdKiptHyh64RtQzM19o7pFSSnaPjwUIvXeedxHUpPKEYvXExSbkUbyRJGikoVFQWyRjsDXPk7CRRc4ZUNE1SKsMkk3DNJDMKKciv/6ZXquXYy7JpOuvjXE+cyZEMBoWSwmwj9qw74ww7gRsj+d73vve9a30RDof56U9/yub7PkNhQRGgQq7UYS7IMDA8gtftJF28iKqaelbkaNHkzaOxWIM0NUUgnEZty6eg0s7FlZbg+AQZdSn5BXaKrGokEi359mLkgREmHA4Gx4LEZEWUbfoGDy8yoldeaQ4mSadDjLpkWBobsGfrMV4crDNJ8Lex+4wIY+N8Fq+eR1VuNnmKKM5TP+HlwVwK84ppypMQj4aIoKZkeSM5chlyIO4PEgtLL8svUWEqLMFuUaL39HB+2MtUuIC6ux9hw4p6qqxyQIZUaqWioYSYewSny4FTk4upeimPFCtR2ZZQV2xEp5qrDzSMP5gkLM0ir76akivTiqVCs5R/+gdSrR6D1UCBqJ2ubjdOZwC1xU5hsZ1s/Wx3KcrRWvMpKs6nwNdO16gbZ8BC4cJ7WbthJYsKlEy/elVkV9ZgV4XBPUjfRJK0uomNX3ua++rM2DQJwpEwQZEOdeFCGqxx/P4A6axabLZsrIoorrCavAU16NNRlNm12Gx55KqieCMZ5MWrqcmOEQtnwFxAfkUpdp2e/Mb5FCVHCbocjHgUaAtWcP9Xn+S+Yhk6OZD0E4nEEOmyKJpfjZXpJZfIlJskWWTZqqkqmG3+LSlKnZWihjpKgh04Jl04PBoMpatYs3kz68rU7zNApbIMMoUCmchK/X1PsrxYh+mmDegb9H+msygUlRciSQeYGh/AkZGTabiHzxdJyCpcRJk9h2yDGqXSQH5REZLJDoZGnTgmo4iz59Ow/lE2N6ivMqD9eEb6OL21lcTSAiR+N35fnGRGhk6eJB2axCkyU7OkgUKjHrVShURhxBxIY7DPY3l9HiadGZMlj4IiE7j6cccihNIGipY+xKYN61hVoIR0mtiUh6C4iJqSfLLNCsRGHXk18ynNjOCWWCkutWO3mma9nUOTU01xYRF5ch8dQy4iGTUN93yJDSvmzTy/EiTSi/1nirjPx2RMh7Z8Bfc9/SR35crQSCHpDxCOadCbC5lfYSWcDmNtWE6xLoVUlEGaVUB9eQHSKQ+hD5TfikFnpaihnpLgIFO+CN5MNvmLN3LPw/ew1DzzrAcdeBJSDPYSyivtZInFYMpB7U1gMhdTUVFKVeEsIw2SfiKRIJFUmnQmTDQSJhye+ctIkWVZKa8sQs3M5FsjIZWRoVfYaFi5iXk54iv6hAq1NoeKuiJE7kGC8RD+pAFr9VX9PziKwzHK4OgYwwOdtDcfxF/5dRYUqDFda9iZusCFk80M+dUoK5az8qbz4Ql8EnntjZepN0ZYVGwAxEglCqqL1MRCUSYCUSYUCswFJp60ilGbjcyzytDLJej0SkqylRRFArS740xG5NjLrGxqMLMs66qZfjxOIAVSrYr5NtWlCSEAMhk6rZJGdZK2qQiuQBKtzcK8YiP1eglxjYbVVglysQyDVkxKkmJoKsJUNIWyOp8NBhGlZg2FFjUl+ivbTeOLpojKlViytNRewxsjkUnQmVSUigMMT8UZcScRK+QU5Wqxa4WMHJ8kTg/66Qxpefrpp+f0O1Emc+0jcpxOJ3V1dfz0x79i+bIPk5ftNpMIQfO/8JXXlDSsXsWja6swA6lYgLHtf8P3xu/h4fVreXLhhzsQV+DTSIZMJkEkGCV5g5OiRDIVcrmcW3MaeppUMk4kHLvhgTtihQaFTHqTh1PcChwMnnqbf/+zf2Z7VTWFEina7LvYuOFenr63/IN/fktJkYjHiEUT19eZSIRYoUMlE809ldodxSe8/7Q9y3+8e4zd7R6CoSDDE27u/dttfHOZGfs17P50Mk7Xtl/TE5aiWvd17p5jgJjAJ5vPP/kQj9vd/Oldty38VUDgQ/OLA8Nsmchh3759c/rdnb+OIFPA/Ef45tjb7Dr67/zdluD07FOsIJ3zAF/60mpWlAujssC18BEJHudnf/sy3YEI19tial3xNTau38R9tyTN1jgjFw7w7A9/zxBwvfMx8u//r3xuZS2L825FmzdDLgXVn+c7v1rE4zNRqyJzDllZH0ei3n7OHt7B7357iNHrlJAo9RQ98k98bZH+mobap4dPeP+pfpJNxvUs9PnJpDMgElFcpkdznUUvZ+deRrTlmMuqWSLkgBYQELiDuPMNaCQgszNv9WPk1wcJRmdS04gkoMwl32ZA//G58QQ+0WhRqBbx6J8XEEqmruvRkxvzMZtvVZtZZBes48t/WUeUy/mAr0ZhsZNzq3PezQkxErUBXVUNlRc/ksmQ3L4cjTfARlXTZ/hazmpi1ykhEktR5qjJ/tRvof2E9x+pCmtOPmZLzvT/RSIUcsl1swaZihexsECKRKFBLgzTAgICdxCfAgNaBCjRmgvR3jIjR+CPAykSaRb2qtnmRLoVKFBpcimry/0I27xJxGJEStUc8/reDtTozWr0ZmEZ+E7oPzKZDJlsdhGFcq0FYdgWEBC4ExHm/AICAgICAgICAgJzQOrz/cGZXQAEAgEymQzt59s+YpEEBAQEBAQE7nT8fh+9k2EOdrs/blEEBK5L72SYZDLJ9ezh6yE6ceLENbfReTwennjiCVKpNDLpp2Cnh4CAgICAgMBHhj/gRyFOo5QJadsEPrlEEykq6+bx85//fE6/kzY1NV3zC5fLhVQq5Z9++CMWLVx6K2QUEBAQEBAQ+CPh6998is8WevjKivyPWxQBgevy3JFRdnl0XM8evh7S6wV7SGe8znqdgSzzRxlkJSAgICAgIHCnI5PJ0CqkWLQf5hhWAYHbi1YhRSQSzTr4+SJCEKGAgICAgICAgIDAHBAMaAEBAQEBAQEBAYE5IBjQAgICAgICAgICAnNAMKAFBAQEBAQEBAQE5oBgQAsICAgICAgICAjMAcGAFhAQEBAQEBAQEJgDggH9R4LfP8TQlIfJ0MctyexJRMJM9fYy5UqRSHzc0tx+EokwzqleeqdSRP4IrldAQEAgkUoxGQjRGcgQTn3c0tyIDKl0nO6JOI54hsjHIIFvKoLLnSAYu36ZRDyFazyEy58h8YnW553PbTSg46QIEQCuedThx0YGCBAmSfzjFuUjxHn+XU6ca6Z9InoTv06SIUCADB/d8xgn7L5A++4XODYYxf9HcLNi/jEGT/yWnR1OpsLJm6ghSpwo4VsumYCAgMDtIRqO0dczyjsjcVyxT5a18D7SSWL+ANuOeDjvTRD8yAVI0tc7wfHBIL3XdYSlCQXDnGsZ5ZArjVdwxNxWbpsBHfMP4xg8zpnJKIn0J+ehyKTi+Ab30TI6zsRNGSl3Jv7WbbS0nKJncu6PfTLqwdW/j9Njfvzx9G2Q7jJxdx89F/roHJlgcrKTjvde5L3JKE7PKMNdvQwMOD+GgeujIekbZ/LICxzqHMV7Ey7oiKuDgaFWzrv/CGYbAgICnwoSkShj3aPsdURx3+b3y4cimSLuCbD/PTf93sRH7IHOAAkGBiY4Nhak+7oe6DShUJC2Tgf7fSm8ggf6tnLbDGjX+f3sf/4feGbPBNFP0EORjAZp/e1/5re/P0rroOCrmw1BRzcnn/1LfvFOL6PuG6wd3QLmije0AAAgAElEQVQ8zc/zy2d+xT+9fJLWwQjxRIZU1M1A6+u89P//khdfOkb/bZXgzmX4yMtse+kZthx3fdyiCAgICAgIfKqRftwCCAhciXX1U3xRuo/dr+/k1ecvkE56SbGZfbLlbNrwII9vXETNxy2kgICAgICAwB81czOg4wGio2d59ZWfcrg7jCeSQ2HVXay7714eXJoFQM87v+Dw+T6OnD9PV9cofu3/x9+3KlDIcmnafDfLljRQAKTjEZyHXuJ3oyUsqNSjDZ5k66GzdGk+y19/az12jRy5v5X2E620DKup/+pnqZkReOTIFtoHQ8RLL7eLu5vDe15lx+GTdE6qkSurWP6Zp/jcXYXYzHJc549yZu8W9oxGaTkcYkz0BlPNxzhiM2Etrmf9FfXPinQSXO1sffMZ9p0dZNhrwpSzkFUPPsZjq60o5WIYOcjx8/0cGBRTljjLlmP9RBP5VN+9mXs2LWdVgQHScXDtZeubo8jnL6FuRj/JaIiO139Em/Y+GhfUUlekmf19GjnI8Z3v8squDhwyJSXLHqHU5SKkn5v8I0e2cOzEUQ5eGKPtZJgJ5b/zr616rEYLZUuWs2rzGiou1vcB+p8tYnkhlWWNBJeMMuJoY3uzCNrN1HxhPcsWL6E8xzJ9jz4O/c+i/8+aZAQ6X+KZ3xzi2JAbCmooKTKTC7xvvSbsxNF5kN/97nmODkA8VUT10hn5aw2X5Nw7FOJk8xEuOFLIjv4jf3tMBdhY89XPsaA4HwvMUf4Q8bgPj1eC1WJFLBbijQUEBD4kqRSMOvjJQTeHnHHI0lFulWHjqnEvFsc16mPncRevOENEU0rqKnN4cJ6JdQVSSKVhdIqftKcprtCxqlyNAUgmU7R29LE9aWV1oRJbNMDxCz4mNWoYGOdYSsfKYhmmUJQDnQnctlz+3/uyKFaIUdzE5YQCAVr7p9hyQcLmlTaazBJ00ggtvR62nfYx/r7ScmyFJpY1mlmtnfkoGGJfi4OtnV7afRLkci1rFhfwZK2SAu1tGHMzGfAHeOPEMDv6wwyG5JitBtatyeOpfDkqiWi6XCzOyKibl44Pc9AJ8ZTq/foXAOZkQEfxTbZz6ne/5GisgbplZoxpD+6BLjq3Qm7lF2kygKmkkTp1PhlpHHlskq6cBSxdZkIt15Ofa+Fiv8mkE8QmT3DkXCsdPUoqsxTI8hax2FqMQSpGApDwMn5hiHNndRR+9XIwYtjVRt+QD59xHQ+SAvo5/NJ/sHfES9i+lNXz9Kimhjj52o9Qqv8vNiytJDsrD3vTalYW+FGNvMUJZQW1CxtZWGxEa87Fwlz2s4SJhTvZ+68/40BGjapuDesUkBgb4L3f/hPKrO+yvkqLJeJksPUA207FmL9sAY0bahA72mg/u493MmKMn99EvSYFsQnaj/VhyKqmZMmMflIxfIM7OWeaR3ZVFXWzFc3fyuEdb7H/+DgS+1ruq9MipptDR4M4C6EKgASJ2Chnf/cTjjpzsdRVMU8RxTs2ztEXXia//BsssqnR5pVRMV9K0tCJcvIAJ8wNNC3Jx56lx1KUjwmYHva8tO15gaM9EdL2DTwwT0x8aoSTr71Cbu6XWDW/iFzlLMU//y479rXTPgG6xhWslqWhdDO62FmO7PbimbiLdYsqsYo/av3Prv/LZtOJEj6iY0d59Zcvcz7eRNmCRdhyU0xNtLH1LGTyLxYMMt5zmCN7dtCiWMXajSbkoVG6u45xdJ8YY8EmalUyLDXLmJ8bRxIdQKqKECtezIrlRkCPXa9FBVzv+R0d6OLoteT3DjN4dgc/3znCsie+y7oKLRbV7O6hgICAwB+QShDxePnNbgetST1VpQbyjRlcvgBvDEDafLFgjN5+F7tPeDirNnJ3gxZZLEKHY5LtzQlQ2VhnBnRpPP1eYiopRYVqGhQp4okgRw/78TVaQAIhb4j2zin2a6T8bwVqpCc9bA+pqMiTUWxI42hxcXa5CYtFjEIyt8sJ+vycbXOz40KSsgojuSoxcjGAFItRy+IqCf6Zsr7hCbaOpvEZU2yUXawhwbmWUQ6Op0hnW/hcsYh4IMqRow7yjfmsLVFhk12z6ZskRSwWZPu7g+xGgrowi9VAcCrM/l19qDZUcI9NSrZ8Wv/bT7g4pdaxsEGNJRal90r9z9Ff9GllDgZ0nLBvmI5T79G14Gt8ce0ilmRPMNrcSkfP5VKW2uVYaiFfNYEs2E6gfC2bNhWgV17dOzOAF+/IIN7sBirnr2DD/KUUGQ0YZZeN2VgEgt6rZQkQJzAdTJZOwMRxduzpxt20gfUPf467C5RIx04QH3mZSDxFMAElOcVU5RRTGprC3P59XKZGFt51D/fX6K+u/IOJ+YgNHuXlt/uw/B/fZuP9a1hijOJuPUjyuX1MhtLEZuITI74YQb8S68qHeHJeCaqJnbzws1c4136c40tXUl8zfaVBL6jeF5WQAZwEiTOnXceuVo73+BjSLeDRL3+NjVUKvINv0r5bifPKikQS0Nqoq3iIpvJiKqQdnD3wBod/t5WTw1+m0qKmsKQBY0kD9kIT+r5fMGxfzuoNtdTnXsOSUlspmVdFbsUilpvGGe96lYMvvM25/nsor5y9AU3YiTcuQ5xTRV1+lELvCQJ3bSLPdZihsRRRb3Ra/5Mftf5n1/9nRdxHdOQkL7epWfP0Z3j47kXYlQOcOTjJwa283xUj02IoaGRV+ZM8Vi4l7XqLZ89vpf28inbXJupL5eQt3EQekBs+RErjw9m4jvvvtf1huxIFMnMpi5Y+xX3lOszRw7z78hZ+/944J8e+SL3u/ROAVCpFIBDAn0l/hNlXBAQEPpUkkkSmvDw3LGHjuhwebzRSIg9zoj3OnlNc4SEL097v5dWeCOqVVj6bK0MdT9PX66ZtQISuMod1WWIwaanQjnHEHeLUpJ6G3DTxKR+7nUruNsgp0IoJJFOQSCPX6lnWYCTY4WUHMgz5ZjbZQkw0exgPQzQFzMGADgYC7HWGONObIqaz8ECDkVINTDtwZdgsMmwW/bTH1+vjNwMysnLU1BerKb3S1a2QU16sxZZrYLUmxpjDwe5DE5yesFKZd4sN6ESSiNPDc2fCWO8r4b4FZhbKU4z2OHl9/xAvtAYo0+sxKsO09/vZNQKNjxfytWI1ebEAu49O0hxJMXl7w6DuKOZgQEuQq0zkFJUh9XTQ0ZIknatCnVVFVXUB+aab3FAdz6Z6/v2s3biW+puwZTPJJLGOZs6ny2ioXMCCkhz0QNq2jke/kY1LX0DOHHY/zIZ0KECwo41m5VK+3dBITa4JDSCruZ8nvlmNy6LGcPEhkeVjzqni7kXl5ACygiUsr3yHybYh2nudUJNzS2WLu8Zxyu0oyxfTUGtATBpz6Xo2Vj1P4pJhJkMqy6Ny9WPIp/zEB5tpiw0y4PGgUA8z5U3PIe+yGDBTvOB+pM4pgpPnaB2awOX1I1cNEQhFicwhc56+9C7uKzCBWoFkeAdvvTGGK13KZzcvZnPQB4BWMsH4R67/W9f/07Eo4ckJRvI2UrmglLxcJUoKKatYwoPlr7DjUkVaTAULqJNY0Lk76GkOE06ME0hOkJK68fpv1MrVKNGYKqld8zDKqWGcnWFG44NMhl2IZRlcHnhfshxjIQVLP8e3cnxYqtWYhFU7AQGBD0E6mSbsizFkslBToibfKEaFikqbkUdyHWy9OHn3xRgPpeiWyVkd93O4Z9q2DUkVWNRSJOkEoAQ0zKuSsKMnTMtAGLdBgmfQQ0d+Fk+bZVhlEAD0ailLakzkGqLkmEXU6zTUWvUYAjdrCcY43+Viwp8iKNGzolxLkfYaK9iZNMlwhM5zDt5yKFi43MxnqjQYLhWQUVqajdQfJ+Dzc9YVwxlOIpdH8cVShG9xCrp0LElwNMBJmZHv2HU0GGVYkKGxG3ioVsEz7V6GmlRUhiMM+9OMG838P2Ua8gCZWs+KJhllMUjfhJ32aWUOr0U15rz5bP7Kt0m/+zpH9j3Dy71eEqplLLn3T/nm11dTJpvTJG6aBWupry2fg/GcJp1OX3rZZ9IpXM4x4pZqtHr1pS0iYokYc2khyowUhSzNrUw4Eo/HcHomSBdVYlTJueiPlamUWMsKUZFCIZnRhF6DzJZF1iUJTOgMKjJSDw63B7iWAZchQ4p0anoCOxc8HieRYJp0KjPjyBQDFkxZMtQXc0dmUiQCTo4+89/51/c6SGmzqGiaT1ZWHkVlkJrTTcxAIsy53/2cZ3YcoC8mo6q+gfyGGnJLJaTUc5MfcyUFAASYkCpQ6sxo5CIkItAXTA890fGhj0H/t67/x+MxnE4H6UQZ6UxmxvGiRq4wYc2BS9uNUzEcZw/w++d+wrNt49RX1WBftgyp0UDWXPWaTuAdbGfnv32Xfz45SEFRKaWLFqOVW8gtdF7jBxq0Wg3z6ufYjoCAgMA1iCfTTPpjpJNq0pmLDmcJcqmMbOMV4x6ASoopX866KjOlTI+r6TITCbkEvflyserqHBZ2eel3hHivTEmk30N1WQnFGikabkea2jTgYc/pLB6frySjSnL0vIvemjyqZaLLBlUmQzIaxTE0znd3x1n0uSIeqtFiv7KqVIrTxwf5ydkpuhNi6ov0FNg15OdA6mY2ZH8A8WSayWCctEWDWSbm0iskA6l0BsQixCIIRhL4RRnkJhnZXLactAY5klSGlCgDiG69gHcgczCgg8TiTpw+LfO/8SM2iEVIkt2c2v86uw//lC3Nq/nWfNDc0j0718KJxx3CMzX9P7FEgs1WjGLMi9cTwAdYgUTEy5lfbOZ/hr/G5+/dzOMLr7GkfZMoFCps2YWIexy4QlFCgAHwjzRz9Ld/zt/zff7lSytZBOD2ExsYZxwoACQz8osSWkpyrNdpIUY65WB0OE1sjt5zq9WGJtDP2PgULiCfFOBgcjx2OX+yf4jgsWf4+23ZfP4Hf8k9i0opkEZx9uxn+8nXGZlLg4kwNP8r/74rie3B7/Pnjy6hUpoiEb3A1gOyD5FyTou17B4e/+EqUgojyiv61cej/1vX/68tf5BY1MnoMKQujrKDuzh68Di7Ipv54bavsFgqRSmd4uRvujk1fqMWrsFEM33vbeGfTzbxFy/+glVZekzSAD17f8PB3U7m5MwWEBAQmCMKmZh8gxLxWIyJWJogYCRJLBFnxAWpK4fjICiCUkrLjCwHZMBU3yTHxqL0RVSsuLgHV6+jOneSKa+TfZ1ZSNp1rFiuwqS6XUHPYiCbb3+5kPuqZPjbHIjPOPiHM2Z+skCBQXYxCC9EZ4eD7/5uHMt9i3igXEXFlUZxKgX9A/z4XIb8RVX85XIjNZIMiXiIN9rF9N4Gya+tf4gmUox4gqTNBWTLJBSK5ZjSYmLOGKNAIdMTmAttfTx3IUqP1c6rawQ3NMzJgM4QcPZx9Hf/xtnJ7/C5OjuF2jAppx/6w0SvWm5Qa00oFSa6Tpzh7BKwa/xE/So0aisFBYZrN3E1eiM6vR+lu4XTux6moAZCJ19k696znBA1sgxAqkDc+CD3Vf6QfYfe5jdyMY8tVaMc3MEb7zgwPFiIxXR5x7tYLCE7r4LxtmHaCnooMxlQxiP4/dnUVFuRSj/4wRPprKjn38uTZd9n18v5pALr2FgaxHNqC1t3+6n8k2q0Gi3EgcwQzpFB3nx+KdlrraiD+9jTFmQgU8/mquyZ5zGXbPnrONsLOX+qBIVqiKE9v+a5ljCSotnen5nrq6ynJus0ztb97HyzHMtCNa79v+TVYyOMVTGdAi6TIpMIEIyNERgPEXRP0Na3h11vvsC+CzD/qg2vcoWaLGsxfc2ttNSrUSGCMKTTVirsCkiECccmCLh8hJxuhoLN7H31Z7zVGqR8xdzkv0LLiKUKlLo/nIp/PPqfW/+/4ZXp9Cgbm7iLn3Hu7SYKMhkidHJ6+6u82A3G5TMFUzEScTeBgIjASISwxcmBrb/g3W2H8Od/ho1X1as35pCKBej4X+zdd5Rb9Z3//6fuVe+a0YxG05tn7Cnu3cYG20CwqQFCSOFL2BQ4ZPPlu9lv8tvsZuFks9nNpnw3yQIJIY2QQCjGwWBT3AsuuNvjKban9ypp1MvV7w+PwTYeGJkxYzufxzk+Pke6+tyXPrrSvPXR537uoaMcnqHgpA/PoANXZgZOJUYi6sEXCuBvDxNQe6nb8xJvvPoq9YF85p0fMthEU90OnnmriWn3fJNrckykj30xFUEQhHOo9BoMBVZW0ML+/Vbyk0mCBNhzqJPfdEFa+ciG6VYq84aZ2t7Hv6818t1FFoqiQ2w60M3+iJnyRWd9EKl0lLoN7OroYU1DDKszjZ84JeyXdCBPwmSQMej15BY58Pqi/HRzC6/nlXBDphqnOsSR2l5e3OwlXFTIbW4wxCL0egCdGq1RjTMJJOIE4hF8wzH83ijNYR9v7GrhxdY4k8s/KkPqVHotpqIM7s86wes79SRC6Sy1R2io6+bndSYWLLeTYVAj621U5/up6ujl0VcM7/X/xmNDNIVMTK5I9efPq5f82GOPPXahO4LBIE888QSrbrqVvNx8QIUqFgN/Ny2tjbTU11FTU0NLnwFr0Qquv7aaHMuZSfQga1RI2hjB7n00NzZRX3OYwZAeizMbd7qRZDzGcN0e9g0WUFlSSEXuBb7RyFqSUQ+B4RPsO9FFZ9NhOlQOCAexmDLJLJ7Lwkk20NtJT5OQfd30N9bS0NjIiYZBlNylrFixjOlF6ZhH3nMqCXRWLUHPSfrb66mvPU5LWzdJaynFOVbU8hi+uUpqZIOdLJdEvKuF3tYG6k800tqVxFC2gts/tYSyDB06by2HG3s5PGhlQYaP47UHOHqklUHbVKoWL2N5VTZ2rQrUJpThOloGeqk/dYqO3k76DHnYfW3o865lWlkhhRlj/E1Ha8YqJ0kEBjlRX0dL1wkOh8yYQ4NYXNWUlFZSnWdBpTGj9jTTO9RD06ljNA8G8WpdmJUAgfwbWFBowWmSR56uCo1ZQ7D3MD3tjdQfP0r3QBitI59CtxW0VvB24/V0cqqxjubOLnqNJZgiA0TzljKlwE1x2jhOop2Q/tendPx/VH5Jb8OlCdHR3klbay0NA0N0RrXkJP1oim5i8WQn6TYTxKIkvS00tDTRVH+IlqQTRQHZ4saYN4PFBe+fnanWqUgoHoY7D1HfcJL6Y4cYlrLIyMggzW4GlRqtt4nm7g5aThyhJaghJJnQa3VEc5ewrFiHTj3yBDwn6dj3On/5y3b6C65nWo6FNEPKE7QEQfgb9uLLz1NlDzG70HZ6ioBGg1ut0DYQoaUvQK0/RltcoiAZR5uZyXU5WjJMGkwGmXStwnCHj5ODIWraQvQldRQXpnFtiQnXe38OVeiI0jcYptErkTUjny+U6HCoVUgk6B0MctITJ5TlYklanMZWD116K64MA+5kmL2NcRxTnVRYJKwf9fGWiBMN+Nl1Kk7hNBtFDi0ZWjVqGQb7+jmSsDDdqcGpClHf6GHbqTAeg5pkMMDxdh8HWn3UexKEJT1lNhlkNQQjeAIRGnoCnBoM060zYY5FiaanU52pp9R89h+UOHXNZ/JbqLRcKKTCcDDM8XY/Q+5s5qbL7w98SBKSVkOODWJDIbr7A9R0BWkZlrCX5fClSgsVVgm9Vr5g/w+qDFSUZLBykvms/r867G/xURcwc//996f0uBQKaBmNzoLTnYc5ESCe1CKp7WQUzaZ60XUsKNafUzzIBjMWRxq5Jj/BkB6dxowrr5T8vGwcJi0kQYmp0NqLmVyYSabjQmtkGdCbTVgyzcTjCga9joyp1zKjpICqwkLceUXkZ+gBHfacArKtWsxygqhkx5RexZwbVzK33IXT+P47QyVJ6NJzyDJF0CQlFMWIzZFFYdlk3A4DsjSmCghJNpJeVEaOLoZGllA0mTjzZzL/+huYU2jGqFHBYC2HW4KcUMr4wooM/EEFjamQyvlLWDhrMkUmOD2XyIItw4ik1yFLEiZnNjmzVrA010J28TSKc504zGMtQE04Ml3Y08yokxGSRgvW6mtZWppFWWkF+bnZuJxWZGsOpRkycbWErNaTUTidyjnXMjvfgdk9mapsE5aRdX0kjQ5Deja5Jj+JuA5JZSLdlU9+URGZNiNYcshL06DRySQlDbbMYiYvvI15eVbScisodTvIHHP+sZiI/teldPx/ODWybCenNB+NKo6sldC6i8mvnMMNZW4yCqcxKceC0ebEbrPjdqgJJJIY9FYKZ69kRlkJJXl5ZGblUp5xVgFttmO3GXHqIwSDevQ6K3klFeRlOTFbHRhtGZRkqPEroNeZyK5YzNSpM6nKc2F1FTPVrUd95knERk50rKklPvMO5hbYRQEtCEJKzimgUSFLGvJcBjQqkNUqtA4jRXk2Vrn1uDKsTE7XYNJIGI063Gl68qUEAZWMTmdkSkkai0qtVFjPHeTSaFTodVpy0i3MLk9jmkWFduRjLJEEWa8ny2mh3AwJJCwOMwV2LZk6FWh1FOWbyDeo0H/k2NnpWdsqrZbiAjNug4xBktHo1DitEFMZqXJqsMoKsaSE1mwgN02NUSuj15z+ZzZoybIaKLLJYNBTaJbQakBRSdhtRionu1js1JDutDDZrsGlP/NH5fT/0eSZ/Drco6xspaAiqdGQkWml3CJheu9jW4UkqclwmcnTJNFIKlQaHfluBzfOcrLIoeJ0qaRKqf+vBhdbQKuSyQufptbX10dlZSVP/PxpFsxfNC4h/+aceJk/b6hhzdB0fvydW8nhIk6yBCCIb3CAnq6hUZe0U0lq9K4ysq1qDGLFhNPGrf/HIgl46WzuwReIjHr6itqUjtWZQ7Z5lA0uE4lIgN7Goxzc8CrJW77D/GyzmMIhCEJK7r73Nu4pGORrS/MmOsqHiNHeG8UbSTDaTDyNXovNoid3rMuxCleUX21tY02Pi82bN6f0OFFqXUqyjsx0I1MsWiQ+znmrndQfepPVz26nY7Rd6a3k3/ljHphtpWCMU8yveuPW/2MRB2rZ8MKLvFvXiXeUrWwVNzDnUw9w32W+ukVwsI2+wR6C8x7i5hzDOSdxCoIgXB0UwM+6d7rY1RnmA5ecGGHPzWDB9Dy+muI5ScLVTRTQl1LB9SzJXsZ81Bj5OAvpFTF98ZeYMvsL517u9GwqFZLOgkEUOu8bt/4fCw0wm888XMUdCYXRVh9UqbVoroCRXLOrlApnEWWo0WnE1A1BEK5GEmDjizdZ+GyCUf++SrIKjaiWhPOIQ+JSknVoZfj49ZKMRmu8Igqvy8q49f9YadCbNFwNv/KpJDVqSS0+IARBuMpJGHQSFzoLSxA+zNU3G1wQBEEQBEEQLiF1d/eFr8gwMDCAoii8+dY6Gk7UfcKxBEEQBEG4knV3d7EjFpzoGILwoXacHCKqczBaPTwadX9//wXvGBoaQlEUdu3ZSU3tsfHIKAiCIAjC34iBwQEOBWP0+kZbP0oQJl6nN4KjIMZo9fBo1FVVF14OoK+vD7VazWPf/XexjJ0gCIIgCCm5MpaxE/7WnV7GzsRo9fBoxBxoQRAEQRAEQUiBKKAFQRAEQRAEIQWigBYEQRAEQRCEFIgCWhAEQRAEQRBSIApoQRAEQRAEQUiBKKAFQRAEQRAEIQWigBYEQRAEQRCEFFx0AT0wOEBXMIBvPNNc4aLRYTq6D3O4O44/OtFpBEEQBOEyFQzROxSizj/RQQTh4qReQCsxGNrNhmd+zp9e3sLepo979HsJECbwMVu5HESG2mnZ9DivHWqnPxCb6DjjKIbCIIMoXE3PShAEQZgIIQ4c6eYvO3vZ1BOf6DCCcFEuegTaCFgB/ccM0H98HXsPH6CmO/wxW5p4icAgntrNHGsfwB+5ej4UIr4uWvY8y9vH+xgMXj3PSxAEQfgEJZMQ9rPjYBfPvNPFKw0+TvjE3xThyqRO+RGSBhzzueW+SaDXg9H0sQK07XyezYFF5M4vY27Wxy3HhUsh1N9G7Wu/YE3BIirTrLiMqR82giAIwt+2pKLg7R3gjUM+jvpihDMnOpEgXLyLrIRihHUGkrIGtQKas8exlSiRSBwFkOQksXCYaBySsga9wYBeq0FKxImFA4QTMByKEw6GCfmH8fm0oJLRm41oVCpUKSRSoiHCcRWSJKGREoTCIaIYMBl1aNXS6baSSZKJGJFQmHA8TiKpQlbr0Ov16LVnPQklQSwWJhwOE02c7iatzoBer0Ejn0mVhFiQQDBKNKGArCYQjpK4uA4FJU4sEiEciRJVkqhUarR6IwadjCypQIkTj8UIRVUYzDrkkf5RElGisSgxlQGzVkZ1+kYSsQjhcJRwIvHB/EmFZCJCKKQg6ySURJRYJE4sKaFSazGP9L8SDRGNRvH5AwyHk8SCAfzDPnzGOLJWi06vS+0ASiZJJqKEQgEi8SRKUvpg/8dDhGNJ4koSlRIjHBvJbzCg12nQSOflN+jRqGUkIJmIEwsHiclG9NqRfjvzWqGgKKBSSahUqRxZgiAIwniIK3CsK86U5WXMaGmhYSBO70SHEoSLdBEFdAzYxwuP78Zfsog5y+Yyx3HW3f2b2LT6GF1AZkWQXU//ibfrIVJwHfc8+AD3LJuLs72Bd//wPV5sg0NHGhgYHiJzwzH2F5owWMq5+/t/zxyLCVsKqfq2P8dLx3VY3Hkszaznqd8/wdt8lUe/fQdLyrOwAES9RJr28Nrjz/P7I0dp89spmXELt9/7We5b7nq/MW8Thzb9iWf+8me2nVIDU1hyz8Pcd8ds5kyyjHRDEA7+gp//9HU2nOiF4llUVZcwBS6uiO6v4dDqtTy/fgsb2j3ojNO4/v5v8tVbiinI1EPPSU7u3MPPtuv4xvdvp8iiRw/0NG5hx74tbNU9xH+sysaik8HbxKlNb/LyX9bz/KmmD+aP9hJqWseTj7dRfreL3uPb2Lp+P4c8mZinr+K73/97FlhM9G96jo2b3mJ94xB1NQHC0k/5j6NiVAMAACAASURBVG06bFYXlctuYOUXbqY6lecY9RJq2smTjz/K+iPD9PnzPtj/dc/xwj4/DR0eTP17eX7bSP5vPMx9N8xmjvu8/F+/j1nlRbgBX3sDB577CXtyv8m9N4z0GwARFKWHzi5wOl3odeKXDkEQhE+aRiMzb2YhsyWJEz3QMNGBBOFjuIgCOgnECNU1EjJNIaacd7cSpbt5P2uPgdWzktvvf5qVhj72vvAb2g8dYH9WOZ8uLmDGF75DdhgOvfAPbPFPJ3vabdw1Mw1JbcRl0JPqxBAl2kxzZzO1NXqasx1kX/8o33LOYHqmAyMAfXSe2MQr3/sdR2Z8jQdu/hJu1SmO7H6X3c/9GFw/4jOTQa8e4NjW59lxtA/99T/il49YoX8vq194nR1Zagyua6jS9xNoeZuf//gVenPv4r5PT6MovZ/6Yxv44ytgd6eSPA7UsPYXP2NXsITsz3yHX+aFCHXs5U9//BbP237AzddOpTJNj5wex3BgD4c7V+Es0qPXttJVc5LGjTHKH8lAliWggR0v/p7Nh0JErn+EXz6iHsn/JK8Zv0DEcCuLnQrxiJeGg2vZGL6JeYs+y73fvJ+7ew6z669reH3DbZQsLSF39o2sLJlNZeNh9r78KG+7Ps+XlhdRmmHGnJaOM6VX6HT/r/7e0xyZcQ9331xNqaqLk+f3fzxEy6EN7BxKZ87yL/LonU6oe5VnN6zmNbUawy3XUKVViEdCNBz04/YlOHMIJhM+woEDNIQjBJTk+7v29zF85M98+/GdVN79A25bPJXK1MILgiAI40CjkdEAavFDoHCFu/jJrKEIxC48+T8WUaM3uymfsZj5cwtxmfwk9/yGnogPjy+GWm8jvXgq6UAkx0RdIJPsSVOo+lhVTYRITx9huRrHrJtZPmM6WWYzFpMKGcDTRV/dIVYf82Ou7KJ3KIYkBRjq76W3Oci7zYPcMcmOXq3HWXYNCzOArGnMsQ7jMb6L5NlHS9ssOrxQpfIT7apjg7+a25cuZ+mSKrK1HViS7exdt52BVD4YEjFo2cPmI93U2exMDXTRM5AgPBwl0HqYo43tzJ5RRqXTiSUzi8n5B1izs5YqexUZqlO09Xqo15fy1UI9GhloP8r+mmZ2tmkprOiip08HgRjDnfW0NzZT2u9nsRNIqggFdLgKpjFt5mLml5mJt4F/+1Os6Q8SiSYwZOWQ68zBLA/jdcnsLSimdHIFVVmG1F8eTxd9dcd5rSGNZf9wM9dNLaZQGiRXb8V4uI+zZ9CEhy2YrRXMunYZK3JtUBLlxL7HaWuto65jBlVFQBJCAUicM9yfIImfEArnfK/TGFC7JlFZ6acgx4TpIuILgiAIgiCccYnOBnORlz+FhQuKcJsBLJhMarSXZmfvM+RSULSI6665hsnW8+4LDBP0DdPsLOEGaxD/UBcdgNpZRsUcFSbzMJLKBpjQG9JIttbS2LiaAXUSxRhBMQyhqIKEwpCIhvF1d9KXNo2c0izSHFq0uMnNq2JJMbwmp5BZSUBXO23GTGSHHl2in45uUOLpTF68DCVbh0UbBazYnPnMXJ7Nnzfuo31eHo5ALT0BL0rlMsrMnP6i0N9Nr8pIKM2CQx6koxPATO7UBWSWZpCmO7PaiQyUMmtuJVVladj14JFNWG1wKaYIR4f66O/qpdU1h9nlBbiNOrS4KZi6DFveMAH7WXPpLYW4c6qYnp+BFQXc85hX8guafZ20dHugKMXFY3Q29IVLueezUzG53dhFAS0IgiAIwsdwiQpoK3q9Fdv5Reylll9OVlk5VaPtV61F7cxmxtyFVJp0GIFE0Is/HMHvBLUE+Ds4svktXt26gyZZT2VxMe5pFTiyjARGpj8nEgmCgWGSwyGiCWVkzrMaWTZgMl1kAWpOo2ByNfMXlJEFoCSIlBfSZ3eSPlLwGRwuyhfdwfTfbaK1dzaBphb8/gQVsyeRdnZbRiuZ9jLmLphD4chN0fIihvSZZFnObCQBmdisGgyfwJTgeDxGKB5BZTNjlEZ+FQBUUhglOcCQz0q+1Xb6dqMetUE3skSiCjBiMMjEPFGC4QhwoQo4jqJECYdOr5R0Lg2ynEFJccYlenaCIAiCIPwtmfD1yCRZJplQiMXixBIJJBQURUKtHufVEiQZOabB1J7AnFtGiduOU4rjObadQ0cOc6CviutKQXdyDW/ubKMv717+6dE7maGKEg418PpOA3Uj8wK0OgMudwGGphZ6Bn14onEsDOHztNHYColJqQRTgUaPvtuDSZOBu7yaSq2KZGCQUwdf4p12F06bihInoLWicVezoPIHHG2czPHt4HROYk55+vvNqXVoB5OY0y1kTKqiSi8jKRFa1m6hZjBBWC5jeqozZVQqJEkmHosTiyeIJ+Knp8Jz+nUaC6PZTqY1A11zI42eAIUGDVopTuehNbz62vP8yfmfvPHw7NNfBHr68NFDVyhGrjYJSjNtXTFM2jSynQ5QRUCWkImQiMaJxxLEkx/S/yOrdvhDMWSdEZ1GjSzm3wmCIAiCcJEu+kIq48XpKsLX4+XQoSMc7jxJa9se9u1vweeLjO+OXGVkz5rOPTl/5cePvcC63TXUH3+FTa8/xXNv7IPsbJDPjIv24+9tpv3ISU6d3MTj37mfX2w4ztHBkbutNrQzZnK9ZiMHXtrG3q111G99m41/+CO/rYdwKuvCa3Qw405un3qSxk0v89QftnK4cT+ndv2E//71alpjEpjMIxvr0Gjzmb2gkpqX/sDa1n76S8upOLsgnryCpdPCaE6u5sc/eYN9bado3f8zfvfscxxo94DdnnLX6fQmMrJKObFnP/tOnqS+8yj1DUepresbeyOj9P/ebW9xoNbG9XNno9VoRjY+QsPht1j7pwN0tDXSsf9F/nLESNhawqQCO2h1SFkZ5Etvc2J7HbUH2z+8/6O9+E8+yz995+v8ZncDp66Gy14KgiAIgjBhLn4EOtcFdvMF73Jk8t50h/fl48CO47xbMxZ8ltsTb7Dz8As88z96jFo1U675MsXJZErL2IGLTEyMOmtEspI56Rru+Zd/xfnSJurWHuNIQovFOodF981j+VQZvRoovZ27b1azee9h1j/7C3YYk8iz/y9LdK8yYJYY8npBZcNgX8JXv/8PPP92Lbv/epRdWVloc6/joYXbadSo0Y05twyaAq79yj9iensL++r+wjOnTOgSegq/+G8su66MKRlnhktVSGo9ObMWMmd3FFvGYqbPmoHr7K9B6mxm3P4AGucWdu1aw5+esKKLyjgWP8St1yxhZv7pjSUZckpAbzw7ixGJUnI4N78uPY+Sm77CNxJrqdtwjJr1SbIKpjF74a1jX8Zu1P5fwNIvzWP5DA2GM/Wzaw4FGj25vnX8/AkPRGUm3fkg1y6cxTSHBCorOvM8Vn1jCS8eeZO//nkTzvwCbNPu4qH4mg/2fyREsq0e3/53ebe4icrcAsrMH+8CQIIgCMLFs5nMVKTFz5pWKAhXlosooNVAKYvvNhKz55B1fh1irWb2SjeTNWmcvZpb3qLPsSLmwOw6t+jWplUwY65MWlYnHYMgqzXklLmxvFdNjY2t8npWudRoHa5RtlCjNWWRP/VTrMTJpKEY/rgBa3oOeUV5FJyp1s05TF6wAkNOKeWDISS1BkvZbCxT8/BJGThcOkCNrHVRcM3N3Gwvo9vrJ2JxYrbZKQzMosuSi8s61vwqQE964Tzmr7DjLuukI6RGVtvJKSuj2GXFeFY1qJK16AtXctt9U/GZSsnKt513cqYWm7ua6UssON1TOOVXAVayikspyknHYQASNnQ5S/j0QzNIy83gzJi0wZlPxc2P4Dgvv6S1Ys1bzE036intiOEPgzU9m7zcVL7ijLH/AXTppJeUMHtZBgXdgdP5q6ZSlGnDpjndllqXxZQb/o7biwfxBuLo0rNxpDtxVhd+sP91aWjyr2dx+bt0ZVswpXhsCYIgCOPL4U5ndppCxCg+j4UrkyqZ/OApVwB9fX1UVlbyxM+fZsH8RZ90rqtAH03HT9HS2k9wlC00pnTspQuY7jrvao5XjAixaBeHdtTiiSaIjbKVMbuKgvxCisYye+TQ4/znW8P4chbx95+/hpSW1B5FIhLA01nPns1bMC68i8mF+YirxguCIFxad997G/cUDPK1pXkTHUUQRvWrrW2s6XGxefPmlB434ScRXr2G6Gg6yv69JxkaZQuds5gCxwKqM67UAjpKItZJ7b5dtAQijDZr3TEtHXXaGAtocw6V5UGCGfZxW/YwEQsR9HYjz7yL6tws0kXxLAiCIAjCxyAK6EumjMWryli8aqJzXEoW9KaF3PethePXZOnt3FI6fs0BaM1O8qavRIyBCIIgCIIwHq7IcU9BEARBEARBmCiigBYEQRAEQRCEFKgbGxsveMfg4CCJRIKnf/crXlv36iccSxAEQRCEK1lTUyMv9Yep7fZPdBRBGFVNh59YupXR6uHRiBFoQRAEQRAEQUiBuri4+IJ3WCwWZFnmy1/6mljGThAEQRCElDScqOMusYydcJk7vYydgdHq4dGIEWhBEARBEARBSIEooAVBEARBEAQhBaKAFgRBEARBEIQUiAJaEARBEARBEFIgCmhBEARBEARBSIEooAVBEARBEAQhBSkU0EmSyQSxWIIEkBzHEIqikFAUlHFs83KkxGIkEkmS49l5V7hkUiGRiBO72l98QRAEQRCuGikU0H58vnb2HeykNZYgMo4hPF4PHV4PfePY5uVGicXoPLiPjkYv/sBEp7l8+APdnOqs4UAXoogWBEEQBOGKMPYCOthD78GtvPTTtbQEo0Q/8gEBogzQAx8+sjy4ky1/+Hd+/pNfs3rPwJjjXHpjzD8mUWKRRg799d9ZV9tE0ydSQI9n/ksn0LSH4+uf5JXDPUQuqoIewEcA37gnG40C9DBAlOAntk9BEARBEC4nYy+gExEinn46T3QTTCQ+sijzNO1j//qneWnfIOEPK4z02ZRPmcuymVXMdOvHHOdSG3P+MUmQVPx4uurpHg4SiI9LxA81vvkvnURgkOGeRjq9YZSLmNvS/s4feHvzFvY2+S9Bug9KRIOceuPHvLrtMPXd4U9kn4IgCIIgXF4u2UmEgZ6TnNy3kT0nhoknPqQwMhZRuXgVK29cyrx806WKk7Ix579MXen5x6qvZiuHD9fQ2PPJFLNKLELX/lfZf6yZrqGP/h1GEARBEISrj/rjPDgW6mNw0IsvYiAzJwerFgLdjfT7/DQ0dtLYHcKrbuD48SHMOiN2t4v0NBuGc1oZpt/nJZjQYdKYSdeeuT2Kt78bXzBCTCWj+HoYwEmeU0XUM8xQQI06zc2kQic6QBUdxtvbR0//EAPhGJJsIT27gJwMIwbt2L8n+LtSzT9OosP097bT3T/IcFi+cH4lTiLkob3tJP3DCaIJPUZLBhnuLLLTtOOfP+bFN+jFE5KxFeZgBVRAqL8DbzCBYs4i2yGDr5UmnwZiIWIhHwPDMSS1hfSiAnJsRgzqkfzxEHFvOyeb+vHFFTSWdCL93g9OB4oF8Q120dnTzVBQBZhwZOWRnWnFalQTDwfwdp6iJwy1HQG6/b1IJ2o5ZklDUhtxleRjU8unD+5EhKhviN6OHjoDARJJA5Z0N1mudJxWzZhfnohvAE9vB50eL7XdCfr9HbQ0HOeYYkNnspJ5Vv98VP7zXnhisQSgRqMZex5BEARBECbORRfQSjxEV8NGNmw+yHFPOXd/5QFmuqFp47Os23+czfXtNDV1o+ie4me1Mhp1Lou/8BmWL5tLyTktNbDj1W0cH85l2hfuZlXWmdv7qdnxR7bXtNKnTUd9dDVrhxfzd7dZ8e09zI5jZizX3MeP/+1OCqUYsdYD7FvzJqs37WZHzxAa7RQW3vkQX7t7OmV5FjRjrKFTzz8eEkQ7DrJ59dO8tHE3dT2mkfx/z0P3VFOWa0ZWJVFCA3hq3uK3T/2ErfUhhgJZ5E++kZV338OXbitBJ41zft8Rjr69k211Fq75/sPMAzRA2zureafWR2jql3hohRWO/Y6ntupRhjsY7qhh2zEvWl0Z8//3I3x9eTXlTjMyceJDp+jZ+DP+86c7qYslcEy7linZYWznHIUKsf56Dr71Z555ZQ372rSgFDF71Ve47zOLWViVTrCnhYPP/oAX2+DQkRYGhoNkHmilcbMJg6Wcu7//98yxmLCRIDbUStuujax59k1eaGogHMtm8sK7uPOuldx6TR76Mb4DBk/sZ8crv+WVlijHDgUJKK/Tf2QXu1wOsifP5Y5vPcBMQDNK/rmrvsIXP7OYBVXp5x6L8U66u7zEScOdPfY8giAIgiBMnIv+c91X9xy/e7qeQd0MvvTwbcx0g0aCKXd9k+Lb4ty691m2blrN1qJH+dGt2Vj1WjR6HdoLNdbdD74LzH8e7KTlaBedRfP41we/A9/4AS/vuY07briFrxa0cWTfQfZ13UqOex8v/PCH7NIvoeoffs33KiL4T63l0W89zB/Sf83dn5rHHPfYntdF5f9YEkAnW//y3+yNzOaaf/gXnqiI4z+1nke/9QvenPLPyI5Kysx++tp28/pTP+HE9P/Hf/xjGWWaoxxcvYV3Xvgjr819jJvd459/eBC6ms+/tRMfPvrPuqVp92q686/jpvt/xB+LJHx7fs//+dl/k235Vz6ztJIyTnJy74v85093kvaZx3lyVRm2yDZefvnP/Hk3VE8501Ifhzb8ka3Hw7juW8Oma+zQ/Ro/+d5atu7QY8y7kdm5ZSz55q+Ym4BDv/8cr/nnkTP3i3xpbjqoZPRmI6fHcps4tPFZXnrmIP13/4AXbszE7N3Ec798gY0vdxHOeIz7qsbWD66p13JL+TyuGx7k3SduZLXti9y4dBk3lFuRZA06GNnnhfM//721HNyhx5B3I3McZzVct4Fnfv0y7zKPT39l7HkEQRAEQZg4KRfQSjxE97Hf8fJfDhMwL2XFTcupzjG8N6qm1ptQ68Fq0mPSy2hMFqxWG1a9PHqjCQWUC5zopiRw5+eTe90KikraKSmOE6haSFWFC+NQiONxD7FoDI7uZke3mkZLG9rDr/HSKYWot5egd5CWrh48/gAwtvnVF5X/Y5GADGZ+9jGKsGPUW7GETzIY6iIePEh7zzDeAGBOoiSiBPw+6vpCeENmDO4FzL23jNKbwOAErQqkcc6vKKAkPnArSc49kTQRq6JyymKWzK5kijFGUL6Ju17+J9qam2mfUkiZyYtvOMbx/M/yvdumUlzgwJiYw4Kqo3Q27+P99VcclK14EOdCwOTGEe2jL9xHPHiM3v6l9HlA5VCjNdnQAhaDGr2ix2C2YLVaz43ZfpKmxi62D0nkdrzFq2t1aGMDnGgZYEDfT0vPAFSlj6kfJI0WvUaLrIpj0avQGQ0YzdYP7pMEsUiQXm+QgUGFuOImo/Q27nh0CQl7JlbzeZsXzuWaW41MIpuKwjFFEQRBEARhgqVYQA8TCb3L2qcjFJpUhFQhBoI+FG3GpUkHGE0mzJkZGAx9GMwq0u1ObGY7nJkvqijgG2IozYU9201ephk9oNOVs/ieL5KsTiPT/IEK8DKiAvSEOhvZdeAYHd4oTocByWrC7g6QlBLE4wB6bM7JLFx5F6dObmfvW1vZGwetbQplM5dxrW6Cn0ZmCTnZeeRbjeiJo0qrYEZRiHcHuun3BAgnfQwNeQha5+FyGdFpJTTkkpOVQ3n2Pt55ryEtkf5uju3ZxaFOHy6bGb1bDbYIan2UaCormIQChGQN0fxCpuTbMAGyIYfJi2+k2JpDjms8VzM/w0bxtGUsDu1nd9uf+MOzSYaHIWPSTcxfmEXa+dOczSVMnZXFZDSYzy+uBUEQBEG4LKU8Aq2SNVjdc1m1JMnBg3X01Gxhd1UWN0z4ChoWcooqmDm/glwgGY/jz9TTZDQy0bXlh1Ji0HOQN9bu5KA/iCXfjcuRidVlIj9DxntWwaUzOyicupxb0ptp7++gq7eb7tZ3GAiEMRc9yLUuSOF8yYsUIByKEgpdxEOjcZIDXvxKklHr4P6j7Nm0k401TSiFWWRZHZizc8hxmei/qLM3dZit2Uyfv4hyTh/w4e5GukPSuF5N82z2nMnMnCmh72qla6ATv7+Hmr2vkLRoMTgWUm0/e2sTdvtEv3cEQRAEQUhFigW0Bb1xAfd8+3Zmp0XIip1k/bsH2bBhKtM+P4cMLUiq01vKai2ypGV4cAhPKB01CRIxGbVah8EwjqsNSDJYs8gKHUYKKCiGDLLS1Ki8Lew/up2TziJyclKfvvCJ5U9EoPE13jwUoOj2O/jc5xZQEO+lo2ErtcEkifcGz8OE/F00N7TA/Fv5VJoVm/oEe9f9gdfXr2d344Mscr5fQI9Lfo0WjSaOHB1gqCdEyAqhwaM0nOqmtd9G2tnb9p6io7mN1p5JpFtCBAePc7DJQNa1WTjtJvRWB850J47WGmqbBigsSZIMNdLc2ER9JzB9pJ32bew+0kF/xhIe/vodTJP99LbtpjOqEI99MKJWZyQ+EMPr9eELG9AkY0SiOswmHWqDHYukJd3nZShhIy3PhjUxQNOxE3S0qInKcyDVOccqFXq9hbA/hM/vZzgsISsJYjEdVqsOlcpLX0cz/XEL2df+HZ8yq4Bd/O6f/43mk1M5NeW8AjraT2fvEEGMODJzzlqFRhAEQRCEy1VKBbRKBfJ7j0inaulNdHa+xuo3XuD1a6Zzb7EGw0itarJlYrVl0X5wF7vnJCg2DRD1p5GWVsjkSc5zG5YlkC4wdCrJZ90+snPVSIUuqU4/Tq2Fqlu4dfYmntn/Bs8nQHWdFXPTq/x+zTu4vvpl1ObUR/hSyj8m5+U/+3aNEbNhCH97E6cOGen17+W1Zx5nY0OEWcHkyAVGVASGOjn81v+wecDCPdNKKLC10tc8jDxgxqQZWUJtPPNb07Glh7EG97Pn9RNkzYTAzpd4c1c9xy0LWH72tvIxava42JnuwFwZxtf0Fq90VXJ7URG5mSYwZ+OcXMgyzWtsfGYH7ptLsHVsYsPb77C93071mXbUBoyGAPHBZhr31aCxnGLt0z9kw4E+spwq5igKZy9f7swpJ143TP2xA7ybm49T6WdgqJQZU/Nw5M6gamYNM4+u5skfZmN+aC7F/o1seuNtmrSLWLBibPOfz3maspqsomkMb27m6PHDZButmKJhAsFS5s/NRauR6a7bwqbj/Xh7VBgq04FGQm1qdGk6dOd/l+vfwWvPreNosorln/s6t+de8p8QBEEQBEH4mOTHHnvssQvdEQwGeeKJJ1h1063k5eZDtI/h3lM0doQpunkRuTotep0Ltd5PNF7DO3WZXD8jC53mdIWgtTtwZBnI8b3Eutd3sXP7PobVGWQXl5KXbjxrT13U1ffRp80ia2olZe/NAx2mreUU7XEn2vyZTHcOcbzmGIPZN1CaqwZvL6eGDKTNn0+FxUzRzBmUSp34j7zF69uOc7Apgxn3/SP3rqiiPFOHfH7d+hHGnn8s4sTjZ+fPIu/MuWeyBjJnUqnvoavpXTZu30Z9H9hX/X8sNrTRb51Oaa6LUqcZo8FBcVEu4SNr2bptO5u2HqGNKZStfJivLE3HcFYRPT75bRjNEhhaeXvTW+zbu43uituY5rZSbbdjds9gTrEOOnbyYns1VdkyNv8eXly/l0MtmSz/1r9w9+x8iswSksqExZpD9Yw8Gt9Zy94D29mtzseZV8xNmWqUjEUsnmJFm1lBkSkGfQdZv3UT+442obvpu8xKC6NY8rFmFjAr9/25HMbcPFy6kww3vMnrr+1i34F6jKXzKM1Nw6w3Y88pYlJ5NnknVrNu2y52Hoxjrr6NlXfezk0VNtQp1qsqWcZcUk6OsoPGA1t4683dNLQMYC+fy+QcK2rZRGamCzs+Ova8yitv7WTnzgZi1V/lppXLWFJmOnefTVvY/+YWDrWqIXc215aIidCCIFwdXnz5earsIWYX2iY6iiCMan+Lj7qAmfvvvz+lx6mSyQtfP7mvr4/Kykqe+PnTLJi/CBIBQr4huntj2ErysY5cqCISHMAz1M9Q3EVprg31e5VqnHjUh7e/nR7v6XP9TPZM0tLSsZ0zhWCY/q6RC6lkZnzwQipRGdnqJssQpK+9hZCpkDSLCgJeBj0KhpyckakjUUL93QwMefBEZSTJiM2VSYbVgDbVKiml/GOhoCTOzm/Cet7E7OhgBz1DPrzhGJLOiCE9C523hWGNmwyHlTSjGpQ4SthLX183nmCCmAJqvR2r4/0LqYx3/kTEi8/TQ0f/6Sv96Zy5WBJ+iHP6QiqWKOz9L+5+wc7sRTO5ZW4WSiCBJBux5eWTYZDfn5etxEmEvLS3dRNIJFBMDsxqMCUiBA255Dp1yJKKmK+PwcEB+gJRVJKM3lWAPtBNSGXGaE0n+5wLoEQJ+boZGPTgCYAkydhcBWRYjSOve5x42Ie3s52eMChJPSZ7Gmlptot4HQGSQAT/YDv9Q0H8YdDojNgzcsmw6pBUKogFCfoG6B8awjdynqLOmosr/QIXUvF3sPeFpzgwbMK26hHuLRVzOARBuDrcfe9t3FMwyNeW5k10FEEY1a+2trGmx8XmzZtTetzYC+grWg9Nx4+y7516hkbZQqUxkD7nXpYUGXBekksNXi6G6O+qZ9vr+xmAUU+kc0y7ndmTciiyj7LBGTE/7P0vvv62nanX3cidSytJfWLERAkSCZ9i00u76Q5HucAUawAspUuorKhmaub4J/C1H+XY8ZOEjG5KZ86nINUfNwRBEC5TooAWrgQXW0CL654JH4+kAfdcblxsxJWfxgUuhyN8BHtRFVk2tyieBUEQBOEK8TdSQLsoqnBRVLFiooNcBhw43fP59Jfnj09zsg6Kb+aW4vFp7pNlRKev5qYvVH/0ppeINbeaignbuyAIgiAIF0Oc8i8IgiAIgiAIKRAFtCAIgiAIgiCkQHX0lfhgxwAAIABJREFU6NELnkc2NDTEbbfdRrY7B6tVLEEjCIIgCMLY1Rw/RqY+Rrbtsr4esPA3rtMbwVFQyW9/+9uUHqd2Oi98UQ2VSoUkSSyYt4iioitygqsgCIIgCBOku7uL6elBFpc6JjqKIIxqx8khOjUaRquHR6POysq64B2yLCNJEjfesPIqWMZOEARBEIRP0mvrXmWxWMZOuAKs6dEyWj08GjEHWhAEQRAEQRBSIApoQRAEQRAEQUiBKKAFQRAEQRAEIQWigBYEQRAEQRCEFIgCWhAEQRAEQRBSIApoQRAEQRAEQUjBFVNAJ5NJwpEwYUUhMdFhRqEocUJhD55wkrhycW0kIhHCvmHCEUhe8BI3l7crPf9EEsePIAiCIFwZrowCOqmQiAVoOlHPCc8wnsTlWRlEwh5am3eypzWMN3IxGRWGe9poOXiI1i5QLrKImjgTkV9BIcn47Op0SxPV7Z/c8ZNAIcnl+S4SBEEQhMvflVFAR3sJNTzDzx++jx/+eisHGv0TneiCIn0naX75X/jL7gZ6fJGLaMFDd8PrbHn9CdZ0Q/iKK6AnIn8fHvx4xqWt0y31jUtbqftkjp8E0EkfES7Pd5EgCIIgXP7UEx1gTDQODPmr+N/fziZeOpPsHMNEJ7qwRIJE2E8oGke5qN/PFZR4hGgkSPhynafyoT75/Cde/zGbQ9NwVtzCpytsH6ut9nf+zM6WAIPFX+aheenjlDAFn8DxEw/7qX3pm7xhfpCFM+exKN/0sSILgiAIwt+iK6OAlnSoLflMXpIGBgPIV0Zs4dLzdzbQHsiA3NjHbivY30Z3q5c++8WM/l4Zkok43pbDtDgGqCy/Ir+lCYIgCMKEG3slGh3E19tGbUME9+IZuLQadECgp5nutjYGbdOZXmxGE2mm6UQ/fsCYHqfryHGahyBhzad8WhWT893YAZIKBLqpObqHkx2DeEJGDJZciipH2pFVZ+08QizWzaG9nejKKsjLtOHQnpcv2EfTiUPUNbbSGzEiO3IptPro7DCRX13O5CIdUm8btfUB3DMs9NfX0dbhw4MDR/4k5sytxsXInJbwEEOtzTTUN1Hn8QLp5JZPp3JSFllndqzEoOcge/adosUTBJsLk+RhGC7d3NJEhJi3g0MHd9LUFyUUs2DPLaW0upxK58hIYrDp4vofBwZ7GtmGAM0tVqYvn0qRy8a4jk9eKH9mKaVTyqk8eyQ0PER3ay019bW0eyTO7/+Ib4Duml3U++DQ0QFqh0/giW1gnceOWptG+eIZZI0cnx9FiUXpObKFE0NRjuxr5mBziEhgM+tUdsBKydyp5KaN9MNY84/FWI+fqJ9gbzsnjzRwdGiAuGIjM7+CyeWFFGXpx7y7QE8z7SeOUd/v40BdlEb9EfZLQIsdc1oWk847/j+s/8cs3EV3axedHg3us9r3NB2leyhGwnlWv539/vVrkdWZFFbNZmqJDavx7I+pJOAnGEyiVuvRalPIIwiCIAjjZOwFdKSLnuMbefFpDytmVWAdKVA8TQc48PY6DpTmMyXPiMZ3lH3rtnHUCxmz0vDt3c2xzgg9UStz7/4Sn7Y7mWuVUWJe+g68xvq3NnO0zUcwaESvK6CkPk76VxaRa9eifW+GdpBo6Bjrf/kWji8/zHLb2QV0EogwULeFrRvfZvvxdjwxEzFzOg67QqSnlBXWdHKzJULH3+D5J2spfmAWkZoDNJ3qodmnwVQ8i0jhJG5x6tBLfvob9nJgy162HW6jPtALETNpJZ186pbruWZuCU5dhLivlZNvPs0r6zpoioCpoACnU4vUD/G8cX2NzrwAhIaaaNy0lhe3v0XTkJbwsBlLTjnThpZjXr6UXCvIF9n/w1jBYsVikgm1T8YyvZiscS2g40R9HbTtXs1Lb2ylfRCiYSNGexXVCxM4Pz+HDC1Iqijelv3s27KOtXtrGQzoIGLGXeIh9ulrWTAnHzngpevIdvZ0w6ETXlr97YSie3nHb0ZnKsQ6r5r0sRbQiRj9tbs52Brg3dpOTnUm0Pje5R2VAchGPbmY9DQbplHyW+1VTD8n/1h2OtbjJ4iv4xi1m7eyYXcbx/ydxCM6rO6ZLFi+gpXXzyDbPLbeDw100XJoOzs7whxpjtGlOsFxgkS6HGQUVuGYW00GIHHh/k8r8XDLp6/lmjn52DRj2yeBk5x4Zyebaywsm1uNk9MFdO/Rt9lZ6yMw9atU5hs5//3rC+qRlTRya8Lo7ruGypI0jPJIm8k4+GrYf7AHXUYVxcUlOC/TGV2CIAjC1SuluRCRIHScAuWcX36HCNNKB7y3esFQbwNb98rY9Cv450e+zbfcnWz4ty/zVu0xDuXPZe58E9FwI2///kccm/x97vrWp1iV10XbznU8+6Pn2L5qFp8yaXGdXQElFDjVBsHweakUoIfdf/01R6Trmf/gf/LFgg7q132Pz5/8PL/67hIWFqehGq7hWHCIkzU7ePO5OXzzwf/g81/X4tn5G15b8zZrN/4vbrwjF726hi0v/IF1dRZc932b319nh641fP//Psm6t9Uks4r4dH4/gcY1/Nv/bCfrzv/gm3ctZ4q5hi3rfsW3X4aSqpRfh4+mdNNRt55ffe+3DDzyIx6+dTHF/jp2P/d71v/+//GUbR7fvkaHJcX+r6/6Ifd+8XoWsY2Nm9byr313s/GpRThNWsZSC45diKHeY2x99UUGFvya795YSpm8l/XPruXlV5/njWVzuCcP9HI/Ndtf4p36JI47fs2TNzqRetfwzHe20Xg0i/Qp+cxxFzP/az9kPnDw13W8ElhE7vwH+Op8Z8qp1HoT1V/4V6qBhle/zfpaL31Tv8X3b8o+b8sgA537eePZX3Ji8XM8elsVUw2H2ffiW2zZup7tN87hZjfox9JpkTEeP4kmjmx9iWefOUbw7/6bn67Kxup9m9//9DdsX9tLrGAaD80c23nAzooF3FCxgOsCA+z57zd43nEnK6+7kZVTrOdtOUTDu29ytFOm8HO/41dLLCgdz/PdR9bzzh479rJ8FqfQzcMe6G0//9Ye/HhHTtZ8//27P7mMWV/+dx6cmSB8ai1PfuNlDi+ahC07jbIzXxTiUajfxNP/8yqJmQ9z72dLWFU89jyCIAiCMB4u0WRiN1UzJnPd/1rGTLeMRsomM0uHOfDBLZt6+mhs8+Nxl5K77EEemR9HtljQyh/c9qOk2x2k2+3odINku/KQtnbRFz692oAFABN64zQe+PpdLK/OwGWChNVBZtZZjdQd4VgvHBv2E9v/O35yVAVKhPbeMAHPEAMeD2SFSfT1UzfpAW69cQaTis2YVWVMm7WCB8p3sOdS9GpPJwN1nWzV3cI/r1xEpdNGWvoslq3qICG9wo9fXsM9c2+nDEil/90ZGVhMZsxYybCkoRxopzOhYAHGPkFgLMxklNzIvf+1mLu0VoyefjwdrXg8J4hE1LR3QyIHGHndB4f99LT20dmbQ3bm7XzmF6tIanSoxzKsfAklEgp17Z00t0+ieMospt9XTeW9IJlBN9Y1baJjPH5aTtLcMsSusJFJJ/7Ik09IqJNR2k4N47ME6OrrA1zj/AwzmH7Xo1TEgaSE0tFKZ0cLkUgtfs8Agx4g9e8pY9I1OIS6dYi+0lIyJ3+Bh16+B5XRyDmzNDQ6mHEnX/0/M5GyyigquDRZBEEQBOHDXKICOgO7LYu8HC0aCUBGklSo3iswdGj1xVx///9leE8tzVv+kX96NUg4WUDZor/j3rsqyVWr/3/27jM8rus89P1/eq+YQe+dAAiAFewU1UhZorplybFlJ46TOP3k5uY+iX0SnfieJ/eeFOc6Jy6JHZfEVrHVTIoixd5BsAEgQAAE0TsGwPTe7geAFEUC4oAiRVFev098Zvbe6501e4h3r/2utUmtulEKZFBeVcbB1jb2HvxPKHQyvO8kudXbyTHo0V7dVoNMVkRxoQ6jTopUAhKJBOm1iU8sStRmxabPYFVdOTlzL5fmFBPPKaciJ0EkHGJibJCINAeFSoFMJkGCEb0+m+J8OHMHFgcM+Nw4vNPESlaTr1Ojk0qQoUCpUqFSSAiHwsSvrtxw8/6Xy3OoXVnOrgv7kMiHGKaN7tZLlC/7HJkp9/1iSAg4Rmh581/5t8Y+0iw20ktziGDAnusjfvWuho3qjc/ytOIYhzr/P/7xn52MjUJ2/Ytse3QTa6rspFpBcHtpSctewWO/+Yd4T+7m+Jv/xds/iCAzr2L5fc/x9KPl2CGlUfuUz594jLhBh3qJnTX1teQze31RVlBGzJBORsmdmAQoZeLcPna/t4uj/W4KcrKxVOYgTZehMyVI3PYC/9nf75onvoqv8SzNrX/LNxu9TDm1FK35fZ55qp6qLMM1v2EZKAqoq8sEhRrVLVxoC4IgCMJH9RETaB/BoB/3DYvwKpHJlCw8vycO0jAKczmrN+VSFnDjdo0yMjzIpabvcmjp/+LRciMZKdU2JoBh+jqk6BMJiI9wqTeBuuIFvrauipI0De//jZUiQYtazQeT5usFlJhN+VQ3rKdy7iX3xSN0RiDkBVm6DK1ah2RkGk84QggwEiMeD+L335knwMnlCjRyFUm3j0AiefVpjKGgF09gBqktDatUOpdc3qz/Q8RiI3Se05JTGCYy00s/OtJqn+T3G4qxqGS3f4FwVw/D5/fzw91esrc/TF1mOpkZBmY6QnS5LvL+GhpB5FobRVVrUJbU4vdMMe3s48L5nZy/YMRse4jV6bc7uFTEkMil6OxL2fJIOT6fE5driN7Lw/SdfY3DS77B4wWgTiGhk8kWcf6E5Ggl6SxpWE8Nsz9Yf995emcSBG7P4tcfNHyEgwdaOD9to3rbRmrTrBiydVxs3cHIbblycePzBvFdXYQ6CQRQ6POoXqnHXu3F65nA4Rjg/Onv01jxdQyaJVSYr2wvAdTo9bf3/oggCIIgLEbqeZJCiVwrxRC/xOglFzNTHiYvnaOt+QJnb6hxvJkY8eg0l5oO0Bu3Yq98iIce3MaWFZnoug/SNRzFn/JKYrMPhujrGicyGUDpDeObkSIzryDPqCAug8hiQrMVU6CLoZkZonMwhMSgRS8ZZuDcUbovO5gJq5Fp9ZhKKyh1tdDT3EPfwBTTAx1cOnuSI70QvQMDg0pLDhkFRVRHmthz4AIdw5OMDJ3j/IULnB3SUVpViUkmJ7UBuTDx2DCd5ydQeqLgDBIMGFGblpCrh4CE2/+4dP84zsE2TgypqF73OOs2rCVL5cM93MfwBxJBP2M9LXSPTBHMXsvGjU/z5OPrKAp1MTMwyKj7g4fV6i2EfSHGxycY987g9owwOuomHI4tOkS1xkAiJmFiZIxRrxu3d4TxiRn8/ggQIeAZpuP0Mfq1FZTWP8q2rQ/SUCBD0nOazrHZMv1UpHz+mHJIN2vJ8fdxvtNLVKNDK59i8tJputp6mAgsfoqnRCLBYLTjnXIxPuVg0juF0znG2JiXRCIJUxfo7BvDqSyhYcujNKyoQDHewvC4B1dwkY2pNajUIeSBPoYveXC7PIxfOMrZC/10Tl7ZKAl46W9rpMedRFl8H1vue5zHHq4hffg4Q0MzzFxbepSMga+TUyf3cepSP+PXT4kQBEEQhI9B6iPQajP6TDuV+X20HTyFfkKPztlGS9cEExEt1y48oVCB8oYBIi1KFHMjpDKSCTne0XOc8WhwjI0yafbjHJhBJqsj1yRHfX1kEkCvBdkCKaImitsdRe1VkG6UEext50hkBHvtShqKcyiWgFQGGj1IPnCfXYkMLVcHu3NXs25dK1P7Ojj5xjuYfcXYpo5zpGMcbYMGm00PmiTq8tU8WXeQxtNNnEq6GVeP0326k4GwHmtSeusjuHIFqLQ3vm7OI6t2JZ9bf4Sf7tjFkdBSMmKttLeOM6p/gCdXlqKeGyG8ef8DkiTow0xPRLFoLWjkEaa6mtkfHCajfg335adhu+FL+Ajxq4zobRlUZXbQ39iELjvASNcJmi70MZksxBgOkUyqABUh1xA9bUOMuqTI84zARTy+XGxa+w0rLtiKV2AdGGeo+ziHDZlY8RCTraKhPh+VanHxm3MqsFm8BPuPcbBpEhuTJKRLqSovRaeTEQuHmBk8ybFoJsnCHNK14wwPxtEoyik0gSzVWZcaU2rnT/oSqlZeZuPAr9j5yq/ICFWTHWjmQks3Hut61mbP8+CYhfp/jlSuJLNqE8YDw/RePMHRiA6DRIJUtZw0mxalPoe8rEs4nAO0HzmGXz/KyQP7OTcewVgmIRqNQqpFNLp07DkaMnXnObPrJIYlEOs7S/ugF7dGPbdKyuyIcsDRSVv3GDKHj2CGlGigj1iimmy9AeO1de+JKIwdYsd/7cZf8wKf2Z5DZu7dKeoRBEEQfn3JXnrppZfmeyMQCPCd73yHRx95nLzcfECHUm3Alu/iRONJLrafw5GzmtLKpdxnToBtNQ3lBhSRAcbHnEjsmeTVll+d4jTVcRFvspCs3FLKsvXI5CZKykph6DRtZxs5erqbIa+NvCe+zlfvS8OqvTYFDROLOWi5GES/bAVF2RbSrpYnxCHaS2NzEuPSeuo31lGZYSMzOUXPwf/Jjy5ZyUzPpz4jRsA5wpgzTuGDDWSrlKgB/8QEMyP+9+OX60gvr6LULkHbvY9dJy9yoddK5aO/xRMPr2ZZzmySJ1fkUNdQxnT3aS5caOR8zICsYj1fzgoSt29keakVs26xCWgIp3OSUZ+URN5mVmWB4ur1ghKtOYuyNSspG97DuZYWWi7LsNQ+xrO/83meLgK5FAj03bz/s5JEAkMcOqOk9JF11C1bQlmaAb3nIhcOfIt/uVzJ5ops8iyLXR/sQ+LXZmCy5bFc3cu+UydovdBJpORhKuvXUmGIMqqp4oEyPSq5jvSMbCxSH5Pn9/LuiVZaL4yjXPV7PPLwetYWfXAWoTa3kCx1H4G+o+w/eIHO7hEslWsoybGiX+QFgMqeRbo5gNaxj117Wrhw4TKa3BoKC3JIM+jRaq0UFecTvbiHxtPnOXWuD6e2nprHfocX1+hn+z+1llI8f/SYc4ooK88hr28n+5paab6kxLbyKR598hG2lFz//XzY+TNLIpOhL64kj1MMtjVx9Fg7w44g6VWrKcsyILdXUWyMI3G2c6CxkY5eB+bH/5oGWwSpMReTPY+67FTPCxNaoxK5fpxjx47Q3t6Mp+4ZVuVZqLVa0GfWUldsAPTk5ueh8fbTe/Yw+09dpKM3hHnb3/DCg6WU2a/5HuMR6DvC8V0n6IkXYiuqYvkn9cmkgvBr7hevv0KNOcjKwo/2lFhBuJPODnjo9Ov58pe/vKj9JMnk/BW7DoeD6upqvvPtH7B2zXoAksk48WiQYDhOMgkShQq5BKSJGHGZBo1ShiQZIRyOkZDIUKhVV4e4YyE/0aQMqVyJSjGXaSSiRMIhIrG5yUkSGXLl3HE+MJqXJJmMEvRFkajUKBWy90f7on44/0/8xs91LH/ofj7/cBW2JMQDTgbe/n3+bOBRnnv4Yb7UkEk8GiUUTqDQa1FIJEiYfZBGNBp5P34JQIJENEIkHCaSAJAhV6lQKeTIrl3oNxElFAwRjSdISuVIZTKUiQhRmRa1UvbBbVOSIB6NEInGSSp0aBTXT0pLQjJONBggHE+SSEqRKpQoVar318xOpND/gX5mTv+AbT/J4i/+/HG2VGVhTCYJjrbSvuub/PbYb/OD39zI2mLLbY0/mYgTjwQJRuIkmT1/ZBJg7vzRX+n/RJx4LEw4EiU2VxYhlWtQqRTXPWDnSpshIpHobOmDRIJCpUWlkCGVLL7/E/G5732uAkSu0qBSKGa/y2SSZCJKOBwiGk/O/gakChRKNWrlLdxzSOn8SZKMR4mGgnOP55YhUyhRKuUoZNe3ebPz54o4sUiQcCROPAESqQyFSoNKIZv7TYSJRCJE4gmQSJCqtMhiIeISOXK5ErUi9c+aTESJRsOEwrN1KVKVBnkiNlu5Ib+m3xIxopEwkVhsrhRGglSpRXPD7ygJ0QCN//YNurM3U7D+cTal34FZu4IgfGSffeEJPlcww+9uviMPRxCE2+L7h4d4ayKDgwcPLmq/RQ3RSSQy5Eo9hg9bokGiRKW5cQO5WndjY1IFSo0ihRUfJEgkSrTzNSxXQsVDPLfqOC3Nr/LPTQkUQBIZYfkjfPbhjWyssoNEjkwpR3fdIaQKJSrF9ceVIlWoUSvUH76Um1SBWqe4bhv1R1jBQopMoUaz4B1pCUjkKLTGhW+iS1Pof10ampoH+FrDMZrf/i5n30giAxISLUnd8/z151dTlm247fFLpDLkaj2Gm83/ksqQKbVoU+pIKTKFFo0CPjgOeYlj7xzmVNNlnAvsqbIVU7Dld3mukrmSISlSmRq1doHvXSJBIlOi1irneT8GtLPjR3tp73fgu3FvAPTFa6le/yTbS0nx/JltU6lTpnBe3ez8uWL2dyxf4IBShQq1QvXBuJRXFmJ2MNp/hrd/dIgx3l/7/XrpG3+XB+qLqbYpUKoUKD9w42CehqVyFGr5TYtDErEojq6jTBc/TGVxNeUWkTwLgiAIH787tIzdx0giB1M16zeqySp0MOWdm30okYFxCUurssgw3uXFgz9p5DpU9mVs26qje8SFL3RluFWPwlLO8tJ0zIsYZfxkspBTtJQVsiwCC2yh0KVhToMbBnJviRSwU1y9Em2Wj4XmwKrSCsg0L/DmPUGD3lhE7do4RSycQBvyTaTdgcoKiVSKNq2QSosVq9mc+lMRBUEQBOE2uvcTaCSAAVt+Pbb8ux3LvUKOVGYlq2wNWWV3O5Y7xU5RlZ2iqo+rPSmQTfXqbKo/ribvCj1GayXrt1XefNM7QCKVY8iq5FbujwiCIAjC7XKvDzMKgiAIgiAIwsdKPrss1Y1isdnb+h6vm+mZ6Y8zJkEQBEEQ7nHRaBRfOMaUb1FPYxCEj5UvHCOZTLJQPrwQSVNT07yrcDidTp5//nni8QQK+aeg0kMQBEEQhI+Nx+tBJU2gvn49TUH4BAlF45RX1/G9731vUfvJy8vL531jenoamUzGn/zhn1NdVXM7YhQEQRAE4dfES9/8OlsyvGyvs9/tUARhQTtaHDRHtSyUDy9EbjLNv8B5JBJBIpFQXVVzdR1oQRAEQRCEVBiNJkrT42wqt97tUARhQR1jftom5CyUDy9ETCIUBEEQBEEQhEUQCbQgCIIgCIIgLIJIoAVBEARBEARhEUQCLQiCIAiCIAiLIBJoQRAEQRAEQVgEkUALgiAIgiAIwiKIBPo2isfDuL2jjHoThOO3doyI34dnwoHXB8l5H3Fz94VCTqa9TqYCdzuSmwnh93sYn/LjBT6h3fkh7vX4BUEQBOHT6Q4m0DESRAjxSfvDnwRCREhwiznugsJ+B4NtOzl82Y0rmLiFI0Rxj3Rx6dQROsYgdiuH+Bi4xlpo6zjLudFP+ONZo5MMd3fQeKKHMeAT2p0Lu9fjFwRBEIRPqTuWQCeiTryBPvrCceKfpAw6GScauMRQ0IvrNgcWmRpgaNff86uzvTh84Vs4ghtH735O7v8puych8gnNmDwX3qX54C850j11t0P5cJ4Beg4dZN/LR5nkHkxA7/X4BUEQBOFT6o4l0BOte9jz3a/z7XdGCUZu91jvrYsGPZz7/lf5/suHOdfru9vhCIIgCIIgCPcY+Z06cCIaJhzw4A8nPlm1vMkk0YCLgCpMNPZJCkwQBEEQBEG4FywugY4GCE9d4sC+N2kdCuEJWUkvWMaKtQ1sqJp9hvjwibdo6Rvh7IUmLrQ6GOl8mR859WiUaZStW011VQnpzCbYrpa9HHJkU5GvRRvo5FjLJQbVm3jx2RVkqhUo/D30Xezh8qSa4kc3UQjIgMkLR+gbDxHNeb9dPIO0njlAY0sHA04VCmUBNZu2cV99OjajAlffBS6dPcLpiQDNjSE6FQeRTowwnGfCnFXCimuOn5J4GAb2suPdZtonvJBeSLpZgoLrbrWHnLgHujh/6DSHx0eJxO0UVK9jzeoaaov0i+r+VPqf4SMcaw0RMpewel0Jxrldhy++RYtHjyljKRuKMiARB3cfbYebONHdy4AXjGkV1K5/gPvrzKgUczcnXD2Mth3l7fc6GANsFWuxTI3iQ7eIwH2M97XR2TNOsHg79xf0cXp3E1O6pRRX5ZId76Nx3yglDz5EoU2FJjJB38WTHDt1ks5JKZBN5cMPsqGmiCKzGkjx/JknEs/wEZpaHYTVJdStrCfXOM9G92z8PkKhEJGIAqPRtIjvRxAEQRCExVhEAh0hMNNDx3s/Y89FP0q5BkV0lImWIKedCdLzt1GyiJwqGY/g636Pd5rTaE/XUaBx0zsjJWS7ZvWJ0CgDrec40mpA8+gm8plNcF19J2npcOON1bChygCM0/7em+y/0E53GFQyA5qpZva9OolM8Rusrc1HnXpoNxf3E5lq48irP+Vol46IwYxVN8awd5qhXojmXtnQyXjXSc7sPkajQ09Sk4RgH+3HZvD7vcgMD1FtS7XR+ft/sCWI55r+l+Ggr6mRfvkEuvIS1toSV/vnhGQllZuXsoEw0fAgza/9F8cG5Uwno5D0Mt17kt1D46hNX2FFvhZjcoyB1gMc+tW7nBnJJL1YR2CqjeH+ccZkJRQsost8Ex1cOnOMrsh6Nsga2bPjVQayYzyijiINN/LygQC/u+l+cnHQ17SXQ8dPcMoTRKm0w2Qnx3c4iQUeg9XLKTKneP5cI5mI4p04z54dx+l1GSmsK1lE9PdI/K5eOlvPcWZIRd39L1CfAQqxzo4gCIIg3HaLSKBDuKc6adz9Jpcafsr/eKKO5eZeOvef4HTLAAMBKNRC7ronyV0H9Y1qDujG2Fv6Ar/5VC5G9fVjuwlgksnRbgancrhv7Rbuf3obFbY07Kr3i7MDXnBOXh/LDEHcOAGSUfCcZser79FXsok1L77A46VaVAP7+Puv/5g2WqotAAAgAElEQVT2gW0UFOezvGgpq4uWssw/zSnXD3jFsoVtW7bymSUpDUF+UNhJYOAA331nlKoX/povbF9PqbabE3t/xN++Beb1c9sF+2hv3Msr73TBi1/nLzba0Xsbef3ffsbZI0FkNZuptilTbDRKMDjD0NAolg1/w4urssiNn+Tdl3/Fm0ff4cgT28grBk3uUjJ1O2nvPcvhjidZu0EJntOcP+dFWptJri0DYpOExo/y0++/ztjWP+HxrQ1ssE1y+dROvvfP/5tfNjxNbpoaY7SD5vPneOeyiQf/6G/44kY7gcFf8t3vHOXcBItIoPXo5XL0OOgbGiCQPEu/c4Yh5RTOy5eYjvfTql2B3SpFFW7j2J59nBg3Uf61P+ULKwqh8wCv/fM/cuqwFYmlhJxVJmQpnj8AiVgIr6OTw7tf5hcnstiwbRObNyxNcfT5Horf52Cw/Qz72qQk6l6gxi4SaEEQBEG4ExaRQEuQypQoNFrGxgfo6cskoyyb7Ide4NnHtGjVtzgjcUJF+RPP8PAzj7DKcgv7x6IkWps4E6ikculGNlblkwYkCp/hq39ewLiliKzFVBukIBkOEXU46C56gd+4r4bCfB1aSqip28zny3dx4Mq1wnAfw6NuzicM1A7v4JWXZ0fQHZNJ4qY4bvcUkJ1iqzqseev5zJ/WsykSQzo9wtjUIDOeAaJxKaOTkCgEZOUUV2Vz1DnAmQvtRBtq4PwJzts2s66uhrpcwOUh0tbCEUrIcrVy+lAP3UDQ4UGl0zLjmiQatZJwTTNDBsG65Wx7IAMloCndzAM1h4h0JBa1KoTOmIbOkkvPwBAD9JBZX0/AZ8Y/2M+kcRplXg4ZUhnyrjY6pq3EijbycEM5WQA123jumYP83b4hzrW0snXVRtKvHPim50+cgGuYCwd/wKvf7afmxS+wcuMSshd53XRPxJ+7jFVPZpC9MU5mDagW9xEFQRAEQUjRIhJoPfa8NXz2D/4Sdu7g8Ct/z7/1+5GYtrDhia/x1S/Ukc0tJNFrtrGsdgn1t1iymYjHGR3tJ5xVidli4MphpAoF2ctWkiGVI7vNo3DhcJDR0QES8cJrXtWjUtvJyQPZtYPtVhOm2nzuW7eaPGYT6MTqtSSNFqyFLIpn+BInf/jXfHNfB5nZBRQsr0cjsZJV6PrAdoXFtRQ2+mlsbOXUl8qg6V3Sir5OcXYm5isbyWVQUUhdwypWZFsxAclEgsSjT0KRjgwjuPqncLmuX6rOjsWqw5LmZXoRsevTcyksqqL08ADNtKNdtoWii2piA5cZyB+lsiAbmUyKwzGK36BAl5lGStUtNz1/+hjtO0vrP23hz58r5CcdJ2mu1FGTX4n1Uxe/mYwMIzb77HkmBp8FQRAE4c5YRAIdIBb3EohnsPoLf8HaSIhwsI/2c420X/whu9q+zRcrQbPYdT0UKhQK+SJuNU/jdvpxzeWMEqkMmz0L5ZQPnyeAD7ADsZCbjl/+ET8JPsFD6zextcq+yMAWplSqsFvSkfaNMxMIEwCMBIiEnTgm5kaCr/BI0PgsFK9eSz2gANwXj9A+Mk5fspQ1ufO3cYOpC/Sfepd/OZ7DZ//2a6xKt2I3wnDTW5w73sy1DwWUFa6guqabtaM7OL7bCLszKPi9QnIyDO8nVXFgQEZWQQ21ywrIBCIzI4w17eZAZxk1dsgymDHE5USGHUwCWYAMJ153EI97cX0mMRjR6jRkdR6iiTWsfqoS+WQnAx2X6HOayF+bjUwqxWKxo/GP4Jh24wJy5vafcQziV+RhN5tJu/bANz1/ssmtyOD5l77E/dkOvP/7X+htVXMoO4unq1K/ars34pcilUqRisxZEARBEO6oRfypjeObGeD8/pc5OJJAaiigqCCPHEUUSd8A425IXDP5Sa0xoFIYGLzYxSWHg/HpHgaHhpmcXMTayzoDWp0fpecCnaencExO0Xd4J4dOddI8MbuJRK5EveQB1mUOMnT2CDsPtNE3cZnxjrfY+cZRxt0yEjLN1UNKpFIstjxmhifpHRpicHqY8YkeenpniMdTK0qQ6gzol9SwLHSKjqOtdLQPM9J+lvP7drPjMoRjcxvayyjIM1IcOsObOzoZCUYIOc9x4eR7nG3pxSNbxLB72ENgZpCe6SAmcwkZGUZcvY2cPnmC89fXiGtyySvKp9Q6xZ6XX2ZPspbsXDuZxrmrG40ZZekqHrReoPVEC+e7p/AEhnB072fPOweYjOmJSRQosgvIscuxD51g77uXmBh33ND/KZPpUes0ZBnbaQ+VYdYWUmhzEotFGJ+ppn6JGrlcgrK4gbq8MJL+w7z21jkuTY5w6fQPee24F5+8lOL8XFKtGp+lRWvMpnxVGWk5tWx7YCmWiW4uHDxFm+dTFr+/h/bTb/Gzt97itBOi4skrgiAIgnBHLGK8WIlMrkOnDjN+9j0O96ZhUEwzM6TCmL+Z5VkgvyYd12WUUlhVT+nxQxw+MIhV7kdvrqaivJ70dD0gAcyYUaBZqEl1Flml2RQXdtC8eyfSApCFp3ElDJg0BvQAUjlkNbB1eyuJE6MMHN7JriE92pkepu3beHBZFZUZ7y8XJ5WryFqxnSXOUcY73mOXQ41JpcGctYXcPNMHyy8WojKhKljL8481s7/3PI27R7lsCDMxGsVktIFUOtux5mIqV69i68wUu0/sYH+8GGtogNFJCer8Qqrz5ynOVmlAP08xrC4TW9FStlaf5PKR94ikBXE5R+kNaYipDbh9XhLJK/2qxppVQE5BLu6dZzE++TsUZKdhvZK5qUyoC9fx/PNnePNcK+0HZ3DbEiQmhnCYq1ldbsGolYOmhMpl9dx3+ShNu3fy3qSZoHOEiZDq/f5PmR6dIZ3K5VJ2e/OwydPIzTZjKSpCyxIqs+ZORlsNDfevxHfgPC3HdvCuJwsGTjBoXM/y5WtZU3ilb1I4f650p/nK9gYKVj/O0q5XaZxo5tTFZdSsSfXOxD0Qv7uHgaad7DqdZDD7AaqW6VFIJSl+PkEQBEEQUiV76aWXXprvjUAgwHe+8x0efeRx8nLzATlqtYmc/Hxkkx0MjjgYnQwhTV/G0vuf5dGl2g8k0HK9EZPdRK6kna5LMzgcXrS2AvIKC0g3qiGRIDztxCfNZ0lRNrn2+Wb66dEa1KgsUfr7+3E6p5DXPcKKggyWZmWSll1JRa4O0JBevoQCTQBmBrg8FsaXLGP1My/y0LI8so3vZ8USmQxNdjHZigF8k6MMDLgIJ9TkVNZRaNchSynhUCCX2ylbWkR4ZhjH1CgOXSaWygaeKVSjyV5NdaEZg0aD3p5DfmEOue52ukZmcHht5K3Yxn0PrGdl7vWL60UJBAP4JAa0eStZar/mokRtxWDNosrkpmt4iOlpD7qKLVTXrWKJXUPEXM6aAi1KmYRoNEoyNoPXMUr7CTdr//gv2FxiJu3q0KcMmdxITu0y8mMj+KZGGXBIkZjr2fDs59laZcagkgB6LLYsMnONuAfaGXZO4y1ex8ribFbk5831vzaF/gKQIwN0Cj8hy1o21eSQbpISNdow5peyqjyf2fRfjSWviAKbGqOzm45hN4FEBWuffZ5H1pRScaWIO5XzJ+YhGAwjMaSRv6wSOyBVZaDVe4hJE4SjGSwvT7txv3s1fvcIY22tXO5xEqp4mC1FWlRykUALgnB3/OL1V6gxB1lZKNalFz65zg546PTr+fKXv7yo/STJ5PzPCXQ4HFRXV/Odb/+AtWvWz7eJ8ImUYHJ8lOnBY1w+3cSrr6Xzpbf+iNUWHbf/v7AkyWSUoC9E7EMeNylRaFAqlahSfkqNcCsS8SjDTXtoazlDYPtLPJYFalEPLQjCXfLZF57gcwUz/O7mvLsdiiAs6PuHh3hrIoODBw8uar879ihv4W5x0Hf+l+zdd4TeZCklf/VHrNJpuYXVrlPgJug7xXe/8QqXvEGCC2xlX/dbPHj/wzxSfEeCEOa4Bs4yHJGQXPFFHssClUieBUEQBOGOEAn0p46FylVPk156P0GJHp1dh0ExW0F7++lRaVby7O/n4o/FF1wXWmnOwbqYNeOEW2LIWkK1NUZMbhAjz4IgCIJwB4kE+lNHicmWj8mW/zG0JUcmT6OgItU6YuFOUmhMmD5sRqIgCIIgCLeFGKcSBEEQBEEQhEWQu93zPxHD6/WSTCZpv9j2MYckCIIgCMK9zuNxc3kywJFLM3c7FEFY0OXJALFYjIXy4YVImpqa5l0+wel08vzzzxOPJ1DIRaWHIAiCIAip83g9qKQJ1AqxBJPwyRWKximvruN73/veovaT19fXz/vG1NQUcrmcf/h//5GVKxpuR4yCIAiCIPya+MrvfJEn85x8aV3O3Q5FEBb0kxMj7HUaWCgfXohcoVDM/8bcqLPRYCLNKiaJCYIgCIKQOoVCgV4lx6ZX3nxjQbhL9Co5EomEhfLhhYhJhIIgCIIgCIKwCCKBFgRBEARBEIRFEAm0IAiCIAiCICyCSKAFQRAEQRAEYRFEAi0IgiAIgiAIiyASaEEQBEEQBEFYhHvmCSmJRAKX20VSb0CnUKC+2wHNIxoN4PKM4qaIHKMMzeJWRAEgFArhj4SRGE2Y+fRf4YRCTlx+L35pPoUmkH3aP7AgCMKvo3iSuD9KTyBKPJlEr5Jj0SnQq65/yEocZyDKuDt24zEUCrRaFQUawB9lIBAlEE/M05iCTJMCi/baPyhR3NNRohIFap0CveqatwIxxgMJggoZVpMM09zL7kCQmbgEjVJBplw6Fz/orQosSgma+T5nOI7TH2U8PF/8MrRaBQXaFFOvaIKAP8ZgWILVrsAiBQUQjEZxhqL4JApKdApkkhjj7ijOQBwAiUSCVavAolOgkElmj5Vy/1+RJJGI4nRESarU6HTX5DRJPrz/NQoydQosCghEogxMR2/cRiZDptVQooMrIX6oeJy4Pzjb/2oNFp0MjSJBNBLFOR1jBgX5aQq0SskN28eT850PH929kUDH/URmutj/+hFCtdtYvaSYCssnb13JsGeMgab/osnwezy+1EauaZHdGxpjoOUcTV1O1GufYHuxHnVKZ9Z8IsSJEkCHHrjVo9xp/okOujrP02V5kS8u06ORLjZSPyEUgPITeVElCIIgANEoQcc0P2n24FPKyJZKsCoUqM16SvOMrMyQo5AC0RC9/U52XvTj0iqw8f5AksqkpywvjYIcCbhc7LjgojsCWoUM47VtaXRsqjCxXKueTXKTCQj7OHZ+hjG1iaoyK+syrkmmvB6OdURxGDQ8sMJ4NYGeGJ5kv0+J3W7hWbuUoMPJT5ph/UYLq9KV8yfQfj+9Ax7eGwuRSEaZ8kEiqcCokaI1qcnPNlFQnmJuEAoxOuTlR5elPPGZNJaqpCgAn8tH85CT43I7f1klRx8P0NI5w7GRCCG1HCuQSCYx2QxU5JmotqvIjqfY/1ckYkQ8bt49MUMoL5t1JTqqLHMbJBLgcnGsx8+gP0IgGscTlCKVKLDpQZpm4uESAyssCaYmXLxxwsWUXoFZIuFK5ibXqEjPzSC/WI4shQdVxsIRHIMT/LgzSkZhDg+V6KgyRJiacPH2CTfdeisvrjWzxKoAf5CB4Rn2XfbiliiYDoA1zUBDmZGGXDW61Hr/pu6RBDpI3N3N5eMH8StrKc/Ng09gAh1zjzN54mccLdjOplLT4hPoyBSu/ma6GifQ5TxEvCDVS7MbhT1DTDoH6NWsY61NhXLRienHIzTWwWDT2xwrfYzna7VoFvnIV9/YGXriGaiMJVQab2HIXxAEQbjz4lFCzml+esKJodxErSSJ3BllTOImpzzKn222U2GUogmFGeqdYe8ZD/6aNNYpuJp0GWQqIuE4JGXgn2HHuWkua9VUZ2soubYtqRJXIkEE0ADJRJLwpJM3T49w3hDnaZOOFRkarg5CBz0c6wgwZLWycsX7qbh7cJJ9k3ryEgaetUrm4gfrUj016QvkIMkYwUiYSW+QcNTDgdMBIiY7tbkqipBjNCyiz6IhRsem+fFJGSsfslI5F3DQ6aOjc5yfqsz8t4ok+kCQzovT7B2KoSgxUi9N0uPw4exxUeBN8tmlNp7Rp9j/c3+CE5EYztEZfnR8GFeNFo1NRZlFyexf2SQkQrgCESa9PvpGvbQOgjIjnfvzQSVLEAwD0SgzYy7eOzHOTL2d5Rop1rlURB2XYgrFSSZlpDLEF41EGRme4sfHPRjDBrLS1VQpI4wOTfO9Y+NczlWwqtZAoQlcwzPsPjXCfzikrMvSMery0d/jpceXIM2WSd1tGm27NxJopQ1d8bP85f+zDmx2UH1KxxqNS2l4tJCGLQFIz/hIh5q6eIhDe19lb+m/s+ypXJTqxSWm94runf/Em/715K75LSrX2O52OIIgCMKCpEAaX9lSwGfLdVjGXLx3coA/Pt5BMsvMN6pVVACgINuaxtZtS/i8FTTX33mPxef+Yeax5Zn83mYrSz6k1UQ8wUi/k55onO7JID1jAcZrNBTciXGlNCsb0qxsaIji803zf7dexLchn+dWWtlkvQPtXaWiJs/Go58p4ClLEghz9kArfzc+w5EBHU9VS0ip//WzRwsHowwOOOmWgGvIS++0iekCJZkSQCaD/Dz+IB/Ax5HDQ7wW8KF/agnfKAH9lcwyGAZkaBRGvnxfBc/nyMm5DWOfA64I08EY8VAMrzdM17VvBryc7/ZwdNzAH/7WlfPHw5tv9HN80sPxiUzqCj56DHAvldhKZZCVDUrVzbe9l+n0sxcJgiAIgvApps/QsaLexm9nJDjQ68IRmKdW9jaIJ5OMTPvIKTJRq0ggHffT6rkjTX1CSAAVGWY9+hj4fBEm59nqw/o/FI0z7vKzZKmd2mAI12SIHv/H9gE+nCuMMxhjKBxj0hNOYQcDDSsLeHp9JvWLuQNwE6mPQAf6GO08w+59Xpb+wQss0WnQA1MXT3LxzBn6c57juY121L6THNt/mSnAWhKi9Y1dnOyHSNYqtn72CbatXkouQCIGU+3sePOHHGweYMhlwZKxgg3b546jvDa39xLyt/Pav7aif/BRVlTmUKC9Lr6ZSxzb/xp7jp2m02tFWbCctZmjtDbbWf3UQ2zboEfaeYbd702z9HOZXH5vN6ebxxgij4LVD/Kl33ySJVc6xDPIQNNJ9u05xu7hEaCIFVufZ/v9VVTnz1XPxILQ+TI//M+jNA7OQO4SivKtZALzTWlIzSDtp9s4fT5CzlNPstkGV7vhSv/fJP6+d77PsYu9nLh4ka6uETz6f+KbF1SoFJnUP/oQa670fyo8F2hvukDrkJaaa/pn+MRbtA/4iRRvY/sK7Ww/tBvAM4Jr5CKNXV6U2grWfuWLPF2bR7Z+7pLTN4K/9Rd8+4fH6QxEMFSso8gwxg1j455B2pt2sWPPu5wdlt3Q/76xXtp+9X32jkNzYy+DvggZp8cZfFePSlfIQ3/wAjVz5ycBB9OdZzj0xj7e6u8jFM+hsuFRtj68lg1VputbXoCbgYsnOXvmHA5LKbS8ztnoUlbXWTC7hjhxzIWz8kn+6g/up0CnRHmT+D9oGo8nDOgwGlONRxAE4d4nkcrRa9WUWJPEpoM4ogn88xYWfxQxojEvje0aSjamUyKfISYJMeIFPtX/5UqQSiRIk7Ml4PPlJfP2P6AjgtsX5NwlPWuezIJgH9FkBEcA0H/MH+NacgkssbFmMETCEaZVFiEWi/LgkjSOBOeSJa2GbLsCm8TBDw4MUrTZzqo0FfZMPYY4cBsrPVNPoOMBPONDNO13kfXVOLG5PCDs6Wdk4BinFY/zVCKJOjJNX+th9veCeW0Dy5Zs5+EKJ23Hj9F5Np8sexG5RSqi4RGa3/hXTjoysVVXUKcK4R8bp/tnr3Cy9Kssz9ZiuvpBY8QjU/Tvb8RSs5HKspxrAksALtr2/4yT3UESBQ+wVR/FMXKanQNVbKmvpKbAhj4+w/j4RY7sOsKR5HaWZa2kbn2A9N4Ohlt3s+vMJorrzMgVw7TufZ2jTeOMpS3nsZql4O7n/LGf8J7ss8S3bqbW4iY0dpLX/v0VLkbqKVm+kuzMONMTbexohmQOtyiAZ7CH/kY38s88SSJ5ff/fPH5LUS3V2hyS8gjK8CRdGctpWGNBqzSSk2lb3LkfdTHeM0hLs4G835ydeAsQmGqjd9CN27yF7UkVuPtp3NeBW59LecVS1mRFiQxeZOePX8by1Rd5YGk+mYwx2rGPN//jVwyrtrBiuR2z0U9f1zDN/WAovdKom94z73DiTAfjaffxWI1urv93c8IoQ5O2nBydiazajTQUgmr6OFJvLllVq1m31IxcaSVLIZ/7jUzQd24vh99upM24kvserEbuH+JS17sceNcFxufZkNLVRBT/RDedJw5x3GTiS1XFyN8+wQFXPsVlZvIyo4ztPUD7sxtIywvimif+/mO7aZ6Lv/jaHHq4iT17GullCeu3phqPIAjCp4EElUJObpoGqTtJOJFkdu2KGFPTXl7b2UGz+spUICXFBRY211qpu1oG4OP42UFc4xNYYLa0IC+TP6zSUWqYG5qJxIiMu9njUvNImoEqTZBzo3HOjQUh97Zn63dVIBBleMxHRzAJ/gCHWr1Mxy3UWlWYgOANeyzQ/4EQ05MB9vt1/Ha2gaxSFTsDMTqnw5C+2CqABOGIn137uujUSdHJAOTYrAbuX5vJKh0oUi2lkUjBqKdUP000GqB7WoIxqKQmR8WJ3rltZCpKStJ4MhxH1jXNd3e5+UW6idUVNjbkaSm7jYXLizpULALuKUhem9gRIIYTN+8nWEFfALfPis26jg2PVFNocnF0/CC7nOOMTISgSEY8Ok1X00G6Cr7B06se5ZmKKL7BFk68M/r+sivXSiZhygWR62/xJAEvA20nmdE8RtX9v8XzOUMM7Gvj56fyWXn/KpaX2VF6ZxiOxHBN+ZAkK6hYvY41xTKmTv4Hu3fupKnbS7zGBO42Gk+cZt9lNXlPbKa8TAtuL2d3vsu5C0vIrG+gVucmNHyaV9q0bPry4zz10EoK1P2cOzLJkR18lCHo2Zohl3eB/r95/LaqtdiqIEczgcLXjrf0Ph5+OBfjLdZAh4Pgc13/qpcIXnzXvOIa9sHacpZtfZr7MpN4L75Bx//1c85e3ERpbiaZyjEmBjp5ozedz/3VF3hidS760Fne9XbS3HbdvTS1hczydWSWPsxj+VF8I6/QufddOi9VULxmOcXZaRSsfYwCwD747/j8ZeSueZDPXF8D7eqh8/wp3m7sR/O5h3mkxII2GGag6RgdLVJ0a7ezITfF+bjhIAQjKIrrWPXAKgJHT3EQK4aKTdxX3onj3UYmPHHCcT/jvS10jkQIrd/O058pQB87y/FfdhG2zH/pGwqF8BIikFokgiAInxpymQSjVonkVuuRo3EigRgeAHkSknDtAnLhQJSBnmk64wqWTwbIIsHITIyuiJeRVRqyuJdqWT9MjHGXh8MdUnzqJAQijES01JWY2JKrRkdongR6/v73uUL0DbvoiquYHvWhCUsZGA0R1AaYXKIi/WP7TPNRk5kWJxLx0uHUkO3RkF8Gsv4r70tJs5nYsEyBTeXgF0N+BkZd7PaGGXXb2F5uofY2lXHcoUmEmRSXVbNt21JKLABWTGYF6qv1MzKkMj0ZhRWogqMMdJ6iMWxGq8+g7PNryM9SX50JenMSQI3BaECViBHwTTHpmcIbBl0sTjQ5e0U1e8GqRaWqYuvT61lWbMSsBL9Gh8l8zeGG+xgIKZlQKsmZPseR47MvK9IKMBmVyBI+EuEQgckJhrMepHx5MVmZatTkUVK2mu2lr7Lnjk3NTCH+u0VTT3X5cpYXZZBGBH35Zh6v+BZvjg0xPl1D3OjB440yUfgIq1ZnYjIqUBuXUFtexXDnAOeuHshEVvlGJKZxHK422s568EZdxGSjhKJevIupwXKMMekK0aO2sSbYyqlGkAEBZTppJjPyuBsWsaCNwWxi+fq1pGcMY8+RU2EroaKwBtP02DVbqTDacjHphpgYOsupMxNoNWDY/ABlWXas1zeXu5otTxSxGi02MfosCMKvmUQiSTAaA6UUlVQyl5TIsaVZ2PrYQpMIr/xDz/o6G19sMJINIJWAUUna1WwwiTcU4cKgG43CxGD3NEFplL6xODGdm8ZAOo9p4NMxsypOIB4jGgozGZMAGlY0WNlcpKPYIIMF/nbe2P9JJjxBese9aORSOlsm6PNHmB6OoND5aA1ZeHBR6zhIUSl1PPTg7ZhEKAGU5NlUdHp8nB9N4JWpWKVPcnWhsXiccDRJXKFleUMhyxsidJ4d4weNo+x3hQkqdJTXKlHx0Zf3/YipXoJkMknihhFXKzqtlbQFZ5wqUKoLeODF/5P43rc40vx3/K83JpjxF1K+6U/54z9+kCqTCm1Kn04KWCkoLsZ1vJ2Lh3yECoKMHb3Akk1/SqHZyPvl0iqk0jwy06WoPuxLtFnJSi9iw7q6q/XCiZWriJpsZGdBJBLG4RglES0hkUzOjbxrUaos2DNAescuZ1OM/45KkEgkPlheApCdht6onSsRUSCR2knPkDLldeL2Bwko/DhnJiEWJ8GVuxUGtDoDlrRrjhML0n3oDV7+5WscGAtStaSK/LXrUGWpkd3KhYLRgKnSxoZ1GyhgNoFOrm4gqtFjyL6F492UhaoNzyBT7+W9Y//Jj37cTWdXlIy6r/Hci8+wbW0xmR+4OEwjNzdtoYMJgiB8iiUJRWIMTgWQp6mxK6SLX6NXI0dnUTPvf+fJGMFwmOEZKUvy9NiNUvTKJLnBAFM+F40DSbaWST4lCfS1q3Ckus88/Z+M4PFH8YTk1BboMGlArpNT5HYT9vloHU3yYPHdXRa3MtdM15lJutwh9BV6cghdnUuV9AUYdEQYimvZWKFBgYrKFYV8JRkk2uzjaJcTR20G2XDj/KtF+ogJtAuvx8nkOFC+mP3CJBKjjI4nKN3+f1D/vNn4WVkAACAASURBVBZ1fIS+zt38/Ht/w44za7GtUlGYUoF/FDjDwV95yM61kpmrxO3QUPnCD/mzhkqsulvINMdAn5lJ6eo11M29NLH/RxxujxCMF1BZqiE7PQ9p9yhT/hB+wISPcMjByBDEb9MSKZ9MDpwzfpzT173cP47L6cUN2AmTiI8yMpQgu9xOmkGPXmfErrWS6BpiLJagBNDMd/50vszbBwaZKPkd/v67j1IvkyBVOth3+XXabyXcGVDNGClYvYZVzM4fmDnzDqe7xul3F7Dqto/6OnC5fKgK7+OJDS/y5USIeOw0//Wtb9N9IRN7djGPFt/uNgVBEO5FYVw+H2fapWx92oxdq3i/FvS2HD6M0xHgxJSJdV8p4plsBdnKCO0tw/zq7AxdzjDx5Kcjfb418/S/38nQZIyeRBqfebyUz6aBRhri2MEe3h2PMeKNcNfH7A0qctRycjRyVGYVOYSuluE4HU7ePu7iHb+Zb1bk08A18wbntr8dyTMsJoHW6lBZZWRE9tOy/wWyl5nQ9O1l7zsH2DUAeYtqNkk07KV5xz9wrupFVtWtoN4WIOb2Ir3kJRRK3jjC+SHHgijh0AADLUYIyjBq1Yy093LSaKaqKoscvZLrF+1YUOlG1lRe5Fcte/j3/7Dx+9uLsE3t4/Vfvs5I8RdYt8KExJBAXVvPZr5Ly856cpNJgnRydvdr/PwSmNcuqjPuCK3eglploavpHM2roUDnIeTRoNPayc1Nceqx0YzB6EE908rZvU+RuwT8p3/OjgPNNElqWXPttvFTnDtqpyTdiq4ihGdgF/95MY+a+wvJStchMWSRVpZNg+9N3v3PzdgeLMQyevjG8ycWJBR24HXO4B3z4NQMcvDVf2bH8cvotkD1dSFa7fn4+jy0tXfQXpiHOeFkaspOSXE6+tw6Kqs6qLq4h2/9YzF//rka8oKNHH3nDVoCSyh9/nMfuZ9vFGeweRfHB8LEVr/Ac2VGwIekz0NMGSEav27zmePs2H+aAQpZ+cCTrLmj64QKgiDcTbPrEzvGvVyMeTja52R3h5/W9Bz+Z4mcDA1cmQwSCsXp73dz1gOqq3d1ZRjUSiptqaU/fneI/qkgXRkW/iRTQZZehl6ipihdR4ndy+vdLoaXp6PONFBtcNPRPcm33pXx3yrk4HXwrQsBfFl2qm0aIPTB+JUxJq62NFtaUJmpxKC+jbegDSrSMlWsC4/xD2/pidRqKZd7Odw+wdtjch7cYkApW0x7N+9/95Cfy/44jgwTazNkWBQgR8OSHB2NrgCnB32M183WQafacjyRZGTIQ0tUxujVMU0pcqmSpTlK5It9YJxBRbpKzkqzkpJcPTLc77+VY6Aiw8uhIxP899dV/PdaFYaQn8MtXhwJHWty9bcleYbFJNAyG9a8GjY+eZD3Tv2Ct3sUmK1GwrYlrApPEef9ehKDhXmetpOBET2zLyuQKzIoX76KvqHznNvdSbssQjQQRLXuD7m/QoPt+smx/z979xkex3Ueevy/Mzvbe8HuojeCIAH23kWK6r3SsmTZlm3JimucOLlJfK+VPHacOHJcYktWLNmWbdmS1TslSiRV2cVOAmwASRC9Lrbvzsz9ALCIRQJYxKLzex5+AXfPvntmZvfdM+e8R5KgMA8sJxhRzivBbQjgG1FOUNHReg9Qt/hN3tl1PdfNmMScAJgsECw8eoqFExNhggfjd1Qw5fIrUW0rWLvjBZ75SxBHvJt4/lwmTq5lXL4CRjeW8GzuvKeRl7ZtZuXLu9jks5AyFDOrso0eWeakZ1g4bJB3/CxqSPEPsheMZtT0WSxc9iZvPLcNm5Qir3Aa48d7hl7GTimkqGY0NZMbeW/JoyQ3gt3nxxGpYqzu40N3ifKqyTPF6N3yMo9tiKMm45Te/HUWTqqkzGUEU5j86rnceVcnz21/jSX9dgx2E2lrMVOKkofPn8K5LJiVwLStkbef+RNb7Ql67FMJlydJKRL98RhH1tEJTryKWbGVrN/3Ik//xYXDqJI/6hbyi/04HIVUzVjADTmNN1a+wutPr8eWipKVq6maNpOZ5cM4SlYHeI/Y3MYbBuvgSW4xQUEeyBLgJlwyisLudaxf+VceW2sBWugNXcXYcRMYd3SJ785dtKxexqpULZTNZ7rvgq6rJAjCp5gkQbFPZffuLuROCZMuU1wV4uIyH1M9Eo7BzMZuBZuSoX5bCzELh+e3mga2wg4GXHiBsBtcJyykoRJLZOhOagQq7YywGLAaAAx4bFbKPDacrQk29euEfU7mjw8QpY+3d7fzeL8EqRjxcIhLR3mZnyeD/uH4421HfM8bJHC4uN3lY5TliC2+DQbwWWGYO+weolgoLPBzz4IMv9rTw9sbo3wgpenUzVSNCfDlMuXQejGXw4jrY1K6j+//HPujGZKSgXCxjUrl4EitRJ7bTrE1x9r+JBtjMN8OpoPHxWoE9/FHpc0KBNwa+3a18XKzgUP1DGQFm9eNP+wjIhuGUF1OQsJEMQYsigl/yEq1zUSJT0aKQrELLEZQrA4mVQe5NdrJY/s6eD5rxJjT0S0eZpT6mFd4+hapyffdd999x/uPRCLBAw88wFVXXEtRYTFgQrE48RW6yOQM2CwmfCMmMXpUDZNLwuQVVVMZsWI0ZNGNTvylxRQWhQ/tT6+mVWyBERQX5hPyWpAkK/78YuxSDnQJTXLiDlUzat51zK12YDcdmQ4OzDPOGPwU1IykyGc/vNONloXWlTy/TsY3diIz545nZH6EfLeRVP2feb61hLKiMsYX2NENRsyePMrGjiBgHCh1pmU1jCb/4fhlM45gPmG/h4CcJoENi7OKsXMvYdrYCoo8RsCILHsoqCxGMeSQTRKmSDnFNVO4tCpCsHQcIwqc2MzDvWhUcroZs6+A4qoS8i1H7OStq0OMf+AJstWB0+uj0B4jkbRgVhyEiiopLsrHO+RpLVYsDjvOPAe5nIbVYiY49iImVJRQW1pKpKiMYr8EB97jyd1FjBpVwthyO+mcFUeghnnXXs6kAiceE4AJs9VHfkURci6OZDVhLR3D6FE1zKosPhy/M0zIY8ftkMkgYXXkUTn7JiaXBCgoqqAonEfxEdu4K+4gAaeEQ1bJZKxYbT5Kq2spCDixKGas7iDh/HwKjTESWDDbyxgxaR7Tpo5lZHCo/aCh6jKyM0JecTUVXh0VBUdkFMXhAAGbEd2WR0ltFYUOKwFfAI/LgTmXJqlbMJuDlE69mmkTqigLHHXxJqO01tXToztx1cxiav4FusumIAifOk8+/Ti1niSTD87H1MHgsJDvNBHxWKks9jBzVIDLSy3YJcPgiKaGbpCw2U0EnAoeq4L74D+niZDPQkXAjFXT0a0WKgvtlLqU45Ro1clmNTTZREGRi5k+E+bBTFw2GFBkI1arQknEToHZSL7XTJ5LwW00YLIquJ12JteEWVjqoPLggqwj4vcdGZdNwe22UBWy4DXLh5JBHUgbFAoL3VR5jfiGXYNYwmJWKApbcUk6dpuCw2GlotjHRaMCzPFJAzmCrqHLCoGAndKgmfCJXudj+18jndaQbFYqCh2MdymHBuYUDMhGIy6nmYKglQLTwfxEJ6tLmOxWSiMORjoGyjUffEHdIGG2mgi6FXy2I/rMruD1mhkZsuKQDB8/KqwDuozNaWNS2ILLJuPz2yj1WwkrYHBYGR+xEjAr+OwmIgEzHgksNgWXw0btCB+zKl2Mdh07br5ub5S6uIMvfOELwzo6Bl3XjztZoqOjg5qaGh74xcPMmD5rWI1+onJJqPsdf/90iryqamaPLcQFaNkkHWv+zJP6Qq6ZPZ2rRovd/c6IbAxW/5jPP+9h8qWX8dmFNZw/S+JyqLk+mna3Eh9c3Hg8Jk8BPp//2Lsip0Em1knd2y/RlLPjm32LmMIhCMIF45bbrmNRSTf3zBveJM8Lm46qZdnbkiau6Rw9q+8gs92C32Ei76wVDPikZGlqz9CXVjnRPpSKxYTbaaHwDI0vPfTWfp5rC7Fs2bJhPe+MFVz7xBhNUHsNn297kVfefoFfLxksWixboegzfOnz05hYci7UebtQGUCxUV1iI+yVT7kszCcrRjq5lqceeJwd/cnj1sgECM68i4ULLuWKM7D4r6dxLZ3uKoKRaqaI5FkQBOEClyOV7uOx15qpS6knrP8fGlnEFbVBrgud4AEXBA2I8cr7LaxoTnHMlhODPIVBZowv4u7iTzK2j3f+J9DIQD6j5nyR8mlZ1EOrDw0gW7BYlNO5c6NwNMUGE77BN2slZEU5+bnfZ4Ubq2M+9/5gBrnj34gBwKBYMZ2hNxasXsBs3YBBOl3LGgRBEIRzl4LN4uc7t3nJ6ScuOiIZJcwXQIb20QbWDX3uCiefUU+8B50kG1DOwb44B0M6GTJGkxWj6cLalvP8YADFjv28/JViwGAwYXOevbRfMprOsx8dgiAIwqkwGCTsx+wO82klYTVLnI/ZmziCgiAIgiAIgjAMxtbW1uP+R1dXF5qm8drrr7BjZ90nHJYgCIIgCOez1tYW3s2eaJavIJwb3t3VQ8bs5UT58IkYOzs7j/sfPT09aJrGilXvsXX7ltMRoyAIgiAInxJd3V1sSGRpj6bPdiiCcELNfWm8JVlOlA+fiLG2tva4/9HR0YHRaOS+//vDc7uMnSAIgiAI5xxRxk44HwyUsbNzonz4RMQcaEEQBEEQBEEYBpFAC4IgCIIgCMIwiARaEARBEARBEIZBJNCCIAiCIAiCMAwigRYEQRAEQRCEYRAJtCAIgiAIgiAMg0igBUEQBEEQBGEYzpsEWtM02trbaMlkOFf3Ncpk+jnQupGNrTlimZNrI5GI09LdRRugndboLlzRaB8t0T66TkNbZ7P/T8f5IwiCIAjCmXd+JNDZPlIHlvLUz3/EY4s3Ut+aOtsRHVe6p4m9S3/FSxua6Ixnh99AfDf17zzOYw89zFNru0llTyWFS5Glj24u8EQ8upnVLz7CY398lje29Z1aW0Pqfw3oJkqW030WnvL5IwiCIAjCJ+L8SKAZCNQJuADTWY7lRNR4N73bl7GlqYtYOndSbZgYeI9OTu3gxNu2Ub/2Rd7c2U9G1U+hpXOfhYE+s52Gtj6u/7VsipZ1j/H2lt3s7Tm9w8Sn4/wRBEEQBOHMM57tAIZEcWMpWMCd3xoDHi+YztUU+hTZK6iZE6ZmSgp8vlNqqrdhPeuXPMGSyjlcVmTDIsunKchzjGsMs68pZjaAy31qbQ2h/9VMkt2Lf8libxhpfj4jvRfouSgIgiAIwgkNPYHWc6jZLKm0huKwoRgMGAAtmyGbzaDKVqwmGYOeIZ3OoQGSrJNNpcjkQJcVLFYrFpPCoVROy5JKxkllVFTdgCSZMFsH2zF86MXRDTmSVgcGZEw6yIaj4tNypNMJ0uksWV3CICuYZJVsVsZkMWMxG+Bg/FaJXDpFJqOhImM0mbHZrSiH2lJRs2lSqQwpVQWMmMxWLBYF5dAL65BNEE9kyKgayEbiqQzqcI/Ah6hkjTJZsw1JA7MEh97mkf3/EfHnUnHS2RzReIp4SiUb7yca7YOMCcVixnRk/38cLUs2myWb0zGaJbLJJJmcjmYwYrJYsFrMGNFBS5NKqqCYUA62r+tkk/1kDRYUk4ykZclks2iSETJJMhgxKRKSppLOaOhGK06HGXnwvBq6HGmTCVWXMGpgOnLYeEjxD63/tWyGTDpJrD9Kf0onnUiSiEWJRkGSFcxn5fzR0XWVdDKBZjCiq1lUTUeXjFhNkIqnyUkWrFYzZpMRSdfR1QzJZJx0TkfTJWTFjMVqwWIc7DjtzFy/oKFpYDBIGAzDO8KCIFwIdHRNI5EGowKqppPJauR0AwZZwmGRMRnAoOtkcxoZDUxm+dDnqppTyaqgyxIWGdIZFdVgQNd0cpqOLknYjDqplEZOkrGaJCxGwxDu5OqkMyo5DOi6jqbqZA0SDgUyGY2sbkBRZOymwbY0jWRGJaXqg597BsxmGZs8+N11MP6Br0QyaY2MqqMZJEyKhM0kHf7e0XXSWZXkYD+AAbNJxqYYjs1xhHPO0BPo+C6aPljOX57uZdoPvsFEpx030LZpOeuWL6e+7F7uvSofW99Slj6zhRYgb3SCFQ8/xpJ6SJfMZ9FX72LRgqlUAGhZaFnLXx/5Ec+9V8/uziDBorlccedgO+Yj07w+krG1PPi9FbhvuoO5E8uochwVX+dWlj7zII+/uowNvXmYq+ZySVEjq96PsOCuW1l0pQvjB8v5y5NtTPtaEVv++jjL3tvLbioZcfFNfPcf7mIiDFysfQ3sXvoaTz/xKo/vbgBGMXfR17jzhslMGeEceL1sAtb/D7/475d5Y2c7lE+idkwFo+AUkugGNry7iuXvpin70l1cHQHLwav/YP9/TPx1T/2EV9ZtY1l9Ew0NrWjmf+W7b8soxkJm33ErFx/s/6HoW8eGpatZuTVG7a1eVv3qf3ljU4IOzyTm3vJZ7r7jasZoaWh5jr8+sgfz7IVMHmw/m+zng4f+ntXu25g+pxx3dAVvL3+b5sAYWPG/vJ2ZxoKZeQQ6d/Haq520j7+LB35wPSOcFizD6rOtLH1qFfWxfGpuvJpL8oYZ/xD7v23Tct599rc8uzfDlg0x4tofaVj2Mi+EvORXT+WGs3L+pEkn9/DSQz+hwV1Dcu9adu/vIx6ZxFfnpnny319lS+hm7vjqrSxaUI0v00ey4T0e/NX3eXVTPx2xIirmXMP1X/4Md9aGBprsPBPXbxpNa6O5BQKBEBbz8I6wIAgXgGyGRHs7/704yegZZtqaunnjgz7WJEy4SkP86LZS5lplPPFe1m7p5Z1WIzOvL2IaA5+ru7c0s6IlR7owzJ1VKk8v2cMuu4Nkex87urLEPG6+PVrjT890sMET4SuXRLhzjAP/RwalA2neXLmXjWmJvkSGtgN9rFb8/Gg6vP5GFyvSbmbPzOef5noJaxr09PHHpbt4oi7Ojn4ToYif664p4TtlZuyyAQ7Gv19l3EyF9xbv45W9Km02NwtnFvDNuXlMOPjy0X4Wr9rLox90saZbxmJ2c/X8cr4xyUa5+7yZYfupNYwRaJV4X4IdGxKMy+kcnFWrZduIJraxI62R0wEtQ2vjOl7cAq7eK7n+Cw9zpbWD1X99hKYNH7AuPJKK0VYyyQbeeuSHrFcWctlXv85Ydy+d27ay6vcP8nrtPzOn1IH/0N1xHT2XJL6hHtPCxMDrHKIBHax89kFWdeRRfetPuSvQz/5Nz/FQ70V85RuTmTO5krDeREPfATaseJWlxtu5Zubf8zcLcnRuWc6GrW/w7JtXUTMniGLaxbtP/p5lG5KkL/k2v/62ETpX88xfH+Ql2x2krdcyO6+T+N4l/OL+Z2kvvJk7bxxHmb+T+i1v8MdnwRM52cORI9feQbyum5QGHPk+dZX4EOIvu/gOFk2JMWHd86x473U+KLybb10WxGG24YmEPubD5Chalt7Wet5auovXs7ew6Mqf8b3P9LFz+bPsqH+fpatmMGayDbQ0e+vi+Kqyh5M/PUc28QGN5iuozqnYe1po3ryVN11j+edrv0jy4RdZvVKlaloNN9zQwTtPv83m5qsIl1mwDGtWRI70vgMkogYyR6/5G0r80/wfautE/e8bMYm5XwhT2dvH2ke/yJuOq5g3fTpzKt2Y7S7yOHgx7fgEzx8d1DSpXR/wdjrErCmzmC1tYum77/OLwBV8+ZtX4Xl0L4ldTeyb7Ce1bynP/NvDbJqwiFuuHkOwv4Xda9aw8sH74d7/4tZqsJyJ6zfWQf+mP/OPv3qPmlv+netmj6UmMJxjLAjCeU/XyWWz1DW0szgTZHZ1Pl+4tpA7+qK8vaaNZzaHqBptw6PrdPeq7G42MIXDH8NqLkl7Okt3TkfXVFItfbyZM3FRhZf5hn5eq+vhx648vnZlHr7lSeKtKRoqHPg/dnGMTrqznzWtJnwFLhZWyvQubeeHvgifn+LHuzlD+kCcrTEnbinKH/+yi3cCbuZeVsRXZI22xj6WP7eNB64ew22lCoW6TndvnDe2xHkpF+HOiaP50awcdVtb2d7czeKdHiaMUIAM76zey7tREzWzRvNtP6S7+1j81j6WB0ugyk65+YweEeEUDWsOtKZCMgb6hxLYDCoJkkf8JZs2YnFEGDlhNtOnlhKyx9BXPUJbOkpvNAuY0NQYbY317My/gbHB8YytNaKWlRMMduP0mbAePc9AB2IJUI8en9OBFF3Ne1AdYygdu4DZ+Y009S/lx0sthCqLiITcWPqb0FSJTMpByejpTJw8lvEFMu1qA70NG3i/PYWm6dC0mXVbG3lvv4nS0S20dZghnqW/uZ6mPY1UdsaY7Y6RaanjjdgYrp93MfPm1pJvOoBTb2L1K+/QdSq3XrI5SKZP0P8fH78rUo4jAkrPGtp2W9ldWsXo0YW4LCc3BzqblZGkAJXjZjN1SiUl3jS+pmV0be+mozvNwaV76STkPlQ4Qgf6SZMjC5DLYjYqlIyZTe2UHF2vPE+fs4TiUfMYl9nAtkffpT+pkTuZkiGpDKSPv6Dv4+M/+gnH73+zy0/I5ccX7yIeltnoLaCkajS1o1wffuAnff7oGiRjhMpGM3LiWCK7Otm/fTeN+QuZNK+BpsdfIJlIkehsoaNuGy/t8LHgO1czf2w54Uw3FaYory99n2cWr2RO+SQKOQPXr2LFGBpBTU2MkgI7dusw3p8gCBcMXTeQSElE8lxMLPcxJ18m2wn92/fxRFQlldNBHvgYTh3zMaySQxuofqQD2RyRPCejy50UtGZoPBBnjy/A9NEJ9r3XRiKtEh/q7bysit9tZWSpnwmWPurtLSTdPsaPyOHa20l9SiUaz5GK9fBEo8S4iX4W1niplTU6HAak3l4e39jDRL8XvwWyOQMGg4mRpT5mVdopt2v4u7roOJClPXbwS06jszvBrpSZSquTccUmbIUWHFIKS56C+wJdtnQhOUOLCEMUFY9i5owyIg4AJ3a78YjqGUZkxc/IqfOpaNnPvvVP8XSjGaPFR7ByGiPcRsxDPnkMgJNgOIje08O+fZvZqrXQ1tSJx+FAMR7ZkA3FVM3cBTVUFdqxK2AyW7AfOR2ks5V2g42kz4lX7uZAM4CDwrEzyKsM4jOnUDMpoq3NdPjGUVAZxuc1YSJCYVEtc8vhpTN24g8h/tPOg9eXx/yLqylxg1kyYrGasFqTxIbZks1up3L0KDyeJtx+mcJAhMJQKfaunWck8gGnL/4hOUvnT2F5GeH8fFxdVoIhO8bCUXjcfcjGgUs809NBsqWdfaEpTB5ZQsRmxmmLUDaigooda3l0Wz29uXEMDH6f5uvX7MZSOo9FnxmLPRLBIxJoQfiUMgA2plU6GZ+v4FWgW5Zx2eBklkaUhKzk+yx4YjIht4zid+C15TBKw28s7LVQnGfFnYvhdxsY6XcQdCRpMkqQgVw6R09rnHq7i1vCdirtMm5kTCE7M4oVfrQ1TkfKRcYCYMTvMHHpGAdldjAbZKxmA1YT9B/qByPlRV5GNmv0Nrfx14QMBgP+oI9JLiPO86PEw6faKR6iLLlclswxvxRdWCwu3K7jPQdAxmjyM+bi27l+wwo2Nq5m9ZpW2nvtOAs7MUTuYEqeFfeQojMAEjZriHTDPpq2LkZpTxM9YGDu7FrKvM4j5tQqSIY8/F4JRTlxi9hc5HmqmDpjCqWDf8qMLKPHkkfYCaqqkoj3o/cnyaja4LQFI7JsxW4/uQ+CoRli/KeVDUVx4vMOp6yehq6nSCVBO+E58Ek5mfhP9SXPvfMnm82SzqUxuB3YJMOhhYCqmiGTS2GwWrAYDi64Od3Xr4IsB6koD57+NyYIwnnGjMdqwDqs7zCNTE4nc2qr9E+JquskMjl0m4xVNhxa3KhpOslsDkwSZskwmFTJKLKRgOOjvndkqqvyuN7cy8qWKGv2ptjbrWN0polbCri4wEL+J/Y9L5yMoSfQBgMGyYBMimxKJZdTyeXa6O5sp6kVqBnOy6bR1BYO7Osjb87nueP6IF7pAA1bn+U3P7qfJRtvpHyGFbdnKG1lgU2891ovgRIvgYBMX4eH8qt+xHVTSnDYFHQYemUHoxlTt47D7yQ4opZai4ykpdn74nK2dquk5CrGV1sJRUqwNuylrTtKbyaHkx6ivfvZsw/UEcPpizNjoNqBRC6TIaOqqKqGrhswGCRk+TSmkgYDSBISWbRsllxGRTXESfXvZs9elcQpVpY7F8myETWnksvlyKk5DOhomoSiyOfs+WN3enC7gpgb97CnN06pVUEhQ1dnK83d3VhLiglJ8hBrrA/z+tU1dDVNLJlFNtswK0axwlwQhOMb+ErBoOtksjqqDNlcipbeHO39hrO2D4RZkYl4bTi7kjT1Z+nImnBI0JfIsrMzidFvJahI2IfU2sDixdaeLPaCIDeNK+EbUpZYsosf/XY7q/Z5KXFZyD+1arbCGTb0BNruwBKQiaRfYc0rtxOe7sFS9ywvPr+Y51ocR1Uz+HjZdJy1T3+fd7ffy5ypM5ke6aVjbxvUAye1h0QDO9d2Qp+BgM/KrvdW8jwwYUIRZW4LzqE2U72QeePWcWD5M9z/Ewf/eGc14dan+d2fnqFn7NdYOMcDLh3ThIlconyfD54aQzirkWATK1/4I7+th4p5JxP/6WV3+rFa/Gx5dyVrpkKFo5tkjx2HI5+K8tN4VUoSRAqJmH/Pvo1hNpaXYbTvZvcLv+ChDXH8lafvpc4FkmwkXDiK5hUNfBDeTonHjTUVp6cnn4kT8lHO1fMnr4r8SeNZVHAf999XSuqLs6jSlrP8hWW8unMcl/zdZEzDuK0xrOs3006s4UX+6VfvMPKW/8NlE0cfW0VHEAQBwG7Cbcth7+/h7XVhisugd8s+/rShlzVmL1eerbisZqwVIf6maBN/WGoiFgtyqT/Jti0t/OdWFxfd6CFoUz68+P9jbNq0qclHJAAAIABJREFUlyWSi6KqELeEDCTiKbQmHarP3NsQTp9hjECHCJRO57KvruYv6x/mT9sN+CtrcU+8itubGuji8K0Kbx7Ej8lYi/HiwQuAGZO5lIs+cy/JDdvZ/MJGVmdzGCQrtkX/xa2THYNzL48gS1BRBLYTlMAqnEjRiCChmjKCeo5cRyc7X/gOr224k9svvYirisBsg4IKkD40x9SLhWIKDsZvzGfC9XehBJazYsVzPPaAC3NGxjv7Xq6dM5eJxRIY3Fg9c7n7B9/h8SXbWfn8ZlaEw5gK53PvzHfYoxg56cWzHicUHn+EeEjxD3KUjmfiJb18RV/C4j+sRtayFI9eyKyZ4aGXsQOcHsgrPPqvIRxYB0f1FZAmMOezc3hxVR1Ln/kJm0J+vDV3cldXgn1u28CPF4cHgsWHmwgWg33gbMBmgYpCONnNXvJ8YD3+j4KPj/8oH9H/AJLJSuTSr/EF/WXWb/sDv11nxOuLUDv7c4yHT/78kYyQXzlwcsCx/VwYAo8DJBd5I+aw6Hv/j8BTS6l7cQsfpMEcWsht117JNROUQ7dUT/v1m06i768num4Na8obqCksocoxtHEaQRAuHLIMRWGwfOgDTkbGThGGgemWBisjKrxMj6Z4ctMefroT/EUeaipVSnIKLgDJAF47KIPfGRYF3EcsrgiYwT6MGapuK5gHPwAVGXz2gdcAcCsMzJmUsNid3HJjNd41Xazf0cTvVQOKycUdiyJ8plKh2AokwGWH8DGVhsw4kQe/pw2AmRkTCkju6WPtlv38xweAQcM4sZqbRjoYN+RRP+FsGcYZZsbhH8mEa+9Br46SzenY8ivxm8HW30G324dZkcA1hslXRqhWfBxZjato1mdZmPXiCDkACUlxE5p4NfO9VVR2xoimQbG48RSMpyrPdOi6GGDDZK3liq/6MFeFiBx58akq7K2j3hCioGYSM2aPJKDmyHW34I49y9KOHjqjaTBHCI2+mFu+miZiNXPwUvOUTWTiFUFKD8aPjDsyhvFznQQio9gdMwAuwuWVlBX48VoHuk02hSiZczVXe6po7YuRdgZwuD2UxifR4iwk5DqZyUshysbN5apADrcXlCPzuCHHP0C2hckfcRHXGn3UN0NOBX9+JUXBYQz92SsZMdOOfbRCBA7Nm80bcwmzCrOoATcDHwQeymfexOWRVlq60ih2N67S0UTK7XTaRpEf9mD2zWWefQzpsIRJ9lG74POE5SJ8QQ9+bQrX3luBs8CMe9jdVsy4BZdRlLUTOHrO7pDiP9JH9P8gg6RgyZvMnHlGCsr76OwHi91NYbkPo/xJnz8KirmQqTd8m5HeYoo8dswjDvazEZNcyexbbGQ9BYTtRkyWMMVjL+dKAozoyRLLWXFFSikaUU7JwVJPZ+L6NftQii9h9sg1tOQ7sQ9v8qMgCBcCo4LF5+e2y3L4/WYODnnYnVbGTirDb7UQsUqAgUDQw9zJRpztA7ezXHkuQhUOyIHqNKEoRmZOLWOUw0qpzYg57OMSs5OUx4BZtjF/RpiMzUL+x5acNwAK42oLyZes+N0SHoOTi6aXMskjk2eyMrE2SEnOSNBmQJKMRAr8XKYrlPdm6cjJWK1mikscjDCD0QBYbFSPlHEUSRRwOMkKFweZ79dQnQc//yQCBX5mWyzk92bozIBkkHD73IzPU07iu1D4pBl0XT/uDYeOjg5qamp44BcPM2P6rE86rqFTU7D3Wf7j2RZ0l5/KIj92QFez9O5Zz7a8i7l86ljmlHnPdqTCR9KAVrau3kFrd4zjF/IDs7+EcNmYT0Ed4Q4atu1m775OEid4hGL346mcwfjQ8ZP9c4WajtPbXM+qZcuxzbyZ6tJiwmIvFUG44N1y23UsKunmnnlFZ+HVszR3JqlrShI9wSMkScKd72e8WxIJ66fYQ2/t57m2EMuWLRvW887/QimyCcoXcNPst3j3gx1sXLFt4O+SGcKXc8PcMYyOiHsh576BDXH2bF3L1saOE5aYc5TnqPF+GhLoHg40bGbd6l30nOAR5kA5Jd4ZjAme4wl0NkmirxV54s2MKQzjF8mzIAhnXI7O3hhr6vtoPcEjJKORAquPCgcigRaG7fxPoJGAECOm3cqIaWc7FuHkGYFxXPPFcVxztkM5J1Qx+6oqZl91tuM4dSZHgKLxV3I2xqAEQfi0sjK20srYyvyzHYhwgTqHx60EQRAEQRAE4dwjEmhBEARBEARBGAbjnj17jvsf3d3dqKrKw797iJdeeeETDksQBEEQhPNZQ8MenupMsb31RKtaBOHs23ogRtbv4kT58ImIEWhBEARBEARBGAZjeXn5cf/D6XQiyzJf/uI953YZO0EQBEEQzjk7dtZx81krYycIQzNQxs7KifLhExEj0IIgCIIgCIIwDCKBFgRBEARBEIRhEAm0IAiCIAiCIAyDSKAFQRAEQRAEYRhEAi0IgiAIgiAIwyASaEEQBEEQBEEYhvMqgdY0FVXX0c92ICeg6zqqmiWrgn6SQeq6jqppaKc3NOE00zQNVdfFcRIEQRguXUdVNTI5nZx6rn6jC8JHO28SaE1TaW5p5kAmzbm6p1E608e+5rWsbc4SzZxcG7F4jAOdHTSDSM7OYR2dHRyIx+g924EIgiCcb6L97G7q5b3dUTYfOMkvS0E4y4xnO4AhyXSS2Pcmv/nXPxOf/y1uWDiNWcX2sx3VMTKdDex98Ye8GPoJX51XhttsGl4D0c1sevUFnn2rDftN/8J35wRxmE72N06cDCl68BPkPPqldFb1kQCSuPGf6CFaBjqX8sxPnmB38GJmXnkNN452f4IxCoIgnKdUFQ408903+2mUJGzWHJmcjlpYwm+mO3GbDGc7QkEYsvMjgZatmNwjmDNrPpnqfAqdytmO6Li0dIJESz3NphjpnDr8BkwBCkvHsyDdg6nYhkk++Q+T3oa1bK9byQfBr/DFcR5sikihP0775ldZ35qit+AGFp0oKTZIYCtl4sRZlHjLKfGZP9kgBUEQzksq6UyMxW+20KLkMabMwVhvmgPNvbyyai/PFY3iigIjecMcdxKEs+U8SaDtmPzjWbioFBxOUM7NBPqUWSKUjLuYklFpcDlPqal42y52rX2TVZWf4XO1brhAu+x06m1YT932Pjpyl35EAm0ERzXTroiAyQwWyycbpCAIwvkomyPZ2cOj2zSqb/Jy7Vg3421Z9tsN9K+r582WDFMDMnliFFo4Tww9gVbjJKM9tLZncVcU4zLKGIF0tItoTw8JayGFATNyrovO9hhpwGTX6DvQQlccNKuPcGE+YZ8bKwysssv00XyggY7eBImMCZPFSyB/sB3pyIsoh6r10dTehxErXpeCTT4qvkw/ne1NtHZ20581Idm9+C1J+nrN+ApChANGiPbQ2pbGXWQh1tZKT2+KBDZsvjxKSwtwAQaAbIJEdxdtbZ20JpKAHW+4iPw8Fy7bYJfpKkT30bC3k65EBmwuDP2dpOAUFjkmiCb66O7VsJrdBE1wqBsO9v/HxB9v2UNnNMaOPc3saU3SZ9zBtm09OMw2PJEQ/oP9PxTZPqLdffTGVRwhI337D9Ddr5JRXHhDYQojQRy6Bpl2mg8kkTw+3IPt62qOaNMO+oxhPF4rxlwfPT09pBUH9B2gR3Pj8ygomSRdnRkyrgJGVeRhM0pDm24y1PNHTZOMdnDgwN6B81C34fRHCIf8BFzKoTjbEzm27e1iX3OcmKOeLVu7ACvB0gI8diuHx5l1oI/m7j5UqweXbMF95I+TWCfNnRlUs51QxM3BwZRY9x46MzZMNj/5LuVQ/F0H2mjpjdKf4SPO/xPR0NQEHU17SRodaKkoiVQO1eyk0KvT1tBJzBQiUhgi7LOjaDnUZC9N+3fR2a+SUS3YvEGCBWHyHYORZjrPwPWroetp0hkwKWYkSdwNEYRPGy2dI3agnzWKhwVBhTwbgILTZmVspcyr0TSJrBk4+stdEM5NQ0+gE400r3uNR/7Qy7xf/gPTXA48QOe291ix5DU2V/4D372hEEfv+7z9+Boas5A3XmfTY0+ybKdGLDiZG+65h9svn0uNYkBXU6Qb3uPZR3/Bq2sa2N/twxeezvyb7uZrn6nCazMeTh7pJ5VYxaM/XIb3znu4eFoloz80QKuSObCeZc88zFNvrmR7vx9j6SSm57ex9YNiLvvKIhZdYYd1i3n4d3uZ/K0qdr/4HO+t2seubCEls6/hO9/7JnNNMiZDjnRbHduXLOHZ59/ixf17QStj8lV3ccfNc5g5JohZ0tBTPcRWPsjDv1zOO/t7MVaMY+SoUioycPKLivexdeW7vLY0SeW3vsHN+WA5+FmSaKR5CPE3vPknXlm3jWX1TTQ0tKKZ/5efb5dRjIXMvuNWLl4wlYqhhhPdxOYlb7N0XR+jPxthy2//wFtbY7Raqpl+0+3c/cVbmS6nof01nn9gB9YFVzLzyllUAblUnM1/+n+84/0yc+dX4e1dzpLFS2gMTsG54RHe6B3D7JkRwv2NLH+1naaqL/DQz++gxmPF9rG5o37c88cbns68m+7mm4fOH5Vszz72rHiOh/70IO82KOSyxYyaeTM33Xwl184pQs4kqHvmZzy7K8rKrXU0t+vYVj9Icp0ClHLNP36Z2SPLiBx67SywiRcfXk6sej4zrpjDzCMnTDeu5OWn99IbquEzd19EkTTwnO1vPcjLPbUUjbmGL03xoqtxkjvf5a0/vcpTazewtVvFG57G3Ju+xNdvGY3faeTjZ/CkyaR2s+TR+9jumojWsoHGfV10e8fw5UsMLP7JYtY7ruP2b3yOz11Riz/RQdfmN3jkkR+zvD5Nd3+E4qmXcOXnb+WuqVVYFTB0n4HrV0+iphrZuTtNuHAEHpcTMaNIED5d0jmV1v40athJnlni4Fe4WZHJ89jZ2ZEhntMQCbRwvhjW11gqDvvqQc0d+dcuUjSwj8NVI7paNvPSq5t54v0JXPYv7/DSy0/y/bE9JDd+wOqNvUCadHIHL/3qe2zy3cEX//11lj77U376OR/pR37Ciw0JOo5emJtToX4vxJNH/YcKNPPWEz9jdayaOd95icW/uZ+fzmhjpekWvnf/3/KtaydQCqTinWxfv5j7fp7BPvN/+I9HXuLhr89nRudSnny5mVRGBbay9I8P8sc398Gd/83Sxa+z9A/XEKr/Bc+9/BpL9wKZdmK7/8o//eB5+sd+jf/769f5/Q/vZl5+K799A1Knsqi4pw8am0/Q/x8f/6ib/46v/9tD/PTvbuNvbyxh8te/z3/d/wC//Nl9fG72QD8MR393A++/8x7/8VsPtXe9zG+feI7/vjZCeM/7LHmn49DjWhoh2nPkM3PAdlqI0w8Q7aKrvoG3Nji48u5/5Tq1lY1r+9hXOp+vf/NiFmx/h01NQ61ecvzz50ef87HzkZ/w/KHzp4ENb/6JR3/9Oj1X/Jz/ef4tFv/lS8xRXuPNpx/hr3WgWJ1MvOd+vvcfD3H/Vy/ii4smc8nf/YBf/uwBfvmzf+KaimJCxwuhsRm6o8f+vTqEX20ht6uebZ0wkHCvZfMLUez9XkaUeIA+kv3LefCb/8KL5lnc/O9/HozfTP1vvsIvV0RpOk7Tx6WqsL+OFavi+EffyI0TJxDatI77t1dx139/lVst7bCniYa+VprqXuSX3/kx9bX/wHd+8yp/fPifuCHYyJqf/isProdkdqDJ0379Rtvpf/t3/M29d/Jvz21jQ9sQ35sgCBcWyQABC3mKjONsxyIIp2hYc6B1/ejkGUBDJ8eRS+Z0zUdpZRnTrpvH5HI/LpOLsnyFzakc2ZwG6KDnSMVjNHTG6YiZUUaMZeQl+Xx5RBxzqQ3v8ebs5nInKLCskUnGcLh9hPLLCOcB+SFy66OkTUYMFgU5C7puwWis5KpbrmTuxDLKAxKtoSD5/jQ709rA3fldm9i0P8767jQVO1/lqS4jpDtobesm1t5Ba3cfBJJk2w6wPng9X7pkKrVjC8mTzUwYP5NrC1ey61R+QGs6qMcvYDeU+I0WO0YLuOwW7BYZxe7E5XLjspxcUJrmxBeoYfZtVzCjOo88e4B42ImvN05v5vBR11TQjwk7h8ZgTWtdx+3xMGvhVVSMjNJUbqTTU0tN7TyK4ysw5XaQU/Uh1s82YbKWM+frv2aMrZygImPp30EmuZ9MfCN7mnMki4GOXTTsiVFvmcXtV86hNuDG6V/IwuudlPXbcboAgwHF5kIBXDYzNkuKuN2By/UxlTVUbeBYHc1YTfnIp9iweQMvvbeDy64phLqVrLQUMbIonzKvBLE+0pvX8GqXH6VzM+tWdNJhTtPd0Ekm1s3O/S3EJziAoaymGbgox0yfQe3kGvLqG6ke4cI97lqqqreyybyVhKqhtjfTWdfI0tRM7rzsIiaVRwiqAdzxFjRe54nnF3PV6AWUcwauX7sPy/iruOuucvJnFlDoG8oxFgThgiQZkAyD0yUF4Tx2hhYR5pEXKqVmdAC3GcCCySwhH0q+FRRzAVOvup09dY00rfw5/7NaR5PDFI25hktNBgxDHhuXAB9FZUW8s3cfH2x8g2B3Oy0bd5BXcCUeq+WIN2nFaKxk/IQCIgEzZhmMRgXTkYUUYlGidhdKiY+KfBcWAEsJk664kVxpBaW+LNl0iu62JqLWyXiCbuw2IzJ+/MEKxpdC4xm7AzWE+E87D05nmIkTw/jtYDSYUEzGk1rHaTKbCUbC2Gw5rA4Jr8eNx+XHlB3uG5DQNSOxhq28vvllMqqEx28hmTARyO8nk9XRNIh3ttCZypAprKImz4MdkEwBSsfPJJgF/YxUQnRSOr6W0n2baHp/Mzsuz4O1b5AruplwYT5BBYhn0fqjdOSXMqUkSMhnx4KdvPIJXLSoECrAZR5eFRdvIIDb48FiU3C6zOQ8YWzWRiRp4GRMRXvo7+qkp7iWURE/XpMRC24CeUGCXiPt29pIaurgXaTTfP0a7ZiDE7n88iosvgB2UbhEED51FFnCZzMh9Wfpy2kkYejrcQThHHSKCXSKTDpF/JidTWyYFBt224mfKckKkVEXcYmzgYaOA7S0t9DavokVb0RxVvw9FxXb8Q/pi1YH+on3OpGSvfS2rmNNfw7VNIabZ9VQ7rMfMY5nxGDw4HIaMH5kkmsjEKpg4vRZh+YLJ/ZuYb/By6G3pOnQ1UcimyM7lDBPi6HGfzqZMRodOB3Dme+TQ9P76e/TyZ1aMZHjS/eRalzDE0+8x16/k4KCCHn+fKwehaIA9H9MoKmeOna2xehzjeey0cHTHp6ndAJV+c3s2fkuK/aNhLe6yb+oiJKIj8M1OwyAh4rRE5g8MkIAUBNRovvr2Gk0fmLlcbKZBIl0Pwa3E6dBGpx9eLqvXyOS5CYSEfWyBeHTymg24g05GLksRmu/j+4cFBg10pkcLd0ZKj1m7EaxOEI4fwz9bJVlJJMBi9ZGb1uSeCxJf9tOGvc0UH/8KbsfIYuqdtCwrY500QymX/1tvnbvt/nSTaPx7P4zq3em6Dt6qvMJ5YBdbFrViTkhETLq9HdZ8Y35HJeP8uOyyQxrLM8RxK9q2GIpErKPvMIiivLMZBrXs3dHGy3dCorVhr+4glDLDvY3tNLSFSPWtZ+WPdvY0DgwXftsk40mZMlEf3cPvckkiVQf/f0xksnTnO4bDGC2YJb6SEf7iPYkSUQ76dqzhg/25Ogf8nEchmQHqR0v88Q6E6Mu/zKfvftvuHLWeErMaZKxw7N87IFiwk47trbtrKproTOeIBHdz/Zlj/LUU3/m6c0fmrSNopjRNQPR3j56U0mSqV6i0Tjp9DHzlj6avYhIiZ1i71qWvfo6y7ZWUxwuIOIfTJ+NZmRXiKJoF+mkEaMrTCQ/gE+O0rX+Xer3SiTSp/cXksUVJC8vn3DnFtZuP8CBnn56e/axu3EP9W05QpUV+GV5iNUOh3n9amly8Sbq6rawrydO4hy4PgRB+ISZjJhCLi7TouzYH2NDR5oDvQnqmqMsa9S5qNSO/5jyWoJw7hr6QJfNhS3PSrHpXda/Vkdwqhvr7ldZ+sZK3ulwMeaIhxokkI65DmQkDIPzngzkMml2vPUQS/cmmDJ+GpPDUdr2dGBo8WCVDcevQGA0DiRsxyO3sr8ujqQ6CAVUDnywlle1NKMnV1ETdBNg4KnyMe9YwoDx8LrfynnMmbiK/a+/ye9/7cR+RzWR1ud48qWlZKeOosLnBoeOecwkrvA/w6ZX3iWkZemX61i7+CVebjJSoRpOfn6XZAD5+L9rhhT/ILs7D5c7TNP6FaycolJu7yIT8+HzlVI9IjD0cI57LCUMyAO/viQZ8oop8tRTvz2fDe8UYnDupfH1x3huZ5bAmMGydAbDhxuSjBy6z28wgFEe+qQ4g4xksuKyNdBRt4s9jk76d7zKK888yeoDVi7Kqui6DoUTqJ24lYmbn+HB/8zHce9UymNv8s6q3cRNs5hdU/WhZt3BEhR6adi0hpVjU0Ropq+3mPLSEgoLXB+OQZaOqDF4NDd5+eWEfQrv/O8DMPZvubHYO1i2CXAEsYy/nC9MfpKHn32RbDxGqrqf6LqX+fOrdYz4vh95yLtYDp4UB6+Lo/v5YJyBCvInTmRR1TM89PNnMH5uBhXq27z7xjreaZvK9XeMwzyYPZ/26zfdSWL3X/n3/3yTqs/9gOunj6fWI2ZACsKnixGT0cXM8Vm+v7OZ1nSSOkuO/TujvBwPcX+RhEeU1RfOI8O4Uxwmr2wu13x3I794+Zf87gON4NQrqJx/O9/ct4XdHB7O9kcgdcyt+zL8+Ae3SDZjtlZx9dd+gLTkJd5/9n3e7Ncxuwop/spvuHeGC//RzzfKMLIE7CeYNVU6ixHjQxTWlhLIpsg27WXNc1/hiVVf554br+a2KrDYoXjk0UmoHwtlFB+KP8j4m7+JO38xb734LI/+xIysham55vtcetFkaksA3FidF3HvL37Ibx99mZXPvs+bRdUERt/Efa7XWWuSOenPAa8bSo+fPA0t/gGO8slMvTrFd/kdr/zvUrJZjeoZN7Dw4uHV4XD6IHLMU/Jx4RgcrVSAycz/0hW0v7aBJX9dz8r8Eorm/gP/hx+zzW8fKFfk8kO47HAT4TKwDNZ/s1thZCnIQxx9cBXjnPEtHvjKz3n0g6f43eoUrqqJFNz6n3x+459Z29VOKu0CPFTMXsQXg4WM+MMfeOXBpWTVPCom3MXNC2Yzq/rDzXrGXc4VRg3Tkmd59McvIqMx8YqvEiwtOTaG0nzwuY79+yBHXiHVk2ZzzeatsOhmqkPBI1admzE7qrn6B48Q+uNvWbLqYX691IUnMJqF3/87rpvtwvMR0yc+RJahqHrg5IBj+/lQnA6CFfP4zI9+RdFDD7L4uTW8n/QQHn8z3/jm9VxdCtbBBPq0X7+ZFDQ1wvatbFzXyJTySmo9Z2JujyAI5zLFpDDtkqn8cmMTj9f3sqRLJuwLcf9dIS62yJyRZSmCcIYYdP34dQ86OjqoqanhgV88zIzpswDQckmS0QPsa0uiajomTx52I5hSsWM3UpHtuCOHk4ZYyx76VBtm18AGFoc2kuhsoyeWJpUDSbFh95xgI5VcH027+zDmRfC6rIc3UskloO4h7v6dysjZs7hufjUBTSMX7WD3S9/h/3bcyO1XXM7np3iHthGMZACypKNd9La305E2AFZcgSABjx2b+eBGKgc3kmgjmkyTszgwW2z4M130WUoI+21YTcOdz5Ug2j24kUpBwfE3UhlS/AN9lstE6etsoq0PNA3snjx8Pj9u6xBXAB7cSCUp4z5io5lk5wH6EiqaI0y+byDZz8QO0NYZpS+eRTLbsPrDuPv2ElMihzdS6UuQc5VR6ErT29pEXPJiczmwa3207o9jLiomYJUZSrfpmkq6cx8HehMksypGuweLw4HS30KfpYQSvw27SRroh1SUvuYm2lKg6RbsHh8+n/s4/ZAlneiit6udjsEycq5AIQGP6/BxP7iRSuPgRio+94c3UjlIjZOMdtLSGodQFRGXEeuHfvjoQJpYSxOd0QSxnIJiduAJBgm6zEgnutPyIUdspGIvxec0YUx3HdHPfbTtPTJODV1NEG3aS3tCJa2ZsLj9ePOC+A/+Zju4kcrpvH5zSVKtdbz4X//MgUvvY+60SUwMnB+boAqCcPJuue06FpV0c8+8og/9PR1L0RrL0ZM1YDEphH0m3P+fvfsOj+O6D73/nbYVi8Wi90YQAAGChNhJUZSoSomSJVtucrcV2/G18yY3xbnvdZw412/i6zjFSd44VuJ+5ViyZUuWKJKWKDaxdxIE2ED0XncX23dn5v6xBAmSgAhQoEhK5/M80vMQmJ357ZnBnN+cc+YcTczMIdwcz+zo5KX+HLZt2zajz80ogb4lGTHof4MfvHyK/rCJK8WGjWTCGPRFoG4t991RSX2OmHXy1qYDrex69QCtvaNMNXTanl9H2YI1rC58J2O7GTo4secojU1dyXm0J6GlFZC76AnuLQHrLTx0MB72MdR6jP3HOyhY8QAVBbl4pjtCRRCE29ZUCbQg3EquN4G+/ZuBZBXylrPuLgvHT3fQPRK68GMLrrlrWLNkDqWZ0+0PFwThRlA0C3lLHqQyNx23SJ4FQRCE29ztn0BfmAe6sOY+CmtudizC9VOAClavr2D1zQ7lllDMglXFLFh1s+N4+zS7m+y5K8m+2YEIgiAIwiwRky4KgiAIgiAIwgyIBFoQBEEQBEEQZkBqaGiY9CXC0dFRHn/8cfLzCkhNFSuICYIgCIIwfY1NJ8m2xcl3T2tZYUG4KXp8UTwltfzoRz+a0efUzMzJF9WQJAlZllm5/E7KyspnI0ZBEARBEN4j+vp6qc8IsbrCc7NDEYQp7WoepUfTmCofnoqam5s76S8URUGWZR568JFbexo7QRAEQRBuORs2vsxqMY2dcBt4qd/CVPnwVMQYaEEQBEEQBEGZ+TbjAAAgAElEQVSYAZFAC4IgCIIgCMIMiARaEARBEARBEGZAJNCCIAiCIAiCMAMigRYEQRAEQRCEGRAJtCAIgiAIgiDMgEigb1OxwBiRYJR4/GZHcnswTZOIz0sklEDXb3Y0giAIAoBhmoRjcUZjkJh0WbdbhYlp6nhDOkHdJHETIohGEoQjBvG3qMMM3SQcihOOgXFLl+ft7wYm0CYmBsaNO8DboGNgcvteWzr9jUdpO93NsO/t7svAwLxFz9NsMTHiEboP7aa1xYs/eLPjEQRBEACisThtg6PsGtLx3tINQgaxeJg9Z0OcDRkE3vHjm/R1+mnpiTD4FnVYJByj7dwo54cMwrd0ed7+bmACHSDKID1wiyVnOtDDINGb8AcwG5LxN73xXTYe3M1h79vd3yBeArzt3dzSosSjZzn067/gt43NnLs9T7wgCMK7TsQfonnfGX56Lkhv+NbKFi4TTxDpG+HZX/dwfOCdzh9MIMqJEy281DzC/tBU2yXwer1s33uWZwd1+m5GM/l7yA1LoIeatrH9Z3/Df77RTyh26/xRJCIBGp79E3720h5OdNyuTZEGiWiASDxG/G02o5979e954YXfsr3pbTdl33L8TS/xy598lz99ZjcN/QnCoQCRhM5I505e+9G/8c/ffIkGuCldcYIgCAKYpkEiniCcMNHNW7hf2DQxdYNw2CCu34xeW5NEQieSMN+y3jdNg1gsQdgwxRCOG0y9UTuO+gcZbD9NqxbBuIXOoqkn8LUfp90zTG2VGAwb6DlLVzALCt99fT2W9FyyMzqx7d/Dy9+NEzgXYSz1GV5qzibTkkvNvCwyES8CCIIgCIIwMzNLoPUocV83x47upnUwRjjuIi27gop5VdQWOwEYatpLS/8wJ4+d5PApHz0j23nN6cFhSaWgpoqS4jzSAFOPE2g5yglfOoVZNqzRDhpbuhmw1PHA6go8FhUl0ktfRy89Xo28ZXXkkEx2vK0N9I3G0TMvHZfQIK3njnG6pYOBgAVFzaZ0/hIWzHGT6lAJ9rfRde4kZ4b8HDkdo8V2gsMy0J5GSnoucyfs/63FCPn7aD11kjFXIebAGQYidlIyPBQ6QjQf62XYs4DVK+ZSmO7EEgsQGuii+cRZGkaHSRhusotrqK4qpSxXRY/7OH/iED5rBglfH96xGHFnDguLEpzZ18aQs5KahVVUF6djm+55iozS13GKxjOn6PLKQAaFVfXUzs0l12Mh6h+mr3EvZ/xwrGGYU2Pn8Ma3sNGbhmpJp2r1HeRaNKzXPFBiZvFPdv0UVlBRV0Vt5vh5bKX13BABwJGRoPdEE22joKcWU7VwPtUXrp/psOXOp77egIHf8av/2svJ/jjx/XvRFjzMfQ8vZs3988iOD9N8M+I3DQj20diwn+buEbxhB3ZXIWW19dSXp6Ap0mXlbJohAkFw2B0oyg177r1NmExsqJIkaepNBUG4dZgmeH3sOh+iNaiD00qKFMcPl7+TlNAJ+sKcaQ9yLBAjbmrkZqVQm++gIk2+sJ8gu/pM0rNslGVq2AHDMOjtH+a0kUJ5mkZqPELHcIQxiwVG/LSbNso8MvZYgvMDOqFUF4/Mc5KuStfVmhiLROkdCdIwLFNT5qbAIWGV4/QMhTndFcZ/2dYK7jQHJXkOyscr12iM5l4fjQMR+sISimJlTrGbRTkabusNuK+ZJkSjnGj3cnokzmhMweG0UTEnlSVpKtr4IRM6Pl+QI+0+zgdAv7L832NM08S8UOlIknSxzpnBNZMg5u+mc99veGHzDrpGIBZxkJo2n/pVOpkfX0qWBUZbT9DY1MLepmbOtAXwDx1hv92KVculPj2DjAsJhBGPMnrol/y8sYi6slTyzXPsbOylx+NiyfJyUi2gBJs5t2c32xpd3Lus7mJr4UDD6+w+5Se44AvUFjsAHz1HtvLGjs3sau5iNOTCZnjIbBzC+OiD1M/NIjbcS/uxN9ndHeFEW5xe6RxNhIj2esgqnY9nWR1ZTCeBjuAbaGDnL/+RIzmPUerfRWNrHDknj0VzZdp+d5wDkfvQsp/G5Zawdp/k1LYdbNnXyclAD4moldS8Ray8734eeaCadLo48OJ3OWhfQWq8k+HOHjqMPB56MIOu3+7mkH8pj/zeJ8jIS6dIm855iuFrP8yh7Rt55cApRoJWiKaQPsfLYx+4h7uWFqMEffSeeJP9fXDsnI+OQBfh2AH2BFKwOktJXV5HxrQS6Djx6HTjd5Lpa6Vl6yv86s3XaB21EBlLwVVQxcLR+0i5724KU0HxN3Bo404afJC1OB3/gX2c7InSH0tl2Yc+ywfSMlmWOq2CIO73MTYSJmZLp2xVAadjHejWBZTklZLtlBgeGkVzB9j/4nc59I7Gr2DEfQwe2cCm17bR0OknFHJgs5Yw50yCjM/fSWGaBcv4xZgIEhs9xs4DQxTVrqE0L4vUa5+cdy3TNNGNZAeqLElIknKTIxIE4ZpMg0QozOnjHTx/JEJzHFKy7GS5ZBQ/xDPHN9TxDY/R0DjMprNhjkUiJOIKbk8qa+oyeWKhm0LNhDE/r+4KU7QgE6fHTYliEo9H2Xegkzc8JTxe5SB/dIRXDw1y0pXO/MAAm3pU5pbZKFbinD4T46yWSVFxCctSFVwzzFfjsRjN3aNsP+3jRNBBaraLLJuCVU4w5A1w8IyPvgvbRgMhWgMW8udm87HM8QTaYKh7mC0Ng2ztiuCLKsimRnangXZ3OnfkajhnNVc10fUY7U0D/ObUIIdHEvgiKnarnYqxOI47sqh0ydiVZPkfauznp2dH6IyoqHEVz8Tyn3Zr3ruDrusYF+ocVVWvJ4EOMdxzmM3Pfp9zq3/BXz0+nwX24xz61Wts37GJNx9ayqN5MHf9F5m7Hh7c90O2vv48r1f8MV9/fyGptisrOR3oorOvkZPn7ay8427WfuIPqc/NId9+KZEd88JA15Wx9BPAxyAAcYgf4jf/+gxHclex6Mtf4yN1KTjO/YavfulbvFI2B2t6FstrVvJgzUrWBofZ/93NPOd5kkfWPsQj81JnWpYQDRHvOM++fo3HPv80pa88y29P9bK78gn+9ps1pH9qC0NdPgYrAozseIFnf3aS0NPf5R/X55Pqe52f/OMPefOVAeIl3+CzFQnoaaYhuoQnnngfKzN285vnt/OTqi/x42/OpeCrO4l39NHph6KM6QQ3ytmDv6OhR6H0Yz/mmTUujO7n+PofbWLP/jTSKotZnVfOii9+mxXA0f88zYvBOylc8Tm+sCLzmnu/ijHN+L1ZRM9s4pn/9SOG/+g7fPl9qykPnGbfL37Cpp/8E//hXs6f32XFBYwOnGXHAQW37X6+9kd/zlfzetjyzd/jtVMnOVa8jGXTjHPszEZefv41fnW2iPs/9CE+YozC4sfwn9vDnl9s4bXiR/jDp1aS6GqmIf5Oxu8kFmnh9Z98h5PV/x8f/Oo61hf10rl7I89+5xe8uX4x65wWcsaT5OAIwSOv8Ld/8yoLP/9jPrMui2V5Mz9V7waGaVxsCYBkMm0YOpIki5ZoQbiVxWME+vv4H5tGKFhezddXZlJnC/Da0Xa+vB/mFl/YzghxpKmXH+zwE7yvlv9YZMMdHOT7Gzp543CMWFYqf1wOFNspigzRP+DkzFgqJe4EsYiPXfug/EkLhW4FozfOaH+YA0GNP18/B+vz5/h1l4ZtaQZ/UBjlhee9nBwpptoOLsv0v4phGPT0DPH6AR/bBlL41ieKWO4BTQaws6DCzoKK/OTGus6ZQ2f5u3MythQLtSmQbG+PceBEL2ekdO5fV83nC3VGu3v53Pc6+F25HVeaxkLHLJa/mSAUGOZfn2uhbUUZH/pgDmtsCc4d6+bfXjvNP9vc/FmdlWpHsvx/+qaf6Lpq/nWRm4rQMD/Z0Mnukzpyrpv/VjKLcd3CTNO8LHmGZDJtmiaKosy810LXDU539dDWNZfyeYup/1QdtU+BnALW63laaoO5Dz3FuqfWsyrHhqaAPJP9xONwdC97x+ZT/NC93LuwjCxVwpjzcf6fvyimP7+CvJTriOsaLFYrDz75BNW1Ov2nUlhky8W5+GHycvchj3+Btmba2kfZG3Ew99z/4d+/J6OaMTrPj+F3BekdHISK5KYr77uX+qXVeBqbqF2QTc6KD1BadAir9QAzG52cRf0H/4qaBGDKGN0d9HS3E42eIuAdZsQLXEeefC3XjH+gh+HTPeywPsbXHrmT2kw36RmLuXd9N7r8In//65f4yLInqAQgj/l3VLP20/eyKE9Bk/PJzrWSMsN3PtNKVvDw5xZRp5ZQ62ll444ztEVKWfPBJ3gq4SPoDZCXG6JTvnnxt/YP0tIZwJtXQeG9v88frUiguFxYJj5vpmaTsvpTfP2v7iKrvoLyrOs4Qbe9ZBeaaRiXdfWaJG9yMpe61wRBuAUlDBL+GI15RXy43k1VjkqK5GRxeSZfzh9h1/g9bzDE+cEYO+Mq83q6+adBUE2Ttr4EPnuC7rEYYAXc1Fee559HfERaXTxYJRFt97Ihx8NfZ2nkW6ELyEqz8r5leZRnRynLk7nb5aauJIPs4PB1f5X+7h5ebYswGHfzxLr8CcnzFXQdWtv42k6T/CWZfHpFGtkASICV+x6u4y5k1LhJdCRItzeMYY7RO6YzFgVmM4EOx4m2+tigZ/L0vAzuzLFSJFlJn5+DJeTnM0f6eaQol8JgiPODJudcWXx9kZs5mow1NYNHV1uYH5aQXbMY0y0s2ThjXJY8T/y5JM1o2I+DjPzFPPrZrzC2dzO7X3yW3/4ghpK2lEX3fJgPrK8ki+RlMSML17JwYR2LchxYp9czfxnD0BnsbiGQVUJaVgaZmoIMSLZUylaspkBLwXoDurslCaw2G6oaRVElNE3FollRlAmZj55AdzmxzctiRf0CigEFmFsyl4Qrm5w5l06MZrWgaRqKIqNqMlbNlhzrOuOEQKb/yBY2v7aRN9t8lBTk46kuQM5WcLqNG/ZW7rXiD475iI4Nk5izjGKnDacsoaBhsVqxahLRSHTCG9hZpLlzKSqwXLgpKciyhDTDBzTZM4eCVMiWJdSIjGTo6KaCxZZKbqYDPR7EMJpvQvxWLLZyHvjMnzG2/xRt2/+U//flEBGzhMo7n+apD9ZSqKpcbBCR7GiOuaxcUYzmTLm+B9Xb3MRhG5MxTAMZMZxDEG5V0bhOnzdCTLJh0SRUGSRUUmw2KjJh73hVZ5jodhVHgZXVZS7KSNabVVkOEnYrednj91mZuposarZG8XWEOFikMdY2TH55NaUpKi5pfJgX2CwyiiyhKGBRZCyKjHxdz9oGMMyLO1wsLlRIdyU40OJnuMpDNlcMAU3ECAwO8e2X/RQtKOThGjfzLNKEbSRaT/byX42jnA0ZlGTaSM2wkJ1tommzP4NGsvzDhLLd5DlUPLKEAmiajNMiEY0bJEyT0UCUYdNAybJTrslogCTJ5OSl4NaB68jTbkdXtjxPZJomiURiZmOgJVXGmVXH2ocrCQRG8Xo7aWnuovXwL9kx7y94XwlcNVLjWtKycKem4J72SfERGAsTuDAJoyRJOBwulFCMWDRG7MJWRjxE995/YWNsDcvqFrK8zDPDwGZJRMUhZTNv+Z3MJzlmJth6lJYRg5AXLjyOzp6unWzbepyjw5nUrruLBRnpuPKdNJ14he6beOFrmoasWjF9AUKGyfj8J5HwGP7QCHJmBumyfOFv04KiWLDMoEtt8oMmH8qsJNApZtkn/oqqwnKK0kCxqihWCxH/tXcz+/HrIEfR0ipZtqaQuSEfPm8P3V0dnD3w72yv+zvWV6aSYx/fXkaS7Ljd9ql2KAiCcEtTZAmHpiCNxPHGTSKAGxPd0AlErniJMC7hkCzMn5tOPcl6MzDgozkAwQlzILuyPcx3d3EsOsKODjfGaYWlDznItiuoN2SiOQmwsbguk/fVWggP+Hi9rZefn0/hS6UajvH8Jx6hq3OY53b20ZGfz4dr3CzOUC81KBsGDA7xX0eDdDsdLFropDZVxWY3UU5KDNyARhJFlnBYVKSQTlg3L/ZsxxMGQ4EIpkvDrcq4TQUrEnpYJ8il8zLcN8iugTh9rky+UiXqIpjRDF4xQv4uTh3cRZujior69ax76H6WlyhI5w9yuhf0CderZnGgqQ4GOrro9vkYHetlYHAIrzcy/UPa7FhtEdRQK11n/fi8fvoa3uRwQxunB5KbSIqGa+5Kah099DYdY/fxdvpGexlu3cGW53/Cm4299E3oOpckCVdqFmNDXvqGBhkYG2J0tJfe3rHZn24vrYDsNAcFwVaOnh4jbnfiUIcYOHuQMyfP0x9yzu7xAIYaON3ay6hlDsvXrmf54iq0vuN09fnxhq/e3JHiIRqI0NfXT9/YCD5/Nz09PqLR2Z0d2eIpIKekjNrYAX63tYFTXQN0dx7haEMDhzudVNRU41ZUbkz7oYpiyaLy3k+wtDKP3Oso9tmNP4EeH+bsga206OlkVT/AA/evY+3iXJzntnGmK04wOmFzPUhs5ARb3tjIka5hRmNT7vhdLPnm81SNRpIkXUdvjSAI7xTVquLJdVIV9HO2LUjzYIzBwQCnzo/yRj9cXC7CYSXXqVAUCXGwO0HcopAixxjo8dLUEaQvOqHdz+qgMk/BGvOx6cgIOyNuluZqeG7EDBZAMoF2snxhGvU16dxV6uAuV5ztewY57jcIGgBxerpH2XpgkC2DFpYu8FCVKqPGE/jiBkFIrrHtHWV/fxwlzc2a2kzuyLWiD/o46zMJ3oDFCVSrRnqem+Wyn0PNfvb3ROgYDXCyc5SXOySK81LItiq43Q7K0lSyAl5eaAjQEogz4vVz8GQfm0+OcmKajU63u4mzbUxGluWZtEArJKIRRjr2siuei1laQLajj64OHbtWSakbJs68lZJZSE5hBdrBXew6PEq+1Y8iF1NUWE1amo3khWjHjjJ1j4Azm6wCO7nOoxzauBfXPEi0HqaxYwyf3ZacJUKxQPm9rL9nLy8cPsruDSbyIhfOnr0cH61mWVUtFbmXWp9l1UJuzRpSt3bR0rSHN2NOXJKEbF1ERqYDizyNFEhWwe66VGFrNrBcGCciASkOUBTInkfNkmbuan+ZDc+9TE6klvzQMRqOn8Officr81NBksGeAuPHVTWwThj4ZLeCNslpsjpAnaSJM6WAoryzDI6207hzF8GUHvZufYMjfTFS50rE43Em9sFkli8mvb2PznO72eHKJR0/CWUpy+uLsVqncXlMN353EXkLlvCRO3fys1c2sjNSR07iBI0n+uhJuY8nllRguxCWZgXLVW/5OrCgzX7v0U2JX8E0VMZ6jnDIb2ewt4eBtCCj7SMoykIK3Sq2iUUfHSXSspGffe91ij7+tzy5xo0n8701lZ0kSSiSgm7ocMViCxIgi5cIBeHWZlGx5Xn4SOkwbzZ72W0m6LFEaWoO0JpQyTCTQzVwu6ibE+LegX5+vbuf/JiLwpiPo+1BfCnprEmfeO9TKc5xktY8Smv7GGnzyqlzy6SMV+OyDNqEOl1TLiUqipTsMp/BbUOSwGFLVu+gkJ+XxvLKODs29LGx00Oe1YbTGqG5w8u2pjBKZRG5ET9n2yXOAqrLRk6Wk4V2wO6gKj1KyBvgyCmDc4kgu5pGOBqRmROHhGFyVXAT45+KLIFFubpBwaJhL8jk6YVD/LBlhK1GnH5XjK5OPwfI5kNzXOQ4FLBNUf79Bs6UNNYUvTdanxVFQZIkEomrn2ZkWUZV1Zkk0E4yCpbwyGf/BOPl59i1OcxIGNxFK1n61Ef51PzLt3YU17PooQR/aDzDr14+SjgG81Y9QUZJDQCSpCBbq5jncJM96eh7gGLKlqxlZXSQH278Mc+fgIJHvsjKB9NYOQZRi0KyET2HFZ/9Gll5z/HG1q28+is7FttcVv3Bl1m/pIQc94QvbrGTc9+X+AL/zsadr/Lb/ZCeV87qx5dMs8NHQnakYatYhNOmokgKWk4ZdtOFXZWQVDvO+irsbgeq5KZk2eN8NKeAOT99hl+9dJSwXsi8VZ/i/fcuZ2m5RCRkTe4rNRVVllE9edhL5hHTJCQ07NXl6LnpV7ygIGMprsFhycF6Zb5f8QQffkIlY+trvLLpvzhoc1L85P/m/aXP0qY6CIfGgPSLm2cs/zAfVC6U28/BYnOy6slFxKeVjEigTDd+Jxmlq3j8f+ZS9Mw/8OKeM5wIZ1O87AP8/gce5YHxoSyyhdxSB2aK9bKLU7XPI9/II1edzb6tmxW/BYu9nAee/hps+hU7dh1nnw/snnIqP/cPfGZpCo6J4/bjcRgaxt7RQvOpHgbn10Dme+RNjivIkoyJgTFhTk75Gi0FgiDcClTstjS+8NRc2NrL3jM97M1wUVCax/9KG2K3XcEpSYBCeUUOn3HbqNzezrMHfIRNO/OrivjI/DRW5Vy+V3emk8VzMviwBM5lWZRoXJiCVUJ1WnFkuYgqyXuFNdOFQ7VilUGxaaSUpWDXpOmNh5YkVE2hukzBbUuOH8bqILc4gw/e6eXZ8wECeSoYCTSLiivXitc/wM/3XdpFWoaHlTUWFtZZobiI/7kaft7k5fXDXhxpTkpXzedL2S0c0EyicZ3LJ0q7PP6pyBYNe56bFE26IteWsVodPPJELXk723np/AAbWzQysjL4758o4kkP2OTkeZpJ+b+bSZKEqqoXZ96AZPI8PlGEZJqTr505ODhIbW0t3/uXH7ByxZ3JH5omphEnGo0Q15OLGUiyhmaxYbNceUaT28ZjYSIXupwVzYrFYkFTkhOhG7EQIV3FomlYpkiiTSNOPB4lEk2OOpWtdlQjkRyYo048roEeixCLxYkbEkgKmtWKVVOQr6pcdRKxMNGYjm6AJCtoVjtWTZnGw6iJoceJRSLomgubZmLEIyR0CUmzYVXihANxJKsNi6agSCamHiceCRPRARQUzYLFoqIpEqapEw2HMBQHmiYj6zFicR1Tc2LX4kSDcUxVQ9W0CUm0TiwSJoEFRbNclUQb8SixWIyYboAkIVsdKIkIuqSiqhZsl5W1gR6/UG46IEloVscU5XZ1WcwsfhNMnXg4RFQ3MUwZWbNgsVovzXlsxIhGExiSgma7lIQmIkHipoKsWrBO+cA1Uzc5fiNOLBohlrjwcqekoFrs2C3K5Y0Hpk7M18/Of/wDOu77C5YtrGd+2ns3YTRNE8NMPu4mE+j34FuVgnAb+NBTj/ORkhG+eHfRpR8aBuGYQdwAQ5ZQZAmraRCTFOwTkj7TMIjFDCJmstNJVWWsqnz1bBemSTxhENVB0hQcExqVE7pBTDcxFQWHYhKL6SQkGVWRUDEJR00Uq4JVns541uQsQKEoqFYZTU6+EGiaJrG4TsSUcWoyqpSMJxK/9K7MOFmW0FQZu5qM0LiwNHfMSHaGKqqCouvEpeR3vTxRNolejP/K300sXoNo3EBXVOyTNlibJGI6ER0SZjImiyVZBpdVO9Mt/3eBZ3Z08lJ/Dtu2bZv091Ml0DPrB5YkJMWCzWGZxqp4EpJswWKzTNKdzYXEzsm1ZpiTZA2LVbs4QiJpsrezZBSLA7sFrt3BoKBaUiYdAXFtErJiwea0XPy3YnFMGFpgwXHZhJLJMrM4LZNGLUkqNseEuahlG/aLO9OwOScbtKBgsaVMuj8AWbNi06yXnyPLVCUto2gO7NqV5XaWXa/uYP+BZkan+KQ1s5yStV/kw9WpOMavpLeMXwJJRXOkTj0UQ7ZgtV/9zVSb8wasOy/NsPxnOX5Zw2LXpjyP42LBUfrOH2Zk8edZMbeE0pnO+P8uMz6cQxCE25AsY7fJV9Q38lX3QUmWsdrkay/oJUlomoI2yU1ZVWTUi7cKCatFnbA/iRS7Cfj59bYhjg9EGZviEK4cDwurc3kyV8F5RYIhSVfvd6p4riSrCg71itnqVHWKHObK40yxT1nG/pZTNUmoFnUaudc0y/894LLZ1SZ4bw2kFGbAQ0FZHYuVPEJTbKE5M0jLAOVd+ER6K1E0O6m5FSzIzaU4w3XpTW9BEAThbbIwt8iN05NgqikObCkO8m/AO//C7U0k0MIUsiiryaKs5mbHIShWJ2kF80i72YEIgiC8qySnpVtQYWPBzQ5FuO2ItkNBEARBEARBmAE1Oa3Z1can7vCP+Rgeuf4lLwVBEARBeO+Jx+MEogmGAu/JyeuF20QgmsA0TabKh6ciHThwYNJZOEZHR/noRz+KrhtoqhjpIQiCIAjC9PnH/FhlA5smXtwQbl2RuE5l7UK+//3vz+hzamVl5aS/GB4eRlEU/vArf0ptzfxJtxEEQRAEQZjMN775NdbmjPHYwqybHYogTOmV44McizuYKh+eiup2uyf9RSwWQ5IkamvmX5oHWhAEQRAEYRpSU91UZOusqUy/9saCcJOc6g1ysl9lqnx4KuIlQkEQBEEQBEGYAZFAC4IgCIIgCMIMiARaEARBEARBEGZAJNCCIAiCIAiCMAMigRYEQRAEQRCEGZjWBM+GYQDJ6aIlWUZCmpWDm6aJaRrJ/UoSkiTyeUEQbh7DNMC8cK+TZCRpdu51giAIwu1J13XMC/WCoigX64W3TKBlOVmBmKaBSXLV+EuVy9urWMaTZ2N8f4CMKSos4YYwDYNAfx+mLQOb04rFcqOOFMTr1YlhISXNhuNGHUaYZWbynmQYjK8sJTM79zpBEN6bTDO5yp1hUbDLEm+32glGdRKKhEWVsc9KhMJbSeapJoZhXEygJUm6mBu/ZZOvpmnJBHp8Z3DZjt5aAoMYEWCyrY0JyfN4oIahT3Pfb4cJRIhhoN/gI81cHJ04YtHT2Wagx3207t5AY/Mgw8EbeKhYF2ePNXL0ZBeDN/AwwuwyTRN9QvIMyXvUeA+ZIAi3KpMEJtGbHcaVTIN4JMz+piF290Xpjb6d3MaEeJSG8yPs7grREp5qXyYGxpR5lzAzpmmSSCQuy0t1XUfXk9njlMYjFEgAACAASURBVAm0YRhYrVYmG61hmkYy2X2LU2TERxkLtdIa1dHNiZ9NJspMkiibvAOVlqkTD52lMzyGV7+1LjE91sdwqIeumKi0Z1eURLSFExu/w+/OttMWuoGHGjnDsd++zu7XjjNyAw8jzJ4rH+Yneuce7AVBuB56IsJwNEJn4hb7G03EiQwO8H9eOst/HvDRNPI2muwME/zDvLrlPP/55iC7exKTb6bH8UfDNMfNW7CB8PYyMVG+kmEYJBKJyYdwjDdbK8rk69ebyY2QLo7ruFr/id/x5vaX2Fb2T/zd+nxcVuXCZ80pK6uLxwZuVK9pPOznyDOf59fur/HAXWt5YK7rxhzoOrRt/SFbzo0xVPNVvnZfzs0ORxDeE8bvd5P+LrnBDbsfCYLw9pw/2cnG3gQDhXP42zrrzQ7nEs2CK7+Af/09D0a6A7tjWq+cTU6WwZPLn38olYRNw5qqTbpZb9sgW5v6+F12Lf+2yIpbEzeu6/VW9QIkk+i3cUbfmhGPEg35CUaNyRqbbx7TJB7yErJGid9iT6x6LEwkFCQcE8+OgiAIgnAtekInHNUJ32L1OUhIqkpqXgqo0pSNjdMmy6RkOUCWphw7oOsGkWiCYPytxgcIs2XSBHp8kHQsdsVo3HiY2Mh5du18lRPtQbyhNLKK61m8cjmra5JriHfteYnjrd0cbjhAw4lBuk//gh+PpmC3ZDB31TJq55WTKcvosQi+xh3sHc5lToEde7iZ/U3n6VBX8NQTd5BrV9CC52ltOk/zgI3y9WsoBRRgoGEnrX0R4gWXjou/gxOHtrLv+CnaR61olhLmr1nHPfXZZKZqeFsbOHt4Jwf7QxzbF+G0tg25v5uuIjdpeXNYPGH/by2Cb6iVhn07GUmvwmg/QHswhfT8HKpSxzj8xnl6c+/hA+9bQnXqEL3XiH9lhYW2rb/gcH+YI/sbaOyMYbb8nP/oTgEyqV9/D5V5WaQBxEPEh85zbMs+3uzsZDjiJLvkjsvKHzpo2XOUVq8H64I1rC7UgVZ2vXqAqLOOspo6yrOnc2n4aGnYT2vfKGOylUTrQU6ygHsXqoydbed0jx1nzWo+vL6ONEC+svxtJcx/bB33VGSTadcg0stQ+yn2HfAx5/4Muvbvo+ncMAPkkFuzhEcmln+wn9amvezav5fTAzKQT/Xy+1m9uIyyXNt0gp+5a8UPEA8RHTrL1i0vcqIzgj+SPkn5X87Qo3jbX2f7kSieknpqa+aQ7by8nIPBOGDD6Uy5Md9NeEuyJCdHDk7ypC9JErIkiRZoQXhbDLxjIY6eHWE4xYkx6KUlopKRbqXGHmd/Q4huTwYfW+KmxhGjuzPEGZ/C3MXpzCFZL/R1jNDs1Ymne1iTK3H+ZA/7vAYHz41xfMjA7O/mn4dVwMKSxRnUeCx4AHSduD/EwROjbB2OMBRXyM1MZXmVh7WF4ylQmHNn/DQHNWwl6azNMIEQ2w77iNhcVBS6mDv5Lf4t6ERjITbvC+Go8FCbZSF/vOHYNCHoZVtTDC1dBqKcah6j0S+Dx8VjSzJZNB5/8gPJeI6HiLidVBQ5mDuhsb39TB+HB6Lsbx/laEeMru4evh9UsCsWqqvTWFjoIPc6ztp7mSwnn1KSs9BdTpIkFEWZugVakqRkAm2aSIBJjLC3jXPbX+C1Rj8yGlq8m/7jIQ6OGmQXr2OOc6q9XbZjZCR0I06wZTtbmtI5k+mgwOqndRgCbhNz/FEt0kP7iSPsPOHCvn4NxST/kLytezl+ysdYYj6ra1xAH42vvcgbDY2ci4JVcWEfOsaW5wdQtI+zckExs5d2xQiNNnNi88/Ykf4hlrvaaG7sxWv30FyXjnXoHAd2hphbV0Z2+bXjX1kx3fdyA/j7T3L0ly+yo89NTNMh3kPH8RFGhoaxep6iPgc0GfC2cPpAhPY+D2WfLIcTP+flfWFK5pdTVjPd7xmkr2k72w900pc2n2VaCwfeOM7wSDW5iRH6muIE22Xq765lsbOPUxPKX8WF2XeM158bQHni46ysKSbXGGGkdS8bnj2EJ7aW7HCQcCzMaN8RegZ6sFbewSfLU7ArIfqadrB/zx72dydwWx0QPE3jJhOn9iD2tGpmN4c2uPL6mTR+Z7L8D//yBTb39aFrmTgmK/8Je9ajPoa6DvPC87sZUitZlD/J4YdOsm9fI32UUb/iAWozZ/O7CdORnGVDRiI5hZ158ediek1BmB0GwUCQI0e72JKSx2p7iDOdUUYsGmdKLNjGAuw5pVNd7CA3O0pru4832lUci9MvNqyMDoxyuCvOmO5iTe7kQxiupuPzjnFwTx9bvCpR1YREhNb2OENjcWzOfJakgSYBwRCNzTqtXo05dzugrZsXzhmUFdmpKLy+7xyPh9m7Z4B0l5Ncz8QE2oBIkN1Hh+hw2cjK1nBETfRElLMNfiyZdtIsKoud4/ceE4hy4vgw/hIJR87lCbQw+8Zn2oDLk+jxBmZZlt96CEc8HscwzGRNYkYZG2lm/6Zf07T4h/z14wtZlNbC6Tf2cPB4O+0hKHVA4aonKFwF9ftsbHX28nrFU3z2/YWk2i5v25UlkIxehvva6B7JZVn9SlY/+gBVmRlkWS/1UITGYHTgyshGCONjFMCMg/8grzz/Gq1z1rDiU0/xvgoH1vYtfOdrP6GxfR0l5cUsKqtjWVkddwSH2e/9Ac951rJu7UM8Mi915iUbi6AP9NAlZfH0o/UU+X7Eq2cCtLse5S+/XEnsqY14BwJ4868dv2KxM2fd55gD1Hs62HTKx+CCj/OFh6/ItqJ99Jzexo9+uBn/Z7/Fl+4ppUI7w66XXuDVrU3Elr6feRlWNEsx5QsWU3T2dfbu+DlvLHiM4E8301n2FVbXzZlm6/MFYyOMDUWJ5y/g/kfrGHn1K7wxsIaFjy1hsfsk+7a00Dwcpz5+efmvK3YQPvYaP/7f32KjZwF2dwb35UEsEqSnvZmmhg/xlU98jHtrNEb2/IiNL29i16ERPlrkwK74aDm+laMtOurdX+PrD+dj9W9lw/9/hJB/lKEYs5tAT3L9TBp/SR89p3fysx/vxvGX3+KT9y1mgdrG0VdeZMOuvezreYrazEsJtB7z09d+hNObf8Mv9lfy5f/+ICvqC8i8cl47bzdNh3dzgiC2apFA3yySJKFICvqFF5wlQJYUMYWdIMyWhIHhi9AhWahfnE9pqJPf9Oi02tL49jonse8OMOpLMOKBYBiGfVfuIEaIBMOAoipU1hdRCSxNCfFSV4KBkgL+8I4rKod4hK7uIb73xgDee6v541oHVUqA7Qd7+U3DGLE5ucx3yWiqnbklbkp6B9nZ2M3mkmwC2wdpyy7lnhLndbQ+X2CaMBKD+OQTAwz7whz1W1lZlMUnV6RQqgT59bOHeKU7Qme2a0ICfYEvBuGrh3iWVOVSUgVLcmR+Z4uyMTef319uI02MgX5bJElCVVUSicTFJFpRlIut09MaAy1LMkgKiqygWiz09rVzvjWXnLn55D/wFB981IHDdh3LGhoJQh0GRY8+zNrHH2Kp5zpOdiKOceIAh0LVVNfdxV01xWQARumTfP5PS+jzlJE3nZbxGbJYLdz9yDoqKqP0lTqo0/JIqVtLTvaui4U7q4b6GT3fwU65jPqhrfxug8qbgK8liqypjIz0YxiFgAKFa1h6ZxvBnr/l5399nNPtd/Hnn1rF0pqsGR+2qLyMeffdQ15eEwVzFVbdcSe1FRnQ0QUMQiKOfvzy8s8D9CXr+fzHX+bL24/S2FLK0jwAJzb7Aj729HrWVLrJtEI0JZWMy8JS0KwOookhOjrbOd/mIjtrKXd99W5sNiuW6TY8TNck189k8S9xjDB8rof9jnX83X1LqU534qCOBfdmkFU9yGguaBefEeN4e47y5qYDbP4vH3f+2UdYtCCLjMkmha64m0c+OZc1uMgtn+XvJsxY8l43Pt/nTQ5GEN5lLJrM/YuyqMw36MlSqFetpJZkkuseQb4Rf3BjUYb7w2yRHSwdG2bD4RG2At5+A1mVGApGMUwbIEFGOquqQwRGmvnRL/00DqXz13d7WFV4wxYNAOysqc3giTtSqU6BWNRKfrqEdbbrOeFtGW9xhsvXBZhWAp38gIusouV88L/9D8wNr7Djue/wH21BJPdaVj/+JT7/iYXkM8Mk2jSIL7qPutpq6t3X98dj6Do9PW1E86pJ87gYf1CUNY38O5aQI6so75YeWKcNbX4Fd65aTYXNgh0wl9+JYbFiKQPbhD+6nIoFzFu6DnXzZqo/9XWW5GdzI+b1MAyd3t6ry39ydhS5lIJcBeuU96Qs6u//JHLK79i061t8829aOXsOylb9KR/9xHruW5xP+mzGP8X1c6VA0M9gaAS5agF5qsx471lKTi5zMrMxlAvDZwBo4OQ+L46BO/jzpxx8+9VXWFf7KHnpuVw950sWpSUZmFxjUnbhHZG814nMWRDeNawKliInd1d6qLLIOABjrgdDlbFmw8TO8bycVOoqslCPDVJ791xWpFvJu6HB2Uh3qKTfgEY+YfZM1Sg6g1k4QiT0MUJ6Dss+8VVWxiJEw600HtlHY9MP2XjyX/hkNdhnOq+HZkXT1AnJx7UM4xsN4vUm/yXJCplZeViGAgT8IQJAFpCI+Dj1wh/w0/DjPHDnGh66jtbXG+Py+GckLKF02yhesJQ70hy4gWBHAy2nznAsWsWqArAoAD46Tx/i0N4jsHgJ6qZfcHhRNumeCkpmeWk8WVbIzLy6/A1DZ6CnmVjqctwpTlIJ0guAgqK8VeveKOGISVr5XTxa9xCPR/wEg41seXEzpxoyycx5P2uvazza5Ka6fq6MP9fuxGNzY7T3MaQbxAE7MHx6M7t3b+Zl+9P80wdrSQ4IqmDB2iLu+dIDrExpp/XY37FrbzEZThd3Fl95p5RR3jVPeIIgCDdCDG9Ax3s9i2DFQBmRKS1NY5lDSdabQ2M0dwc4GE/h7gywygAJ2rq97D3jh3I36tEe9pVZyHA6Kb9h442l5KQa4pn9tjSDmlsnMNLO0Td+wbZuA9lVQllJEQVaHKm1nT5fcq7vcTa7C6vmoqPpDGcHB+kbPk9HZxcDA4HpH9LpwuEMYvE3cPrgEIMDQ7Tu2MD2/ac51p/cRFIt2Obdx6rcDjoP72TD1pO09jfTd+olNvzmTfp8CoZyadFLSZbxZBYx0jVAS2cnHcNd9PWf53zLCLo+ywuYTCP+yzdPx4hLtJ07T/PwIIPDZ2lt7cXrjUBaPhllZdxlO8CmDQ2c6x8jOHaG1uNb2LXrCKNKOuaFl50GGjaxfdd+DpirefLTn+bJhT0c2Lufg+d6mfVF+BQLtprLy/9s1yka9/6YH+2ykppTTUFWJtPvkYrSdepN9h85wMlgKvl5lcytyCFtqIdgzwi+8OyGP9n1M1n8towS8qoqWW3dznM/f5MDZzro7txHw95N7Nx5loQli0t/Tql4cgopr68kp2ghH3psPolDuzh26AwtV54AfwO7tj7PC1t3ctI/u99NEAThtmNVcdp0bOExGptjDPhiNDcN8Nq5AAevGhcNKTYLhg7ne0OcHosxMBakeSDKaMgAh43MbAf3Wrz89tAYp3wJguEA59sH2XrKx4isXZy0oK9jgNdPe9mDh4/fU8jHSyPsOetlb2+EGWQtN5XdomJTVVq6Apz2xegZC9E6FKHPJ6bGvRFm0F5sQVGdOG1R+g6/xo6WDFzaMCOdVlKL72ZRHqgT0nFnTgWlNfVU7N7Ojq0dpKtBUtJqqaqsJzs7hWQ3aRppaFOv6W7LI68in/LSUxzbvAG5BJToMF7DhdvuIgVAViFvOQ89dgJjTw/tOzawsTMFx8h5hrPWcf8dNVTnXJoeTFat5C1+jHmjPfSdeo2NgzbcVjtpeWspLHIzxdoxV5SaBVKzLjWj2l3J/yD5s8w0sGhgS792/BOkld7BnO4w55u3snHzOdLw4sy8k0XznaQV5JFTu4KPvP8Uvzq+lX1SC62WUca6vEQz57J8rgtVAYZaaTzYwLmAm6L7n+KRO+dAShONP2+i8VgexTkelk33LbzLvpcM7szkdwewWyHNBYoKuZeX/6YWC7GOEwyXfZj7lyy4WP6qJbmLy1ufHah4cDPece7EZrOQ8J7m3K4NmGlOoIURy2LKiioov96XOa6Mf9wk18+k8TvVKcpfwlXxIPcvyb84bs2eAg4XgIqiZVF578epO/oTWlobaWwro7z20uREDDXQtO0l9sXq8GUvZv580ZcnCMK7kCKDw3KpArCqYLmQgkgSuNRkEmHRKMi1UZEV4OCxAeQsUOMxRk0Vj0W9ahicJzuVqhGdc31D/PZYEA9xUlzpLCtW8KTbyC9K49PLxni2fYhdUojzahzfcIJIqpPVeRd6v8dCHG8e43REo7QunyeqnWALcPzNACfabJSlWViVdh09hRO/1yRcTq4YzigBFlzIk88c5lTHu5knlZLmoLwwlerTw7x+MkKmksDlcFGTn0quezrJjTATyje+8Y1vTPaLUCjE9773PdY//D6KCosBFZvNTUFxMcrAKTq6B+kZiCBn30HdvR9kfZ3jsmtETUnFneWmUGrkzNkRBgfHcGSWUFRaQnaqDQyD6PAoAbmYeWX5FGZNljik4HDZsHritLW1MTo6hLrwYRaX5FCXl0tGfjVVhU7ATnblPErsIRhpp7k3SsCcy7InP8UDdxSRn3rpwpEUBXt+OflaO4GBHtrbvUQNGwXVCynNcqJcsy8lQSwewRs2sZTexbxsMGIBovZC0gsrqEgL0j2kkbmgjpLsPPLSrxX/pTEVFk8mGWmQGjlH0+lhhoeDZJTWUlyYQ5rDgc2VRXFdLWWBU/QMDNEz6sRdvpo169ezds6F8u9p4mSXhG3uCh5Zv4xCRcGRX05Kbzte0lDT86jKmk4CHcMXGP9eVcz1RBnyBlGKVlKea8VqJAipGeTNn0eZ005e1aXyb+lPYDjquf9zn+Hh2nTynYAeJBYJEsZB2coF5Fg0LEDMHyAaUnHmLWRBqRNVsePJyCHNJhHpOcupzhGGh00yln6Me1YvpC7/el7oMDHMifF7yL5Y7BJXXj+Txo86vfKPDTEWMnDkF1BYWUKGpIC9kBRnN2MJJw5bNlVFE54Chs9z/uBROvwObHNXcudsj7ERBEG4SX716+eYnxZmSWkqsYTOaAy07HTq3GAmdCIWG5kZTqqcOp1+mawSF2VuGwUuBZvToGUgxEgghlqazfIsK/UeK1npKdRkXKrTLU4rmU5wx4M0dMcYGtPJzHZRlmHFY1Ww2S2UFqcyJxKg0xejK6DiyUnnvsXZPJiroErAaIDjw2DN8/D+xWkUyxKOdAeu0TAjaGguGzWpM02gTXRz4vdS8UxsskzEGIlIZBc4KUy3kkZydjv/aAw5NZWqTCs5jonHTNDtl3BkOynNtDLZTH6aTcOTqlLMGI09MQb8CZypDkqzHOQ6xFDBqRxu93M6mMJnPvOZGX1OMqdYq3BwcJDa2lq+9y8/YOWKO2clSEF4+wz0RIxwKMpbDbiRrU6sMxpbf3MYiRhnNv2YcyEV+9qneWAm0wwKgiDcwj701ON8pGSEL95ddLNDeZtMdMMkHDHQYcpV/hRNwaZKiNnjbi/P7Ojkpf4ctm3bNqPP3bClvAXhxuij6/wOfvTt39IBTDWyq+CRv+QDd9ZcmD7v1jV4eitdKRWkz6lmmZgDWhAE4RYUpb13hH//bR+tTF3vFC2q5KmqFFZ6pthAeFcRCbRwm8kgu3Atn/qTWiJM3RJgzSwhJ+2djOv6eEqXsLhQRbE6sdzireWCIAjvTRbyMjP4/GMphJm63rGl2skTo/DeM0QCLdxmrNiducypzb3ZgcwKS0rmrM5rLQiCIMw2GbvVSmWRWD9buES0eQmCIAiCIAjCDKg+3yQTKwJjY2OYpklj08l3OCRBEARBEG53fr+P5oEQO8+O3OxQBGFKzQMhEokEU+XDU5EOHDgw6XCe0dFRPvrRj6LrBpoqRnoIgiAIgjB9/jE/VtnApok5iIVbVySuU1m7kO9///sz+pxaX18/6S+GhoZQVZW///Y/sGTx8tmIURAE4T3LvPDqkTTh/4Lwbvb0Fz7JE0WjfHpVwc0ORRCm9NM93bw+6mKqfNg0TcZnfJYkCenCYkCqpk2+yLJ6odU51eUmIz3jBoQsCILw3mCaBoaRnLlckiRkWbTICe9+mqaRYlXJTLmeBbAE4Z2RYlWRJImp8uFEInHx/q2qKrKcfH1QvEQoCIJwAxmmgWEm259Nkq0ZhqEzxRpWgiAIwi3ANM3LkmcAXdfR9eRM4GJwsyAIwg1hYpr/t707DY/qOhM8/q9b+75q3wVIQiuLALEbjDHGJo7tLHbcmaSdxHny5Ekm3f1hevJMOu6ZD5PpSaY7nYnT6SydiR0b4w0bgwGzGBCrZBAIIcSiDaG1JJVUi2q/80EIBJZsCSQQ9vl9AtXVvadOHd371lneA3I8flPe2JEgWuLGkKAgCIIwcwx3dMRvCp5H/1yhUIgAWhAEYTrIskwsPv6G83E5joQChUJM5xAEQZhJYrHYx4LnESM902IKhyAIgiAIgiBMggigBUEQpsXwau3xJmgoAMT0DUEQhBlndLaN8V4XAbQgCMI0UCgUKCXlmEGyApAkJZJC3IIFQRBmGqVSiVI59vQ6SZJQq9UzI4D2+330+n0MTsG5gp5+epta6euHT5h+eIcixGJuLje66RyKEJyuywhTJh6P09ffR29k5n1e/u4ueq90MTgVfwDjCjI05OZSYx89sTiR6byUcBNJISGNCqKH09hJovNZEKbIUCSOOxClF5i2x/4tfAMh3O4QA4HpvEqcQDjM+a4I3XGm9L7tC8Vwh2JMbu+9sd2L+r8bFAoFKpXqpp5oSZJmUBq7QBN1ldvZsesAx1r9d3iyIH2tpzhTuYPqDohO1ycZ8xN217L3tSM0dA5wp6W+IUiYINP69/iZ479Wa58g5ifcW8Pe1/7MjqrLtPSH71bhJsBPx7kD1FQdpc49jZcJ99HbeJrdW47TEowSmsZLCTcbHgqUrg8JjvxfbKYiCFMgEqSp2c3Wqi7e74gSvisRXIz2tl6qLvVz2juNl4mGcXcNsv2Ih8ZIfOo6f0IBztR3sbWml0p37M7ONeH6j+JHZiY9fT/NSGfHcIeH4qb/w0wIoIPtdNWfoOHkWa503Gnz8OFpr+Zs9fsc64fIdKVZjQSIdJyjcsshWrs8U9aoh9z1NLfWcq7vfmpi95avo5qGtkaaBz/hu3lsiNjARS4d3k/D+XY83pnU/zpA96V91NQe5cx09kCH+vFcPM2h14/SHQoTncZLCR83Mp1DKaZtCMLUioTp6x6g7oKHBneMaPxu5FeP0NHRS/WVfk4NTedlIvR1DLLvaB8dEXnqeqAjITraPNQ1emnuv9MA+tPrX47H8fT0cqovREfo/st/r1QqUavVw9M2pBv373ufxs6xnE3fmMsmALvjXpfmnrpyZDPv1w/QU/oPlD+Seq+Lc1+4+N7/4W3/ctIrnqOgwjX2QRoXxtwv8V9/tgxcCaDV3d1CCoIgCNPDYGHFQgMrimNg1d7r0twfTHaeesDEUwCmsXffm7AJ1H8kEuXUwXr+ZMrnieIEstLufeg5FWbGu7Da7nUJhM86SQkpqSB6/wRBED5btCrQinzqk2K8w8B5tM9p/U8ugA57CV6tYctrL1J5IUD/UBIZ+atZ88gGNi1xDh9zaSvb6gK0dHvRe86y8+RVIIeFzzzNpmWFFLmMt5z0ApXv19ISSGDWg6uoGN0JPVhL3YlazlweYvZ6M7WvvcmxC0H6zXNZuH4jTz26ijl3Wv4Fq1nzxAY2zXaOum4rdSd2sG3X+3zUphwu/8NPs2ltIUWZt5Z/WMBdy7mag7xfreehrz5DcZoek+bTixQN+ql/4xfsa/VTdeoIl9tjqI/+E//tmB5IZdVfP8mC7DTG6VsdJQ70cGz7Fi4PafD5PPQ3nadeW87zD0L1W9WcDRZQsn4jzz5agjMeBXcd297+A/trWrjisWPPXMiKr3+FrxQkoFNJd6f+b20/8Kn17+to5Oy7v+WDTqg51kirL0xSVSet75vQGrN56PvPUGzUY7p+Qi9Bfx1bfn0G07pHWViQRpZh5AMIw/l9/GF/mIwlJVQszsECRMN+6g/9gn3hR6goKmRJphHCXsJXaznw2k7evXCRziHz2OWfSoEe2s8f5K23/szRZgjHMil46FEeXr+UFenWG8f1XaBy7xZ2VVZxvtuARpfP0i98nSdXZ5DqGLshDrYd5NiJWup70lj7xBeZ6wLV9e8XfsLhAfo9ShJcCTcNWwmCINwWWYZBL2+euMKupgAtfg0Om5U15Sl8fa4GvUoBvX1UtgXY0wN5MS+vXfATjOooKktiU5mdNc5bw5Yhzlz2cqQpTubiZB60gHZkeUEoQNvVAd49HWbeci0Np3s42hSkBT05c1x8d00yJUxDT2IoTNvVPl49foWDPRCO6ccuv8/P/jPtbDvvoW5AiUZjYtWidJ4p1JFuGvueO9DbR+WlQc4M6tiwOJkSC6gmvZzCz/6TgzSFtMwpdbDSNOqlwCBnLnn5qCtOfpmSmsOdHOqI0aczs6Qska8tdFBw07nGr//utn5OnO1kZ2+ck+ejtCk6cDf1c8CuJjHRzIbpqv+7ZBLlDjLQXUf1W7/jaKiEogoHtng/fc0NnN8GyXnPMs8Kat9V6o4dodJtpKiskIqHi6DlJMd2bkMrKdGvWUDuTTGoF/e5c7QMpmNbuermS0Y8dF6uYte2FvYNrWdJ+nqWpw3SeOYjOk8dojKnjDmFViamH3frCfa9+BKHTWmkV2SR7/XR117Ngb90ofr637I2C7TKVs588CZ7T9TT5pzPsuJUbAPNnK78f+xWfpnYw6sptdx8Zn93DbX7D7OvapDcikUkmlWofyNN0AAAF0RJREFUJ/hlTFKqcc2tYH5yGGWwGZV+iFD2IpYttQEWsiwm9BM6kwwE6T1XyaFWJ/q0bAqNGrzvvcm/6x9gYZoBy4nLdJ88x+WVszBJ59n3q99wQDagL1pFhQz+tmYO//bn6L79U9bmmXBNaf2P3X6uNjdwdHT7kT69/vONVlJKV7IkG7S9h5G86aQULmZZiQ2VxkGKWsXN362jxMJumvcew168koI5aaM+ABmcUTynjhOyWEkvyqHQGCASPE/Vq7UMPLQe1GpG2s/+F1/lhGkZ+RXZlMe7uNpczYG3ulAljLSfCVbHhHTRdPID9r6zlxpLIWXrclB2dNBe8z77hjzw+NOsSI8BTVS++if2tXkIZC1hZZkFfW8rVa//Ap3hRzy4JI+cW8o10HaQg+8cp6HbQOGyWbgMII2+CXuu0FKzi3/b3UbF0z9lzRwTrok1REEQhDHIRCJBqo43c3BQS2JGAgvVcfz9IRoOtXMoOZPFDiW2cJim1l7euRRnUb6VhSVGpH4vp5t7eVsGx9IEygyjzxvD0xOg8UIE9fxk4jI31ufGYwx4vOw92cdeOYlyu5WFBSaSu3y0tvSw9bKTOdlqTFN63w5xqcnNzhNuqg1mFpYYUHmCtDV3szMcgUWprHHKQID9lVfY2RslkGhnbbYKg3eII0cvo9fmsmGOkdm3BMYDvX3sqern3ICSknwjidrbXcgWpafNR9NQFPvcW6bOxqK0dw7w3kdD7Aq7WO5I4AFnhIvNA7Q397EvyUJB+ujQcfz6N5h05GY7WO2Ioe/t4ojGSEmuhYpENWaTlkRmwkK82zeJADpMYOAK9dWHaVjwHM8+UM7ixC6unqql/uLNR3q7hwipcpm19kmeyk+EFis9//gqF+tmU1dYSG7uLXNQvQHwjZ17IjQUwuOJY9bMY+HahRQkBKiXmnj//BUut/hhogGcv5PO89W8vtdN3v/+EY9XFJIe7KB+1yvsOniUV/edp/TZ2ST7z3LsSB11vhQWf+M5vlSQgm3gI17/zZt0xsN4bklf4Hef5WDLRc6cCBB2ruGhBxeTZQXlBFuFpNaQsnA9KUBy4BAx4wA9pWvYuOE250D7+kExi+S8FVQ4nLS/9wFHWci89SES2w7S2Oemp3+AkO8om99rxPWDH7Ju4ypKdUE6j+/g3T//jjf21pLtKsWim8L6B1BqUTtyKV/ydR6ZbcYRrGTH5q28c7iTqo5nKTaDuu/T61+b6CRr6WNkAQmtv8Pnn0N6xTo2jjcHGoZ7PtweCN+yDENSQUoBs5ybOdHewOnmUgpnB4lcreZASwqrk5yk2DXgv0zn+aO8srMO+a/WU56dSqZSia/pNDUnL7Dn4ndYkW5Cq5zCzAqey5w/VcOH5ySK/vFbfK0sB33XOY6+9hv2XzjO9hNLKEtNwdR1nF17L9A370HWPvEkD6XrUHWcINy2maFwDF8EuPaAkOMRBjtOsP3gHqobnGSXLWfV0hJSTB+/fCwWw+v1MijHucNlJoIgfO7FiUbD1F/qpc41h6/NTuSZ1Dhet5eDJ4OoRz0zA/443iGJpPwkvpltwOBx88fd7VRf8VA5x0FZ5i0RbzgO/rGXRkeiMn3eKJJspGi2nZXJEt0Nrbz7UTdHOqJEM1UwlfftQIC6pkE+aIPSr2bwXLYBg8fLwSOt7O7w8PYlG+UOHSaPh221fnqzXTy8OJlHnRLqfg/h3nYCERlfFEZ6gmRZZrC/n7fr3Rxt15Cb5eDBPDNpd7KcJxiDobFTZgTDMfr9MmaVhYoSG0XWGGcVDWy9OsTFniik3xI6jlP/JpueQpue2aEwrisS3SYLFUUJfPHzNwdaiUZvJylzFqr+eurPRIkn6zE488kvSCfNPupkujwy0xazvDATJ3HIXcu6/D+z1X+FprZ+yE2ZRBHtJCS5ePhLFRS6QCtZMZn1mExhJrP4NdbbRW9LJ3W2VXx70VxyLAYsllmUls+nu+sCbx85TvdXsjA3nqfRZ0XOGi6/A8BewbqvOHBLdozX48XhKRMNR/bQ0+PDp5nP4sWFpNnv/TeqzDmzyC8pxhW+SnKWmgUFFaQnN9On00ME4n4vvvqznNIt4YclpcxNtuMEjGWL2LDqXf5yoIq2h7MoSIapqn/QYbTnUbjqCXS9V+g5H+BquIXugBtJLePuh7gM4QnX/1RRArMpWmZi3/Em6mqa8CTp6T9zjAsFa3km1YpLB1ztw9vRzWljLsvjFzh3upFmwBeykphhQR3rQyEbuB6pToFIewtXe6L0JC3jofLZJAHq9BKWLi+iwVvHh6dr6XssAWX9Kc7FZ1GSt4AFOUlYgHjqGr70nUTclnSSjDAcAUeIhq9Qs+tdLh7rQZpTRmZpDomWMS5uyyB9yZN8P2kAV4EB+2fjficIwj2jQJKUpCSY0IeDNF71UBlRYdRpyV9hI8euxDDy8FTpcNpMbJxlJAVQO62sTOmio3WI011hyJzMcJgSndrMpgoHi5JU2FXg1aiwjT0b845F+oa4Mhin0+bg76+X38KqfDPnhrzsbvbiXqhBahukVjYwL9XK4kQtViBud/HsOi1dBh0pWq4lVY4TiQapPt1F/YUwyhQLOVl6kg2fWIw7pCHRqmVThZ0SC+gUKsx6CbMuPsnn/mfbJB6LBhwp83n0Gz8kvuMNjuz/A5sveYjoK1i84bs8/62VzFJfCx9cFvROK8NLAyXAhd2pxt8yiHvQC0wmgDaj1ZhJTryzwDQw5Kc/OICUNR+XUro+xC/LceJyDJQSEgo8/T0MGVWjyj/Mmp6EJqZCUseuNeoIcISD21fzxIZ04uZBqg/spWnll5ijUd7GnKS7JxwO0dPfRTwzD5tec32KiCzLxGPX6uL6FsRTU//EI3ha6tj9f3/KP1e1kJ6ZS275IkwaF8kZPdcP659I/U9hkDpizvIvUHb4BFcaGjhenkbw5DHmLPzPZFotXL9P6XWoZ+eypGI5+XotekCORYgqlZACmikOMr1eD15FBHWqEyc36j8ejyPLMkgSingMd08HYVcBJovh+rxvSSnhyM1AJ6vQquPXAmgPoaFjbH/5Sf7m6RxO9F7m1MkqVpWtJVdz66drxGQyUlY8te9JEITPKwmtxsDDq2cRO9PJnqZLvHAshDtsYO7cHP5+o4sSg4QRQK9EY1ePGuJXYzEokVUR2rwRmODExpHrSgodKVYF2rvQETA4FGFQId9SfojLMrIso5BAIUOPN0jYbMKiVzLShyFJCpxJerQo0KtkhpMmRwmF+3nrQDI/XmHgqDdAVeMA67KdzJ62QEOJVqUi1XrvOwRnsknUjY9QuIeeARPzv/MLfvKz3byx+WV+8o1klBdfZOspCI6Mjnf04e/sZXhfiBjQTndnCLPaTorDPuVvYiJMRgsJBgfxhit0ROPXN5Lwe3txezqQMtJJVUqkJaRi9EZGlX9Y/Rs/4Mf/8nN+ua/p2k80wAae//kPePonz7OpTMMC9yv86/Z2hsIze8Bbq9WTmpiBdLEdtz94fSOYUNBPR8cF4qnJJOi0jDGqf/u6TtF4eCv/XDWPv3llJ7/83cu88P3neLwsl6RRhyVMuP6nmKuYObN7MCp3U3m4mZMfFrG4OBOrZVRaHj9IjSrSSsqZt7iCJYsrKHJp0Vw+w/GTEJni9NI2mwubrCHU3EknN3Z4GuhrxxPxok1OIk2pJC01G22HB0+/9/quUpEhDyd/+yjf+peXeedM58ibxGh7kp+8/nds/P5f8+Xcq5ga3+PVQz0fv7ggCMKUihOTg7R7ZPLKc/kvTy9i2w/KeflpF6ldF3jjcozOke5NX5RQT4irXPvuT5g+XxRFVMUs2wRW599DdqMGe1y6pfzQ5wvSF4uitWnJUECG3YC2P0KfL0rftWMi4QjHPzjBV9+7ymvNI1GKBpMhmf/5d7k8sSGDv0oMYu7u4o/1Yr+Ie20SAbSMt6eRo2/9E3/88CyNXYMEQwFiPYPQFLgRPAPE6rhU+yG7366lo72VjjPvsLVOT8Scw+zMe5OyTpEwm9SyEjYl7ODXP3+XvScbOFX9F97etZ/3LhSweuF8dCo1yrzVLJ0bQtW4nRd/u5/T7c1cPfN7du46RzDoICNlZG6yAtBiMBvQm1LIn7+UlYvy6P/Tb9jdMkTvbbRtiy2JWEiivqaW051tXO08Rd25ZtzuqdvrEEBhTsAwfwPPzDrEB5u38fae05w6u5O9O//MrypnU15ajtNimdp90uIRYmEPg0Pt+NqC+AeucHTH73l5y+t8cOXGYdKE63+YIyETX/cgZ+vqqets5mr7KU6facPnm+QHICWTMycLqf8SO7a8xYGsZZRk6LCOLCd25ZJcUsQXEnbz77/cycHaJlqb9nJ831/YuqeasCMJpjhThZQ5n8IiJ3ND2/lfP9vB8aZWTh36FS/tusjZ/iLKCwtQqrQoSzfxSF4jzYfe46XXj1HXeobWj/7Am9vbsZoycNlHMoQoUCh0mOxGdMYMyh9YS4lDSdubW/igm5t3kAo00XTyJf7xZ/+drU3+22rPgiAIN8hEI1Gqqi/zH7V9VPWECYZjRANRpI4owYjM9T045CE6e91sPjBIS0+Q9jY3O1pjNMYNLEiZ2QG05LJSkqmmONLNT9/uprJ7iKr6Zn5f4+e030xFugmlUokyK5HHUwNcru/i90f6Oe0epLmxlVc+CmLT6UkalcZLoZAwm1TotDoqip3MMyloPdbBjgG4H/YlkRQKUhxGOjqHqGn3c67fT5Pby6nWENHYffAGxjGJAQ0dRnMG+aXFXLq4k32XjKikQYY8dlxL1vBALmhGRtYdWdhiGlTNe/hL4xD4+9AvfoqKlUsocY2Re9BuAdVYEzHBYAZ74q0/daBHyZh92XoT2JM+/nOtk6SC5Tz9fDfG/Uc4/X4Dp8MDBJjDwi+u47EFNnRqQDuLRRs2EjMcpfrCu7z1agImfx/+nC/y4IrlLMkyAB4USkhIA40OQI0hsZhZCz0sPv0Sh480UGadizNpcpOUbHnLWDAQoa9mJ2+9+hEmfCTPeZSlVscE0thdY08GvXn43xoduDJuBHYj9awyonMs4KnvfQ3jh810HtrC26oo4aCF/K/8iCeWppJqVoHvNup/3DeXS3rZWr69cifn926hxxQiotEQTy8ndTBKT38f8bgNTBOp/xsSFjzKct8xTrVu481XLZhUMVLnfpnUTOfNPeiSBOmJoBvv5qshISeP3IxMMtvAvH4jsy0a9CMx8Rjtp0GKIIecpC5dxYq5utufwmF2gHmMyd36dPKWruWJaJw9x3aw+81T0HeVwaSVrJ63lvVzzcNjgdYi1j3zFKoDtVw8+RZvNpvQBQbRLfseTywrpChJC/Hh5pCQPtIcNFizljF3fi/NnloOHLzE0sdy0Oiu/RH73fgvHOfMrpO4879GsS0Lp2YK84YKgvA5I6FUapmba+NS7yAnavycVsSJhGNo87PZkKokceT2rNdiMEG6t5fNx+LI4QiDNjsrsx2sdozRUaFXgnXse7tWDUmOW7IMoUKDliTuYIqCXg1DY9wTNTrm5rl4Ogo7Lnaz/egg+IMMWB08mONiU7pquP/NYOaRFSmo6rycb+rklR4VhlAUfX4WTxeYKLVKIN9afglbgp2SnAiNfi8fnPOzstyAVn0b3V1G1fAi+rFe0oPzY48kDQYUjJmw9RPqH0CpUpJWkMbG0CCtbZ281Cnh0KvJzkhirnz/prFTvvDCCy+M9UIgEODFF1/k0Ue+QEZ6JqBErTXjSsnAFPMTlTVIKhsJOeWULF/D0lzd8ELWzir2NRmQXLNYX27FN6RAa85j8UPrWJKfRvLHVo1GCctGzKlZZGQlkzh6Ixs5iizpMCenkZmXhZ3hxh4Lx9Ga00nJyCEzYfQJ48RkJUpzComZBcyyj85rq0Stt5KYM5tMpY+YUovGlM2c+StZvWYR810jC3E1mBJSSXbacClDBDCgM+dRuuohlpTOIsOmAjkOyCgMLrJL80g0G9Ep9agNJpyJcaKKLOZmOjAbJhdwqEw2bFYDLl2IQECHTmshY1YhGckuTLqJNDGZcFyNKWUumcmJJBgkZK0dZ/Z8ZrtApRyp51SSDQacOXmkaSOolRIKXQrpcypY+9haFicrMahvp/4/gcaMwZrArAQVvjjotEZSC1dQWrqA4owkLEm5lKboUCm1n17/o6itCbjMEiZljHBYj97gILugmDSXGd31XIIyMhBWOEkryifDYcQ0RnWqNGp0BhfJGUXMW7aCIqc0amX4x9uPpEsjo2ApS1YtY36a7jYXcseJyGp0zhxS0rLIvOl7pAq9NYHk1FTSVT4C6DDZCihdvoaViwvIt8HISIgtLYtUi2a4HiQbRmcxix7eyOL8JFwGJcgxZIUKrS2RnNI5uFQq1CozOqMGi0ODrEijJNeOaiR9TCRIoLuLtrp6ogueYHGWDYf+85coXxCE2/f6m5sptg1Rnm1lZBFhgl2PSQJZVhBXqLDZTBQXJvNgmgqjCvD5+Kg7RgMmvlOqYTAso9EYKMtzsnqWidkf2+xOJiJLaE06slP0ZGhGJ9WQkRUKdEYds7OMJCoVqIF4DJQqDckuEwV25ag4YeIiKNCZDaQ59OTc1K+jwGDQkuLQkSnF8CuUmAwmFha4WDvHROH1YyXsDgPpBgVmCUIKFSazmaVlSSxP1ZKgVYxdfqUKvU7CapaQFTrmJ6lRS5N9+MiEZBVWu57sBC3JN4UqcWSFEotNT3aq/vr6m1gUdHodaS4jORbppnONX//XakShQGvWkaKLo0ZBPK7EatSSm2Ii3aSc0iQot+OjlkHO+01885vfnNTvKWRZHrP/vKenh6KiIl7819+ztGL5xM9Y82v+x/teBlOX87ffWDmp5YKfLV7cHT309fkYb/Rb0powJuSSbpnaLDp3T5RYdIC2y534ozHGTogDGlsaDofzM55HWAYGaG/uYtAfYuyESqAyOrG40kid0gnmUy8W8tPdWMupPe8ib/oxFakmnDN75FQQhBnmy888zlez+vju6oyJ/1JHJ/9xxstrfgv/9mQSGUzHsvHRIrR1hxkIxRhvGYtap8Fq1pF+J2njps39Xv5777cHrrC1K4n9+/dP6vemvudcpScrJYY3Sf05X73ZSNXebezZd5bxlmjpUwrJe/wf+N58mGRn9QzhIzRUzRsvbuaCd2jc9DYJy55j3dr1PJJ7Vwt3l0WBevZseZ2q8+3XF/Pdylq4nkUbnuM/zfDsFoG+K/T0dRFY8j0eS9MPT28SBEGYbpJEsllJsV6a5sAZhpdm+9hxpIOj7UE84xxlS09g6bwMns+c9gJN0v1e/vvb1PdAR4eGFwMo1eg0n+cgOkooGCIcjjLuFHlJhUprRK9mahfs3TUyshxhyBckOnYzAkCh1qPRaKZ4l76ZKELQHyQSi4/7mStUGtQaPROakXMPyfEosViMKCq0auV92j4FQbiXbqsHOh4nFJOJyAr0mrsTRA+F4kRijDuKKikVqFVKZuYstvu9/PfejOqBnunBwd2hQqtTof1MD5koUCg0GMxibH+YGp1RzWfhI1dIKlSS6r5d3CEIwn1KktBK8LGpztN3QfRaaVKZpWeW+73896/PbwexIAiCIAiCINwGVWdn55gv9Pb2Eo/H2bV7Bxcunr/LxRIEQRAE4X7W2dlBZSRwr4shCJ+o8lI/Ya2d8eLh8ajcbveYL3i9XoqLizl/sY5LTQ1TUUZBEARBED4nXAlO2tXJbO0S0/yEmSustZOdnc148fB4xl1EGIlEqKmpIS8vD6t1jE0eBEEQBEEQxnH27FlcLhfJycn3uiiCMK7Ozk7cbjfFxZNLjyXmQAuCIAiCIAjCJIgAWhAEQRAEQRAmQQTQgiAIgiAIgjAJIoAWBEEQBEEQhEkQAbQgCIIgCIIgTIIIoAVBEARBEARhEkQALQiCIAiCIAiT8P8BIQ/Qoqn+OdsAAAAASUVORK5CYII=;" vertex="1" parent="1">
          <mxGeometry x="266" y="438" width="720" height="416" as="geometry" />
        </mxCell>
        <mxCell id="pmKzXr_lIob0-RBbF5Z0-26" value="dev-&gt;driver_data = data;" style="text;whiteSpace=wrap;html=1;" vertex="1" parent="1">
          <mxGeometry x="703" y="304" width="159" height="36" as="geometry" />
        </mxCell>
      </root>
    </mxGraphModel>
  </diagram>
</mxfile>
